<svg class="logo" xmlns="http://www.w3.org/2000/svg" viewBox="0 0 780.31 751.88">
  <defs>
    <style>
      .cls-1 {
        fill: #fff;
      }
    </style>
  </defs>
  <title>arrayo-logo-icon</title>
  <g id="inner-circle-3" class="logo-rotate">
    <path class="cls-1" d="M500.65,357.4A114.6,114.6,0,0,1,292.93,427l36.69-26.33A69.46,69.46,0,0,0,455.5,358.46a68.44,68.44,0,0,0-7.15-29,70.63,70.63,0,0,0-5.85-9.76l36.69-26.33a115.4,115.4,0,0,1,9.61,16,114,114,0,0,1,11.85,48"/>
  </g>
  <g id="mid-circle-2" class="logo-rotate">
    <path class="cls-1" d="M535.59,353.86A149.77,149.77,0,0,0,464.95,233a147.38,147.38,0,0,0-60.73-21.36,151.8,151.8,0,0,0-24.49-1,149.64,149.64,0,0,0-73,276.39,147.42,147.42,0,0,0,61,21.65,152.06,152.06,0,0,0,24.64,1l4.11,97.22A248.52,248.52,0,0,1,356,605.3,247,247,0,0,1,139.31,370.63c-3.68-86.88,38-165.12,104-212a245.7,245.7,0,0,1,132.27-45.24A248.39,248.39,0,0,1,415.84,115a246.94,246.94,0,0,1,217,234.71Z"/>
  </g>
  <g id="outer_circle-1" class="logo-rotate" data-name="outer circle-1">
    <path class="cls-1" d="M122.64,639.81a30,30,0,1,1,6.7,4.65,32,32,0,0,1-6.7-4.65M38,525.64a29.56,29.56,0,0,0,13.25,13.58A30,30,0,1,0,38,525.64M.11,388.82a30,30,0,1,0,27.31-32.46A30,30,0,0,0,.11,388.82h0M14.27,247.36a30,30,0,0,0,15.14,35.16,33.58,33.58,0,0,0,5.12,2,30,30,0,1,0-20.25-37.21h0m69.8-84.64a26.08,26.08,0,0,0,4.66,2.94A29.8,29.8,0,0,0,126,157.1l0,.09a29.94,29.94,0,1,0-41.91,5.54m90-95.75A30.19,30.19,0,0,0,186.15,78,29.8,29.8,0,1,0,174.08,67M430.57,2.86a356,356,0,0,1,116.48,36L530.13,72.11A317.78,317.78,0,0,0,352.23,39L348.34,2a355.28,355.28,0,0,1,82.23.91M731.72,167A392.81,392.81,0,0,0,619.35,38.54L596.58,69.46l-22.12,30A317.6,317.6,0,0,1,665.28,203.3c48.89,89.47,54.23,200.75,4.45,298.46-50.9,99.89-147.15,161.46-250.88,172.58a317.64,317.64,0,0,1-178.77-33l-16.93,33.23L205.71,708.8a392.95,392.95,0,0,0,221,40.81C555.1,735.89,674.2,659.72,737.17,536.12c61.56-120.83,55-258.43-5.45-369.09"/>
  </g>
</svg>
