<svg class="icon" xmlns="http://www.w3.org/2000/svg" xmlns:xlink="http://www.w3.org/1999/xlink" viewBox="0 0 77.39 77.37">
  <defs>
    <style>
      .cls-1 {
        fill: url(#linear-gradient);
      }

      .cls-2 {
        fill: url(#linear-gradient-2);
      }

      .cls-3 {
        fill: url(#linear-gradient-3);
      }

      .cls-4 {
        fill: url(#linear-gradient-4);
      }

      .cls-5 {
        fill: url(#linear-gradient-5);
      }

      .cls-6 {
        fill: url(#linear-gradient-6);
      }

      .cls-7 {
        fill: url(#linear-gradient-7);
      }

      .cls-8 {
        fill: url(#linear-gradient-8);
      }

      .cls-9 {
        fill: url(#linear-gradient-9);
      }

      .cls-10 {
        fill: url(#linear-gradient-10);
      }

      .cls-11 {
        fill: url(#linear-gradient-11);
      }

      .cls-12 {
        fill: url(#linear-gradient-12);
      }

      .cls-13 {
        fill: url(#linear-gradient-13);
      }

      .cls-14 {
        fill: url(#linear-gradient-15);
      }

      .cls-15 {
        fill: url(#linear-gradient-17);
      }
    </style>
    <linearGradient id="linear-gradient" x1="63.94" y1="77" x2="63.94" y2="0.01" gradientUnits="userSpaceOnUse">
      <stop offset="0" stop-color="#4fd6ff"/>
      <stop offset="1" stop-color="#5c70ff"/>
    </linearGradient>
    <linearGradient id="linear-gradient-2" x1="13.46" y1="77" x2="13.46" y2="0.01" xlink:href="#linear-gradient"/>
    <linearGradient id="linear-gradient-3" x1="24.53" y1="54.37" x2="24.53" y2="54.37" xlink:href="#linear-gradient"/>
    <linearGradient id="linear-gradient-4" x1="21.82" y1="77" x2="21.82" y2="0.01" gradientTransform="translate(45.68 0.85) rotate(45.01)" xlink:href="#linear-gradient"/>
    <linearGradient id="linear-gradient-5" x1="71.63" y1="24.91" x2="71.63" y2="24.91" xlink:href="#linear-gradient"/>
    <linearGradient id="linear-gradient-6" x1="5.76" y1="52.45" x2="5.76" y2="52.45" xlink:href="#linear-gradient"/>
    <linearGradient id="linear-gradient-7" x1="25.14" y1="71.71" x2="25.14" y2="71.71" xlink:href="#linear-gradient"/>
    <linearGradient id="linear-gradient-8" x1="71.72" y1="52.24" x2="71.72" y2="52.24" xlink:href="#linear-gradient"/>
    <linearGradient id="linear-gradient-9" x1="52.46" y1="71.62" x2="52.46" y2="71.62" xlink:href="#linear-gradient"/>
    <linearGradient id="linear-gradient-10" x1="52.25" y1="5.65" x2="52.25" y2="5.65" xlink:href="#linear-gradient"/>
    <linearGradient id="linear-gradient-11" x1="5.67" y1="25.13" x2="5.67" y2="25.13" xlink:href="#linear-gradient"/>
    <linearGradient id="linear-gradient-12" x1="24.93" y1="5.76" x2="24.93" y2="5.76" xlink:href="#linear-gradient"/>
    <linearGradient id="linear-gradient-13" x1="38.67" y1="77" x2="38.67" y2="0.01" xlink:href="#linear-gradient"/>
    <linearGradient id="linear-gradient-15" x1="38.7" y1="77" x2="38.7" y2="0.01" xlink:href="#linear-gradient"/>
    <linearGradient id="linear-gradient-17" x1="38.69" y1="77" x2="38.69" y2="0.01" xlink:href="#linear-gradient"/>
  </defs>
  <title>connect-icon</title>
  <g id="plus-hor-line" class="pullRight">
    <path class="cls-1" d="M63.94,19.17A5.74,5.74,0,1,1,68,17.49,5.7,5.7,0,0,1,63.94,19.17Zm0-7.47a1.73,1.73,0,0,0-1.23,3,1.78,1.78,0,0,0,2.45,0h0a1.73,1.73,0,0,0-1.23-3Z"/>
    <path class="cls-2" d="M13.47,69.64A5.73,5.73,0,1,1,17.52,68h0A5.72,5.72,0,0,1,13.47,69.64Zm0-7.47a1.73,1.73,0,1,0,1.23.51A1.73,1.73,0,0,0,13.47,62.18Z"/>
    <path class="cls-3" d="M24.53,54.37"/>
    <rect class="cls-4" x="14.19" y="52.56" width="15.26" height="6" transform="translate(-32.9 31.71) rotate(-45.01)"/>
    <path class="cls-5" d="M71.63,24.91"/>
    <path class="cls-6" d="M5.76,52.45"/>
    <path class="cls-7" d="M25.14,71.71"/>
    <path class="cls-8" d="M71.72,52.24"/>
    <path class="cls-9" d="M52.46,71.62"/>
    <path class="cls-10" d="M52.25,5.65"/>
    <path class="cls-11" d="M5.67,25.13"/>
    <path class="cls-12" d="M24.93,5.76"/>
    <rect class="cls-13" x="31.23" y="36.18" width="14.88" height="5"/>
  </g>
  <g id="plus-vert-line" class="pullUp">
    <rect class="cls-13" x="36.17" y="31.25" width="5" height="14.88"/>
  </g>
  <g id="arrow-lines" class="rotate">
    <path class="cls-14" d="M37.19,29.12l0-4.18A14,14,0,0,0,26.37,47.16l4,4L18.54,63.07,14.3,58.83l7.62-7.62A20,20,0,0,1,37.28,18.92l0-4.12,7.1,7.1ZM63.11,18.51l-4.24-4.24L47.07,26.06l3.52,3.52a14,14,0,0,1-1,18.74,13.87,13.87,0,0,1-9.44,4.08l0-4.18L33,55.45l7.1,7.1,0-4.13a19.82,19.82,0,0,0,13.73-5.85,20,20,0,0,0,1.62-26.44Z"/>
  </g>
  <g id="circles" class="grow">
    <path class="cls-14" d="M13.47,19.17a5.73,5.73,0,1,1,4.06-9.79h0a5.73,5.73,0,0,1-4.06,9.79Zm0-7.47a1.73,1.73,0,1,0,1.23.51h0A1.73,1.73,0,0,0,13.46,11.7ZM63.94,69.65A5.74,5.74,0,1,1,68,59.86h0a5.73,5.73,0,0,1-4.06,9.79Zm0-7.47a1.74,1.74,0,0,0-1.23,3,1.78,1.78,0,0,0,2.45,0,1.73,1.73,0,0,0,0-2.45h0A1.72,1.72,0,0,0,63.94,62.18ZM13.47,69.64A5.73,5.73,0,1,1,17.52,68h0A5.72,5.72,0,0,1,13.47,69.64Zm0-7.47a1.73,1.73,0,1,0,1.23.51A1.73,1.73,0,0,0,13.47,62.18Zm50.48-43A5.74,5.74,0,1,1,68,17.49,5.7,5.7,0,0,1,63.94,19.17Zm0-7.47a1.73,1.73,0,0,0-1.23,3,1.78,1.78,0,0,0,2.45,0,1.73,1.73,0,0,0-1.23-3ZM55.38,55.37a2.12,2.12,0,1,0,3,0A2.12,2.12,0,0,0,55.38,55.37ZM19.07,19.06a2.12,2.12,0,1,0,3,0A2.12,2.12,0,0,0,19.07,19.06Z"/>
  </g>
  <g id="outer-shapes" class="rotate">
    <path class="cls-15" d="M53.62,74.38a38.61,38.61,0,0,1-29.61.1l2.28-5.55a32.76,32.76,0,0,0,25-.08ZM74.4,23.76l-5.54,2.31a32.75,32.75,0,0,1,.09,25l5.55,2.28a38.75,38.75,0,0,0-.1-29.62Zm-23-21.62A38.83,38.83,0,0,0,23.77,3l2.31,5.54A32.83,32.83,0,0,1,49.46,7.8q.83.29,1.65.63l2.27-5.55Q52.42,2.48,51.43,2.14ZM6,38.68A32.58,32.58,0,0,1,8.44,26.27L2.89,24A38.75,38.75,0,0,0,3,53.61l5.54-2.31A32.56,32.56,0,0,1,6,38.68Z"/>
  </g>
</svg>

