<?xml version="1.0" encoding="UTF-8"?>
<svg width="77px" height="77px" viewBox="0 0 77 77" version="1.1" xmlns="http://www.w3.org/2000/svg" xmlns:xlink="http://www.w3.org/1999/xlink">
    <!-- Generator: Sketch 39.1 (31720) - http://www.bohemiancoding.com/sketch -->
    <title>Fill 5</title>
    <desc>Created with Sketch.</desc>
    <defs></defs>
    <g id="Page-1" stroke="none" stroke-width="1" fill="none" fill-rule="evenodd">
        <g transform="translate(-474.000000, -218.000000)" id="Group" fill="#FFFFFF">
            <g transform="translate(0.000000, 127.000000)">
                <path d="M510.9639,91.1151 C500.7609,91.5921 491.3509,95.9981 484.4749,103.5181 C477.5989,111.0431 474.0759,120.7841 474.5579,130.9441 C475.5219,151.3061 492.4709,167.2291 512.7419,167.2291 C513.3409,167.2291 513.9459,167.2131 514.5519,167.1841 C535.6169,166.1951 551.9409,148.3331 550.9579,127.3621 C549.9619,106.3911 531.9569,90.0261 510.9639,91.1151 M513.3019,140.6571 C507.0569,140.9901 501.4959,136.0371 501.2029,129.6931 L501.2029,129.6861 C501.0529,126.6161 502.1209,123.6731 504.1979,121.3971 C506.2819,119.1211 509.1279,117.7851 512.2139,117.6421 C512.3969,117.6331 512.5789,117.6301 512.7609,117.6301 C518.8949,117.6301 524.0259,122.4471 524.3129,128.6071 C524.6119,134.9541 519.6699,140.3581 513.3019,140.6571" id="Fill-5"></path>
            </g>
        </g>
    </g>
</svg>