<?xml version="1.0" encoding="UTF-8"?>
<svg width="77px" height="77px" viewBox="0 0 77 77" version="1.1" xmlns="http://www.w3.org/2000/svg" xmlns:xlink="http://www.w3.org/1999/xlink">
    <!-- Generator: Sketch 39.1 (31720) - http://www.bohemiancoding.com/sketch -->
    <title>Fill 8</title>
    <desc>Created with Sketch.</desc>
    <defs></defs>
    <g id="Page-1" stroke="none" stroke-width="1" fill="none" fill-rule="evenodd">
        <g transform="translate(0.000000, -218.000000)" id="Group" fill="#FFFFFF">
            <g transform="translate(0.000000, 127.000000)">
                <path d="M40.0426,167.1841 C50.2466,166.7071 59.6556,162.2981 66.5316,154.7771 C73.4016,147.2531 76.9236,137.5151 76.4426,127.3551 C75.4456,106.3871 57.3896,90.0261 36.4486,91.1151 C15.3836,92.1041 -0.9414,109.9661 0.0426,130.9371 C1.0056,151.3061 17.9556,167.2291 38.2326,167.2291 C38.8316,167.2291 39.4366,167.2131 40.0426,167.1841 M26.6876,129.6921 C26.3876,123.3451 31.3306,117.9411 37.6986,117.6421 C37.8806,117.6331 38.0636,117.6301 38.2456,117.6301 C44.3796,117.6301 49.5106,122.4471 49.7966,128.6071 L49.7966,128.6131 C49.9466,131.6861 48.8786,134.6291 46.8016,136.9051 C44.7246,139.1811 41.8786,140.5141 38.7926,140.6571 C32.4376,141.0191 26.9806,136.0371 26.6876,129.6921" id="Fill-8"></path>
            </g>
        </g>
    </g>
</svg>