<svg id="fintech" class="icon" xmlns="http://www.w3.org/2000/svg" viewBox="0 0 82.64 77.41">
  <defs>
    <style>
      .cls-1 {
        fill: #b18fff;
      }
    </style>
  </defs>
  <title>fintech-icon</title>
  <g id="dots" class="grow">
    <circle class="cls-1" cx="74.88" cy="26.6" r="3" transform="translate(-1.17 3.55) rotate(-2.69)"/>
    <circle class="cls-1" cx="7.72" cy="51.19" r="3" transform="translate(-2.4 0.42) rotate(-2.69)"/>
  </g>
  <g id="lines2" class="pullUp">
    <rect class="cls-1" x="38.31" y="2.34" width="6" height="11.82"/>
    <rect class="cls-1" x="38.31" y="63.01" width="6" height="11.82"/>
  </g>
  <g id="circles" class="grow">
    <path class="cls-1" d="M76.9,44.32a5.74,5.74,0,0,1-5.73-5.47h0a5.74,5.74,0,1,1,6,5.46Zm0-7.47h-.08a1.73,1.73,0,0,0-1.65,1.81h0a1.73,1.73,0,1,0,1.73-1.82Z"/>
    <path class="cls-1" d="M5.73,44.32a5.74,5.74,0,1,1,5.73-6h0a5.73,5.73,0,0,1-5.46,6Zm0-7.47H5.65A1.74,1.74,0,1,0,7.47,38.5h0A1.74,1.74,0,0,0,5.74,36.85Z"/>
  </g>
  <g id="dolla-dolla" class="grow">
    <path class="cls-1" d="M41.25,38a13.7,13.7,0,1,1,9.68-23.39L46.7,18.88A7.7,7.7,0,1,0,41.25,32Zm10.8-18.77a3,3,0,1,0,3,3A3,3,0,0,0,52.05,19.26ZM41.36,44a7.7,7.7,0,1,1-5.44,13.15l-4.24,4.24A13.7,13.7,0,1,0,41.36,38ZM30.56,56.8a3,3,0,1,0-3-3A3,3,0,0,0,30.56,56.8Z"/>
  </g>
  <g id="outershapes" class="rotate">
    <g>
      <path class="cls-1" d="M13.58,21.37,8.49,18.19A38.72,38.72,0,0,1,49.87,1,38.44,38.44,0,0,1,74,18.09L69,21.29a32.71,32.71,0,0,0-55.39.08Z"/>
      <path class="cls-1" d="M41.38,77.41a39,39,0,0,1-8.65-1A38.44,38.44,0,0,1,8.56,59.32l5.08-3.2A32.71,32.71,0,0,0,69,56l5.09,3.18A38.78,38.78,0,0,1,41.38,77.41Z"/>
    </g>
  </g>
</svg>
