<?xml version="1.0" encoding="UTF-8"?>
<svg width="582px" height="583px" viewBox="0 0 582 583" version="1.1" xmlns="http://www.w3.org/2000/svg" xmlns:xlink="http://www.w3.org/1999/xlink">
    <!-- Generator: Sketch 39.1 (31720) - http://www.bohemiancoding.com/sketch -->
    <title>Page 1</title>
    <desc>Created with Sketch.</desc>
    <defs>
        <polygon id="path-1" points="290.918734 583 0 583 0 0.565 581.837469 0.565 581.837469 583"></polygon>
    </defs>
    <g id="Page-1" stroke="none" stroke-width="1" fill="none" fill-rule="evenodd">
        <g transform="translate(0.000000, -1.000000)">
            <g id="Group-3" transform="translate(0.000000, 0.435000)">
                <mask id="mask-2" fill="white">
                    <use xlink:href="#path-1"></use>
                </mask>
                <g id="Clip-2"></g>
                <path d="M556.9062,409.137 C590.0672,334.528 590.2512,249.779 556.8382,174.553 C558.7922,171.669 560.5212,168.586 561.7622,165.165 C565.6942,154.338 565.1722,142.63 560.2942,132.199 C555.4212,121.768 546.7702,113.855 535.9432,109.935 C525.1222,105.993 513.4112,106.522 502.9872,111.403 C492.5572,116.277 484.6472,124.924 480.7202,135.744 C476.7892,146.572 477.3112,158.28 482.1882,168.71 C487.0622,179.141 495.7092,187.054 506.5402,190.981 C509.5872,192.087 512.6782,192.705 515.7692,193.101 C517.6712,197.403 519.4462,201.739 521.0882,206.108 L430.9012,206.108 L430.9012,206.088 L404.5382,190.87 L319.7952,239.504 L287.9522,258.007 L287.7542,257.892 L286.8752,258.397 L212.6482,214.123 L212.6542,214.12 L212.5702,214.071 L253.3392,190.532 L314.7012,154.956 L314.7012,147.056 L314.7012,139.005 L314.7012,46.943 C357.3972,51.109 399.1992,66.52 435.7712,93.177 L462.3362,56.724 C365.0562,-14.178 236.5392,-18.274 134.9252,46.315 C130.7592,48.965 126.6852,51.696 122.6992,54.522 L148.7582,91.327 C152.1342,88.941 155.5842,86.622 159.1152,84.383 C193.3632,62.614 231.2362,50.236 269.6012,46.835 L269.6012,129.068 L136.1872,206.088 L136.1872,331.091 L48.3072,331.091 C40.6682,284.695 46.6232,236.882 65.9292,193.158 C81.4752,191.19 95.4342,180.871 101.1332,165.158 C105.0602,154.338 104.5392,142.63 99.6652,132.199 C94.7872,121.768 86.1392,113.855 75.3122,109.935 C52.9712,101.802 28.2052,113.407 20.0862,135.752 C15.2132,149.184 17.4942,163.469 24.9122,174.509 C-3.4088,238.274 -7.6688,309.442 12.5722,375.752 L12.5722,376.191 L12.7122,376.191 C16.1222,387.299 20.2382,398.257 25.0242,409.029 C23.0592,411.942 21.3162,415.02 20.0862,418.412 C16.1592,429.232 16.6802,440.94 21.5552,451.37 C26.4322,461.801 35.0792,469.714 45.9062,473.634 C50.7042,475.381 55.6772,476.247 60.6392,476.247 C66.8602,476.247 73.0592,474.882 78.8652,472.166 C89.2962,467.292 97.2052,458.645 101.1332,447.818 C105.0602,436.998 104.5392,425.29 99.6652,414.859 C94.7872,404.428 86.1392,396.515 75.3202,392.595 C72.2872,391.494 69.1812,390.831 66.0562,390.427 C63.9762,385.721 62.0342,380.979 60.2642,376.191 L136.1812,376.191 L136.1872,376.187 L181.3382,350.275 L181.4102,350.275 L181.3382,350.234 L181.3382,331.091 L181.2872,331.091 L181.2872,248.037 L287.9152,310.184 L385.8012,253.308 L385.8012,350.204 L283.5442,409.251 L282.7712,408.805 L237.5062,434.744 L269.6012,453.273 L269.6012,536.795 C226.0572,532.991 183.3522,517.561 146.0792,490.392 L119.5132,526.845 C170.7612,564.194 230.6592,583 290.7452,583 C344.7152,583 398.8442,567.813 446.9282,537.254 C451.0942,534.604 455.1682,531.874 459.1532,529.047 L433.0952,492.242 C429.7182,494.628 426.2682,496.948 422.7372,499.186 C389.2182,520.49 352.2262,532.828 314.7012,536.538 L314.7012,443.336 L430.9012,376.248 L430.9012,251.208 L533.3562,251.208 C541.3152,298.042 535.3732,346.372 515.8502,390.529 C511.4592,391.089 507.1152,392.135 502.9872,394.056 C492.5572,398.937 484.6472,407.585 480.7202,418.404 C476.7892,429.232 477.3112,440.94 482.1882,451.37 C487.0622,461.801 495.7132,469.714 506.5402,473.634 C511.3372,475.381 516.3102,476.247 521.2692,476.247 C527.4902,476.247 533.6922,474.882 539.4952,472.166 C549.9262,467.292 557.8362,458.645 561.7622,447.818 C565.6902,436.998 565.1682,425.29 560.2942,414.859 C559.3432,412.823 558.1332,410.97 556.9062,409.137 M72.8722,437.563 C71.6832,440.837 69.2892,443.45 66.1332,444.926 C62.9772,446.401 59.4242,446.562 56.1612,445.373 L56.1542,445.373 C52.8832,444.184 50.2672,441.791 48.7952,438.642 C47.3202,435.478 47.1622,431.94 48.3472,428.666 C49.5362,425.392 51.9302,422.772 55.0862,421.297 C56.8402,420.482 58.7122,420.063 60.5952,420.063 C62.1002,420.063 63.6082,420.328 65.0652,420.856 C68.3352,422.045 70.9522,424.438 72.4242,427.587 C73.8992,430.751 74.0572,434.289 72.8722,437.563 M48.3472,146.006 C50.2712,140.714 55.2882,137.411 60.6202,137.411 C62.0962,137.411 63.5932,137.668 65.0582,138.196 L65.0652,138.196 C68.3352,139.385 70.9522,141.778 72.4242,144.927 C73.8992,148.091 74.0572,151.629 72.8722,154.91 C70.4202,161.664 62.9182,165.165 56.1652,162.721 C49.4002,160.262 45.8952,152.767 48.3472,146.006 M508.9812,146.006 C510.1702,142.732 512.5632,140.119 515.7192,138.644 C517.4742,137.822 519.3492,137.403 521.2322,137.403 C522.7332,137.403 524.2342,137.668 525.6882,138.196 L525.6952,138.196 C528.9692,139.385 531.5822,141.778 533.0582,144.927 C534.5332,148.084 534.6912,151.629 533.5022,154.91 C531.0462,161.664 523.5482,165.165 516.7952,162.721 C510.0312,160.262 506.5262,152.767 508.9812,146.006 M533.5022,437.563 C532.3132,440.837 529.9202,443.45 526.7632,444.926 C523.6032,446.401 520.0652,446.562 516.7952,445.373 L516.7872,445.373 C513.5142,444.184 510.9002,441.791 509.4252,438.642 C507.9492,435.486 507.7912,431.94 508.9812,428.659 C510.1702,425.385 512.5632,422.772 515.7152,421.297 C517.4702,420.482 519.3462,420.063 521.2252,420.063 C522.7302,420.063 524.2382,420.328 525.6952,420.856 C528.9652,422.045 531.5822,424.438 533.0542,427.587 C534.5302,430.751 534.6872,434.289 533.5022,437.563" id="Fill-1" fill="#FFFFFF" mask="url(#mask-2)"></path>
            </g>
            <polygon id="Fill-4" fill="#FFFFFF" points="136.187 376.6829 136.216 376.6999 136.187 376.6389"></polygon>
        </g>
    </g>
</svg>