<?xml version="1.0" encoding="UTF-8"?>
<svg width="439px" height="514px" viewBox="0 0 439 514" version="1.1" xmlns="http://www.w3.org/2000/svg" xmlns:xlink="http://www.w3.org/1999/xlink">
    <!-- Generator: Sketch 39.1 (31720) - http://www.bohemiancoding.com/sketch -->
    <title>Group 2</title>
    <desc>Created with Sketch.</desc>
    <defs></defs>
    <g id="Page-1" stroke="none" stroke-width="1" fill="none" fill-rule="evenodd">
        <g transform="translate(-56.000000, 0.000000)" id="Group-2" fill="#FFFFFF">
            <g transform="translate(56.000000, 0.000000)">
                <path d="M103.2299,73.3023 C132.7779,54.7733 165.6179,43.8423 199.4249,40.7853 L199.4249,72.7433 C158.4699,81.7243 127.7129,118.0983 127.7129,161.5393 C127.7129,211.6963 168.6959,252.5033 219.0729,252.5033 L219.0729,212.6683 C190.7569,212.6683 167.7199,189.7293 167.7199,161.5393 C167.7199,133.3423 190.7569,110.4033 219.0729,110.4033 C232.7799,110.4033 245.6729,115.7203 255.3749,125.3673 L283.6479,97.1903 C271.3069,84.9113 256.0359,76.6633 239.4319,72.9133 L239.4319,40.8643 C248.8629,41.7513 258.2979,43.1923 267.6919,45.3163 C324.4729,58.1633 372.8339,92.2573 403.8549,141.3183 L437.7149,120.0913 C400.9899,62.0273 343.7599,21.6743 276.5539,6.4703 C209.3619,-8.7177 140.2349,3.0373 81.9109,39.5943 C48.6239,60.4653 21.2629,87.7733 0.5819,120.7653 L34.5199,141.8563 C51.9779,114.0093 75.0939,90.9443 103.2299,73.3023" id="Fill-1"></path>
                <path d="M335.5487,440.6535 C306.0167,459.1675 273.2027,470.0905 239.4317,473.1575 L239.4317,432.2655 C280.3907,423.2865 311.1497,386.9115 311.1497,343.4675 C311.1497,293.3105 270.1667,252.5035 219.7897,252.5035 L219.7897,292.3385 C248.1057,292.3385 271.1427,315.2775 271.1427,343.4675 C271.1427,371.6645 248.1057,394.6035 219.7897,394.6035 C206.0827,394.6035 193.1897,389.2865 183.4877,379.6395 L155.2147,407.8165 C167.5547,420.0945 182.8227,428.3425 199.4247,432.0925 L199.4247,473.0975 C189.9667,472.2125 180.5047,470.7685 171.0867,468.6395 C114.3057,455.7925 65.9447,421.6985 34.9237,372.6375 L1.0637,393.8645 C37.7887,451.9285 95.0187,492.2825 162.2247,507.4855 C181.3947,511.8205 200.7077,513.9625 219.8907,513.9625 C267.9717,513.9625 315.1867,500.4965 356.8677,474.3615 C390.1477,453.4945 417.5157,426.1855 438.2037,393.1935 L404.2647,372.0965 C386.8007,399.9495 363.6787,423.0145 335.5487,440.6535" id="Fill-3"></path>
            </g>
        </g>
    </g>
</svg>