<?xml version="1.0" encoding="UTF-8"?>
<svg width="552px" height="591px" viewBox="0 0 552 591" version="1.1" xmlns="http://www.w3.org/2000/svg" xmlns:xlink="http://www.w3.org/1999/xlink">
    <!-- Generator: Sketch 39.1 (31720) - http://www.bohemiancoding.com/sketch -->
    <title>Page 1</title>
    <desc>Created with Sketch.</desc>
    <defs>
        <polygon id="path-1" points="2.03287907e-20 0.1034 2.03287907e-20 467.2904 418.061757 467.2904 418.061757 0.1034 0 0.1034"></polygon>
    </defs>
    <g id="Page-1" stroke="none" stroke-width="1" fill="none" fill-rule="evenodd">
        <g>
            <path d="M190.3203,76.5004 C202.1273,76.5004 211.6993,66.9284 211.6993,55.1214 C211.6993,43.3154 202.1273,33.7434 190.3203,33.7434 C178.5133,33.7434 168.9413,43.3154 168.9413,55.1214 C168.9413,66.9284 178.5133,76.5004 190.3203,76.5004" id="Fill-1" fill="#FFFFFF"></path>
            <path d="M361.3502,76.5004 C373.1572,76.5004 382.7292,66.9284 382.7292,55.1214 C382.7292,43.3154 373.1572,33.7434 361.3502,33.7434 C349.5432,33.7434 339.9712,43.3154 339.9712,55.1214 C339.9712,66.9284 349.5432,76.5004 361.3502,76.5004" id="Fill-3" fill="#FFFFFF"></path>
            <path d="M361.3502,514.0946 C349.5432,514.0946 339.9712,523.6666 339.9712,535.4736 C339.9712,547.2806 349.5432,556.8516 361.3502,556.8516 C373.1572,556.8516 382.7292,547.2806 382.7292,535.4736 C382.7292,523.6666 373.1572,514.0946 361.3502,514.0946" id="Fill-5" fill="#FFFFFF"></path>
            <path d="M190.3203,514.0946 C178.5133,514.0946 168.9413,523.6666 168.9413,535.4736 C168.9413,547.2806 178.5133,556.8516 190.3203,556.8516 C202.1273,556.8516 211.6993,547.2806 211.6993,535.4736 C211.6993,523.6666 202.1273,514.0946 190.3203,514.0946" id="Fill-7" fill="#FFFFFF"></path>
            <g id="Group-11" transform="translate(354.000000, 61.733000)" fill="#FFFFFF">
                <path d="M154.461,86.6928 C131.892,51.2218 102.441,22.1178 66.921,0.1828 L44.457,36.5658 C74.437,55.0768 99.309,79.6638 118.384,109.6438 C120.732,113.3328 122.939,117.0808 125.065,120.8628 L0.607,120.8628 L0.607,163.6198 L143.752,163.6198 C148.608,178.6818 151.868,194.1568 153.539,209.8498 L108.69,209.8498 L108.69,252.6078 L154.141,252.6078 C153.279,263.5018 151.682,274.4108 149.269,285.2668 C147.717,292.2538 145.828,299.1078 143.682,305.8458 L65.014,305.8458 L65.014,348.6028 L125.201,348.6028 C106.625,381.8858 79.987,410.2458 46.927,431.2858 L69.879,467.3618 C132.017,427.8128 175.032,366.4398 191.011,294.5438 C206.982,222.6408 194.003,148.8248 154.461,86.6928" id="Fill-9"></path>
            </g>
            <path d="M261.8886,79.2859 C266.4406,80.9419 271.1586,81.7629 275.8636,81.7629 C281.7576,81.7629 287.6376,80.4689 293.1426,77.8939 C303.0316,73.2729 310.5266,65.0749 314.2506,54.8169 C321.9396,33.6329 310.9646,10.1459 289.7746,2.4489 C268.5906,-5.2271 245.0966,5.7479 237.4196,26.9249 C233.6976,37.1899 234.1836,48.2899 238.8056,58.1789 C243.4336,68.0679 251.6236,75.5629 261.8886,79.2859 M264.2136,36.6469 C266.0366,31.6289 270.7966,28.5049 275.8486,28.5049 C277.2476,28.5049 278.6676,28.7409 280.0526,29.2419 C286.4616,31.5729 289.7816,38.6789 287.4566,45.0949 C286.3296,48.1919 284.0616,50.6769 281.0756,52.0679 C278.0756,53.4669 274.7286,53.6199 271.6176,52.4929 L271.6106,52.4929 C268.5066,51.3659 266.0296,49.0969 264.6306,46.1109 C263.2316,43.1189 263.0856,39.7579 264.2136,36.6469" id="Fill-12" fill="#FFFFFF"></path>
            <path d="M289.7813,511.4257 C279.5303,507.6957 268.4303,508.1897 258.5273,512.8177 C248.6393,517.4387 241.1433,525.6367 237.4203,535.8947 C233.6973,546.1597 234.1913,557.2587 238.8113,567.1487 C243.4333,577.0377 251.6313,584.5327 261.8883,588.2557 C266.4473,589.9117 271.1583,590.7327 275.8633,590.7327 C281.7643,590.7327 287.6383,589.4387 293.1433,586.8707 C303.0323,582.2427 310.5333,574.0447 314.2503,563.7867 C317.9733,553.5217 317.4863,542.4217 312.8643,532.5327 C308.2373,522.6437 300.0463,515.1487 289.7813,511.4257 M287.4563,554.0647 C286.3293,557.1687 284.0613,559.6457 281.0753,561.0447 C278.0763,562.4437 274.7213,562.5897 271.6103,561.4627 C268.5133,560.3347 266.0293,558.0667 264.6383,555.0807 C263.2393,552.0887 263.0853,548.7267 264.2133,545.6167 C265.3403,542.5197 267.6093,540.0347 270.5943,538.6437 C272.2653,537.8637 274.0393,537.4667 275.8283,537.4667 C277.2473,537.4667 278.6743,537.7177 280.0523,538.2187 L280.0593,538.2187 C283.1633,539.3457 285.6403,541.6147 287.0393,544.6007 C288.4383,547.5927 288.5843,550.9537 287.4563,554.0647" id="Fill-14" fill="#FFFFFF"></path>
            <g id="Group-18" transform="translate(0.000000, 63.733000)">
                <mask id="mask-2" fill="white">
                    <use xlink:href="#path-1"></use>
                </mask>
                <g id="Clip-17"></g>
                <path d="M417.9839,207.8084 L396.6819,207.8084 L297.7429,207.8084 L297.7429,108.8554 L297.7429,87.5464 L276.4329,87.4764 L275.9319,87.4764 C255.7229,87.4764 236.3699,91.5684 218.3869,99.6414 C174.0839,119.5444 143.4289,160.6314 136.2259,207.7384 L44.2189,207.7384 C45.1549,199.2144 46.5139,190.6914 48.4009,182.1984 C49.9529,175.2114 51.8419,168.3574 53.9879,161.6204 L126.9349,161.6204 L126.9349,118.8624 L72.4689,118.8624 C91.0459,85.5804 117.6829,57.2194 150.7429,36.1804 L127.7909,0.1034 C65.6519,39.6524 22.6379,101.0264 6.6589,172.9214 C-9.3121,244.8244 3.6669,318.6414 43.2089,380.7724 C65.7779,416.2374 95.2289,445.3474 130.7499,467.2904 L153.2129,430.9074 C123.2329,412.3884 98.3609,387.7944 79.2859,357.8214 C76.9379,354.1334 74.7309,350.3854 72.6059,346.6034 L126.9349,346.6034 L126.9349,303.8454 L53.9179,303.8454 C48.3289,286.5074 44.7849,268.6284 43.4219,250.4964 L177.3619,250.4964 L177.3619,229.1174 C177.3619,190.7374 200.8919,154.3754 235.9029,138.6404 C242.0269,135.8914 248.4019,133.8114 254.9859,132.4124 L254.9859,229.1874 L254.9859,250.5654 L276.3639,250.5654 L373.1119,250.5654 C371.1489,259.8074 367.8779,268.6734 363.3889,276.8234 L400.8579,297.4364 C412.1939,276.8234 418.1439,253.1964 418.0609,229.1104 L417.9839,207.8084 Z" id="Fill-16" fill="#FFFFFF" mask="url(#mask-2)"></path>
            </g>
            <path d="M151.6199,346.7984 C159.0939,364.6424 170.4519,381.2394 184.4679,394.7964 L214.1969,364.0644 C204.3149,354.5024 196.3119,342.8174 191.0509,330.2774 L151.6199,346.7984 Z" id="Fill-19" fill="#FFFFFF"></path>
            <path d="M282.1956,434.7212 C285.7306,434.7212 289.2456,434.5892 292.7456,434.3172 L289.4336,391.6852 C284.3666,392.0822 279.2306,392.0542 274.0816,391.6162 C260.9076,390.5092 248.2556,386.7302 236.4806,380.3832 L216.2016,418.0192 C233.1686,427.1702 251.4426,432.6192 270.5046,434.2202 C274.4496,434.5542 278.3826,434.7212 282.1956,434.7212" id="Fill-21" fill="#FFFFFF"></path>
            <path d="M351.1897,364.1477 C341.3007,373.5567 329.2887,381.0377 316.4567,385.7767 L331.2657,425.8897 C349.5117,419.1467 366.5977,408.5127 380.6687,395.1167 L351.1897,364.1477 Z" id="Fill-23" fill="#FFFFFF"></path>
        </g>
    </g>
</svg>