<?xml version="1.0" encoding="UTF-8"?>
<svg width="551px" height="514px" viewBox="0 0 551 514" version="1.1" xmlns="http://www.w3.org/2000/svg" xmlns:xlink="http://www.w3.org/1999/xlink">
    <!-- Generator: Sketch 39.1 (31720) - http://www.bohemiancoding.com/sketch -->
    <title>Page 1</title>
    <desc>Created with Sketch.</desc>
    <defs></defs>
    <g id="Page-1" stroke="none" stroke-width="1" fill="none" fill-rule="evenodd">
        <g fill="#FEFEFE">
            <path d="M159.2299,73.3023 C188.7779,54.7733 221.6179,43.8423 255.4249,40.7853 L255.4249,72.7433 C214.4699,81.7243 183.7129,118.0983 183.7129,161.5393 C183.7129,211.6963 224.6959,252.5033 275.0729,252.5033 L275.0729,212.6683 C246.7569,212.6683 223.7199,189.7293 223.7199,161.5393 C223.7199,133.3423 246.7569,110.4033 275.0729,110.4033 C288.7799,110.4033 301.6729,115.7203 311.3749,125.3673 L339.6479,97.1903 C327.3069,84.9113 312.0359,76.6633 295.4319,72.9133 L295.4319,40.8643 C304.8629,41.7513 314.2979,43.1923 323.6919,45.3163 C380.4729,58.1633 428.8339,92.2573 459.8549,141.3183 L493.7149,120.0913 C456.9899,62.0273 399.7599,21.6743 332.5539,6.4703 C265.3619,-8.7177 196.2349,3.0373 137.9109,39.5943 C104.6239,60.4653 77.2629,87.7733 56.5819,120.7653 L90.5199,141.8563 C107.9779,114.0093 131.0939,90.9443 159.2299,73.3023" id="Fill-1"></path>
            <path d="M391.5487,440.6535 C362.0167,459.1675 329.2027,470.0905 295.4317,473.1575 L295.4317,432.2655 C336.3907,423.2865 367.1497,386.9115 367.1497,343.4675 C367.1497,293.3105 326.1667,252.5035 275.7897,252.5035 L275.7897,292.3385 C304.1057,292.3385 327.1427,315.2775 327.1427,343.4675 C327.1427,371.6645 304.1057,394.6035 275.7897,394.6035 C262.0827,394.6035 249.1897,389.2865 239.4877,379.6395 L211.2147,407.8165 C223.5547,420.0945 238.8227,428.3425 255.4247,432.0925 L255.4247,473.0975 C245.9667,472.2125 236.5047,470.7685 227.0867,468.6395 C170.3057,455.7925 121.9447,421.6985 90.9237,372.6375 L57.0637,393.8645 C93.7887,451.9285 151.0187,492.2825 218.2247,507.4855 C237.3947,511.8205 256.7077,513.9625 275.8907,513.9625 C323.9717,513.9625 371.1867,500.4965 412.8677,474.3615 C446.1477,453.4945 473.5157,426.1855 494.2037,393.1935 L460.2647,372.0965 C442.8007,399.9495 419.6787,423.0145 391.5487,440.6535" id="Fill-3"></path>
            <g id="Group-7" transform="translate(474.000000, 217.963000)">
                <path d="M36.9639,0.1521 C26.7609,0.6291 17.3509,5.0351 10.4749,12.5551 C3.5989,20.0801 0.0759,29.8211 0.5579,39.9811 C1.5219,60.3431 18.4709,76.2661 38.7419,76.2661 C39.3409,76.2661 39.9459,76.2501 40.5519,76.2211 C61.6169,75.2321 77.9409,57.3701 76.9579,36.3991 C75.9619,15.4281 57.9569,-0.9369 36.9639,0.1521 M39.3019,49.6941 C33.0569,50.0271 27.4959,45.0741 27.2029,38.7301 L27.2029,38.7231 C27.0529,35.6531 28.1209,32.7101 30.1979,30.4341 C32.2819,28.1581 35.1279,26.8221 38.2139,26.6791 C38.3969,26.6701 38.5789,26.6671 38.7609,26.6671 C44.8949,26.6671 50.0259,31.4841 50.3129,37.6441 C50.6119,43.9911 45.6699,49.3951 39.3019,49.6941" id="Fill-5"></path>
            </g>
            <path d="M40.0426,294.1841 C50.2466,293.7071 59.6556,289.2981 66.5316,281.7771 C73.4016,274.2531 76.9236,264.5151 76.4426,254.3551 C75.4456,233.3871 57.3896,217.0261 36.4486,218.1151 C15.3836,219.1041 -0.9414,236.9661 0.0426,257.9371 C1.0056,278.3061 17.9556,294.2291 38.2326,294.2291 C38.8316,294.2291 39.4366,294.2131 40.0426,294.1841 M26.6876,256.6921 C26.3876,250.3451 31.3306,244.9411 37.6986,244.6421 C37.8806,244.6331 38.0636,244.6301 38.2456,244.6301 C44.3796,244.6301 49.5106,249.4471 49.7966,255.6071 L49.7966,255.6131 C49.9466,258.6861 48.8786,261.6291 46.8016,263.9051 C44.7246,266.1811 41.8786,267.5141 38.7926,267.6571 C32.4376,268.0191 26.9806,263.0371 26.6876,256.6921" id="Fill-8"></path>
            <path d="M479.317,177.5528 C479.835,188.5408 489.202,197.0298 500.238,196.5128 C511.273,195.9958 519.798,186.6698 519.28,175.6818 C518.761,164.6938 509.394,156.2048 498.358,156.7218 C487.323,157.2388 478.798,166.5648 479.317,177.5528" id="Fill-10"></path>
            <path d="M71.4648,338.8942 C70.9458,327.9062 61.5788,319.4172 50.5428,319.9342 C39.5078,320.4512 30.9828,329.7772 31.5018,340.7642 C32.0208,351.7532 41.3878,360.2412 52.4228,359.7252 C63.4578,359.2082 71.9838,349.8822 71.4648,338.8942" id="Fill-12"></path>
            <path d="M327.0723,147.8039 C327.0723,158.8049 336.0293,167.7209 347.0753,167.7209 C358.1243,167.7209 367.0793,158.8049 367.0793,147.8039 C367.0793,136.8039 358.1243,127.8869 347.0753,127.8869 C336.0293,127.8869 327.0723,136.8039 327.0723,147.8039" id="Fill-14"></path>
            <path d="M183.7825,357.2022 C183.7825,368.2022 192.7395,377.1192 203.7855,377.1192 C214.8345,377.1192 223.7895,368.2022 223.7895,357.2022 C223.7895,346.2022 214.8345,337.2852 203.7855,337.2852 C192.7395,337.2852 183.7825,346.2022 183.7825,357.2022" id="Fill-16"></path>
        </g>
    </g>
</svg>