<?xml version="1.0" encoding="UTF-8"?>
<svg width="552px" height="592px" viewBox="0 0 552 592" version="1.1" xmlns="http://www.w3.org/2000/svg" xmlns:xlink="http://www.w3.org/1999/xlink">
    <!-- Generator: Sketch 39.1 (31720) - http://www.bohemiancoding.com/sketch -->
    <title>Page 1</title>
    <desc>Created with Sketch.</desc>
    <defs>
        <polygon id="path-1" points="551.71 591.9997 551.71 0.859191966 2.71050543e-20 0.859191966 0 591.9997"></polygon>
    </defs>
    <g id="Page-1" stroke="none" stroke-width="1" fill="none" fill-rule="evenodd">
        <g transform="translate(0.000000, -1.000000)">
            <path d="M190.2812,77.5559 C202.0972,77.5559 211.6742,67.9779 211.6742,56.1629 C211.6742,44.3469 202.0972,34.7689 190.2812,34.7689 C178.4662,34.7689 168.8882,44.3469 168.8882,56.1629 C168.8882,67.9779 178.4662,77.5559 190.2812,77.5559" id="Fill-1" fill="#FFFFFF"></path>
            <path d="M361.4286,77.5559 C373.2446,77.5559 382.8216,67.9779 382.8216,56.1629 C382.8216,44.3469 373.2446,34.7689 361.4286,34.7689 C349.6136,34.7689 340.0356,44.3469 340.0356,56.1629 C340.0356,67.9779 349.6136,77.5559 361.4286,77.5559" id="Fill-3" fill="#FFFFFF"></path>
            <path d="M361.4286,515.4499 C349.6136,515.4499 340.0356,525.0289 340.0356,536.8429 C340.0356,548.6599 349.6136,558.2369 361.4286,558.2369 C373.2446,558.2369 382.8216,548.6599 382.8216,536.8429 C382.8216,525.0289 373.2446,515.4499 361.4286,515.4499" id="Fill-5" fill="#FFFFFF"></path>
            <path d="M190.2812,515.4499 C178.4662,515.4499 168.8882,525.0289 168.8882,536.8429 C168.8882,548.6599 178.4662,558.2369 190.2812,558.2369 C202.0972,558.2369 211.6742,548.6599 211.6742,536.8429 C211.6742,525.0289 202.0972,515.4499 190.2812,515.4499" id="Fill-7" fill="#FFFFFF"></path>
            <g id="Group-11" transform="translate(0.000000, 0.141000)">
                <mask id="mask-2" fill="white">
                    <use xlink:href="#path-1"></use>
                </mask>
                <g id="Clip-10"></g>
                <path d="M508.642,149.3887 C486.054,113.8937 456.579,84.7627 421.042,62.8187 L398.562,99.2277 C428.559,117.7517 453.453,142.3547 472.548,172.3557 C474.902,176.0557 477.114,179.8037 479.233,183.5827 L419.137,183.5827 L419.137,226.3697 L497.877,226.3697 C502.743,241.5647 505.946,257.0647 507.592,272.6317 L399.875,272.6317 L399.875,228.9597 L297.25,169.7127 L297.25,76.4727 C304.845,71.8027 311.028,64.7237 314.301,55.7087 C321.993,34.5117 311.004,11.0077 289.801,3.3127 C268.624,-4.3763 245.1,6.6127 237.411,27.8107 C233.686,38.0767 234.18,49.1837 238.805,59.0797 C242.248,66.4427 247.681,72.4687 254.463,76.6107 L254.463,169.7127 L151.835,228.9597 L151.835,276.1407 L43.728,276.1407 C44.645,266.4037 46.107,256.6627 48.262,246.9617 C49.816,239.9697 51.707,233.1117 53.855,226.3697 L126.85,226.3697 L126.85,183.5827 L72.349,183.5827 C90.941,150.2787 117.597,121.8967 150.681,100.8427 L127.708,64.7417 C-0.65,146.4287 -38.618,317.3197 43.067,445.6727 C65.651,481.1677 95.122,510.2917 130.667,532.2487 L153.154,495.8407 C123.15,477.3097 98.257,452.7057 79.164,422.7047 C76.816,419.0137 74.607,415.2637 72.482,411.4797 L126.85,411.4797 L126.85,368.6927 L53.784,368.6927 C48.565,352.4997 45.18,335.8307 43.641,318.9277 L151.835,318.9277 L151.835,372.1737 L254.463,431.4217 L254.463,516.4427 C246.64,521.2577 240.592,528.3647 237.411,537.1307 C233.686,547.3957 234.18,558.5027 238.805,568.3987 C243.432,578.2947 251.635,585.8017 261.9,589.5217 C266.458,591.1777 271.176,591.9997 275.885,591.9997 C281.786,591.9997 287.667,590.7047 293.172,588.1347 C303.068,583.5037 310.571,575.3007 314.298,565.0357 C318.027,554.7637 317.532,543.6557 312.905,533.7597 C309.465,526.3987 304.031,520.3737 297.25,516.2317 L297.25,431.4207 L399.875,372.1737 L399.875,315.4187 L508.208,315.4187 C506.792,333.5257 503.268,351.4107 497.742,368.6927 L419.137,368.6927 L419.137,411.4797 L479.193,411.4797 C460.984,444.0987 434.693,472.7937 401.027,494.2187 L424.002,530.3197 C552.359,448.6317 590.33,277.7427 508.642,149.3887 L508.642,149.3887 Z M332.257,239.3307 L279.485,269.9987 L223.177,237.1817 L275.857,206.7647 L332.257,239.3307 Z M264.223,37.5327 C266.048,32.5117 270.81,29.3847 275.87,29.3847 C277.266,29.3847 278.687,29.6217 280.073,30.1227 C286.491,32.4557 289.816,39.5667 287.49,45.9807 C285.157,52.3867 278.046,55.6957 271.636,53.3897 L271.629,53.3897 C268.526,52.2617 266.044,49.9927 264.648,47.0037 C263.248,44.0027 263.098,40.6457 264.223,37.5327 L264.223,37.5327 Z M287.486,555.3067 C286.358,558.4137 284.088,560.8917 281.096,562.2917 C278.102,563.6917 274.738,563.8377 271.629,562.7097 C268.526,561.5807 266.044,559.3107 264.648,556.3237 C263.248,553.3217 263.098,549.9647 264.223,546.8597 C265.351,543.7537 267.621,541.2737 270.616,539.8747 C272.28,539.0947 274.06,538.6977 275.846,538.6977 C277.27,538.6977 278.694,538.9487 280.073,539.4497 L280.079,539.4497 C283.186,540.5777 285.665,542.8477 287.064,545.8357 C288.464,548.8297 288.614,552.1937 287.486,555.3067 L287.486,555.3067 Z M275.857,394.3687 L194.622,347.4657 L194.622,270.0607 L279.45,319.4987 L357.088,274.3857 L357.088,347.4657 L275.857,394.3687 Z" id="Fill-9" fill="#FFFFFF" mask="url(#mask-2)"></path>
            </g>
        </g>
    </g>
</svg>