<?xml version="1.0" encoding="UTF-8"?>
<svg width="567px" height="562px" viewBox="0 0 567 562" version="1.1" xmlns="http://www.w3.org/2000/svg" xmlns:xlink="http://www.w3.org/1999/xlink">
    <!-- Generator: Sketch 39.1 (31720) - http://www.bohemiancoding.com/sketch -->
    <title>Page 1</title>
    <desc>Created with Sketch.</desc>
    <defs></defs>
    <g id="Page-1" stroke="none" stroke-width="1" fill="none" fill-rule="evenodd">
        <g transform="translate(0.000000, -1.000000)" fill="#FFFFFF">
            <path d="M494.0522,184.5883 C498.7272,186.2683 503.5672,187.1033 508.3962,187.1033 C514.4582,187.1033 520.4992,185.7873 526.1502,183.1723 C536.3092,178.4693 544.0112,170.1323 547.8362,159.7003 C551.6642,149.2643 551.1562,137.9763 546.4062,127.9193 C541.6592,117.8613 533.2382,110.2363 522.6972,106.4463 L522.6932,106.4463 C512.1572,102.6563 500.7542,103.1653 490.5952,107.8653 C480.4342,112.5643 472.7342,120.9053 468.9102,131.3373 C465.0822,141.7733 465.5892,153.0623 470.3402,163.1193 C475.0862,173.1793 483.5082,180.8013 494.0522,184.5883 M496.4322,141.2273 C497.5912,138.0713 499.9212,135.5493 502.9952,134.1263 C504.7072,133.3333 506.5342,132.9333 508.3682,132.9333 C509.8262,132.9333 511.2912,133.1883 512.7032,133.6943 C515.8952,134.8403 518.4432,137.1483 519.8802,140.1953 C521.3172,143.2343 521.4712,146.6493 520.3132,149.8093 C519.1552,152.9663 516.8242,155.4853 513.7502,156.9083 C510.6912,158.3303 507.2342,158.4833 504.0392,157.3393 C500.8502,156.1933 498.3022,153.8853 496.8652,150.8423 C495.4282,147.8033 495.2742,144.3883 496.4322,141.2273" id="Fill-1"></path>
            <path d="M74.0978,106.4459 L74.0948,106.4459 C52.3448,98.6289 28.2068,109.8009 20.3068,131.3409 C16.4798,141.7759 16.9908,153.0619 21.7408,163.1189 C26.4868,173.1789 34.9118,180.8019 45.4538,184.5879 C50.1278,186.2689 54.9678,187.1039 59.7968,187.1039 C65.8598,187.1039 71.8998,185.7879 77.5508,183.1719 C87.7088,178.4689 95.4128,170.1319 99.2368,159.6969 C107.1318,138.1569 95.8548,114.2669 74.0978,106.4459 M71.7148,149.8089 C70.5558,152.9659 68.2258,155.4849 65.1518,156.9079 C62.0878,158.3309 58.6428,158.4829 55.4398,157.3399 C52.2518,156.1929 49.7028,153.8859 48.2658,150.8429 C46.8288,147.7999 46.6758,144.3849 47.8298,141.2309 C49.7028,136.1219 54.5928,132.9409 59.7868,132.9409 C61.2238,132.9409 62.6818,133.1849 64.1038,133.6939 C70.6878,136.0619 74.1018,143.2909 71.7148,149.8089" id="Fill-3"></path>
            <path d="M72.4471,378.9759 C61.9061,375.1859 50.5071,375.6959 40.3491,380.3909 C30.1901,385.0949 22.4881,393.4309 18.6631,403.8669 C10.7671,425.4079 22.0441,449.2969 43.8021,457.1169 L43.8051,457.1169 C48.4771,458.7989 53.3201,459.6339 58.1491,459.6339 C64.2121,459.6339 70.2521,458.3179 75.9031,455.6979 C86.0651,450.9989 93.7651,442.6589 97.5891,432.2269 C101.4171,421.7909 100.9091,410.5029 96.1591,400.4449 C91.4121,390.3849 82.9911,382.7629 72.4471,378.9759 M70.0661,422.3359 C68.9081,425.4929 66.5781,428.0149 63.5041,429.4379 C60.4331,430.8609 56.9811,431.0129 53.7951,429.8699 C47.2121,427.5019 43.7981,420.2729 46.1861,413.7539 C47.3441,410.5979 49.6741,408.0779 52.7481,406.6559 C55.8081,405.2369 59.2641,405.0779 62.4601,406.2239 C65.6481,407.3709 68.1971,409.6779 69.6341,412.7219 C71.0711,415.7609 71.2241,419.1759 70.0661,422.3359" id="Fill-5"></path>
            <path d="M521.0495,378.9759 C499.2745,371.1559 475.1585,382.3269 467.2625,403.8669 C459.3665,425.4079 470.6435,449.2969 492.4005,457.1169 L492.4045,457.1169 C497.1155,458.8129 501.9375,459.6129 506.6805,459.6129 C523.8485,459.6129 540.0045,449.1029 546.1915,432.2229 C550.0165,421.7869 549.5085,410.5029 544.7625,400.4449 C540.0115,390.3879 531.5905,382.7629 521.0495,378.9759 M518.6695,422.3319 C516.2815,428.8539 508.9925,432.2299 502.3915,429.8699 C495.8075,427.4989 492.3975,420.2729 494.7845,413.7539 C497.1725,407.2399 504.4645,403.8749 511.0625,406.2239 C514.2515,407.3709 516.7955,409.6779 518.2325,412.7219 C519.6695,415.7649 519.8235,419.1799 518.6695,422.3319" id="Fill-7"></path>
            <g id="Group-11" transform="translate(102.000000, 0.561000)">
                <path d="M290.2936,370.8916 L341.6756,401.5796 C345.2866,387.2706 353.6886,374.3366 365.7266,365.1596 L309.5166,331.5856 L309.5166,230.8566 L365.7176,197.2886 C357.3436,190.9286 350.5566,182.6536 345.9566,172.9146 C344.1116,169.0046 342.6816,164.9756 341.6446,160.8806 L280.1756,197.5936 L204.1686,154.1506 L204.1686,45.1366 C245.8326,49.1186 286.6306,63.9766 322.3126,89.7276 L348.1836,54.5876 C253.4446,-13.7794 128.2806,-17.7214 29.3236,44.5486 C25.2636,47.1036 21.2926,49.7436 17.4106,52.4646 L42.8026,87.9436 C46.0846,85.6406 49.4486,83.4116 52.8826,81.2486 C86.1656,60.3066 122.9646,48.3796 160.2466,45.0676 L160.2466,154.1496 L86.3716,196.3736 L23.2066,158.6476 C22.5706,161.6056 21.8016,164.5586 20.7316,167.4796 C16.5986,178.7506 9.5666,188.4226 0.4516,195.8426 L54.8956,228.3606 L54.8956,334.0816 L0.4516,366.5986 C9.5666,374.0196 16.5966,383.6906 20.7276,394.9616 C21.7986,397.8846 22.5686,400.8386 23.2036,403.7966 L76.2526,372.1116 L160.2466,420.1186 L160.2466,517.4366 C117.9196,513.7336 76.4156,498.8586 40.1866,472.7146 L14.3146,507.8546 C64.2246,543.8676 122.5546,561.9996 181.0706,561.9996 C233.6326,561.9996 286.3476,547.3566 333.1746,517.8926 C337.2356,515.3386 341.2066,512.6986 345.0886,509.9766 L319.6956,474.4976 C316.4146,476.8016 313.0506,479.0306 309.6166,481.1936 C276.9036,501.7766 240.7946,513.6736 204.1686,517.2236 L204.1686,420.1186 L290.2936,370.8916 Z M182.2076,191.8046 L237.2206,223.2506 L184.2956,254.8606 L129.3266,222.0296 L182.2076,191.8046 Z M98.8176,256.1316 L185.8966,306.3776 L265.5946,260.5276 L265.5946,334.8006 L182.2076,382.4636 L98.8176,334.8006 L98.8176,256.1316 Z" id="Fill-9"></path>
            </g>
            <path d="M43.922,281.782 C43.922,269.774 34.09,260.04 21.961,260.04 C9.832,260.04 0,269.774 0,281.782 C0,293.789 9.832,303.524 21.961,303.524 C34.09,303.524 43.922,293.789 43.922,281.782" id="Fill-12"></path>
            <path d="M544.539,260.0402 C532.41,260.0402 522.578,269.7742 522.578,281.7822 C522.578,293.7892 532.41,303.5242 544.539,303.5242 C556.668,303.5242 566.5,293.7892 566.5,281.7822 C566.5,269.7742 556.668,260.0402 544.539,260.0402" id="Fill-14"></path>
        </g>
    </g>
</svg>