<?xml version="1.0" encoding="UTF-8"?>
<svg width="525px" height="564px" viewBox="0 0 525 564" version="1.1" xmlns="http://www.w3.org/2000/svg" xmlns:xlink="http://www.w3.org/1999/xlink">
    <!-- Generator: Sketch 39.1 (31720) - http://www.bohemiancoding.com/sketch -->
    <title>Page 1</title>
    <desc>Created with Sketch.</desc>
    <defs>
        <polygon id="path-1" points="0.604439605 78 78.4188829 78 78.4188829 0.00981752208 0.604439605 0.00981752208"></polygon>
        <polygon id="path-3" points="0 0.9883 0 446.3663 422.947813 446.3663 422.947813 0.9883 5.42101086e-20 0.9883"></polygon>
    </defs>
    <g id="Page-1" stroke="none" stroke-width="1" fill="none" fill-rule="evenodd">
        <g>
            <path d="M249.2306,75.6411 C253.5616,77.2171 258.0456,78.0011 262.5226,78.0011 C268.1396,78.0011 273.7366,76.7661 278.9676,74.3141 C288.3786,69.9031 295.5196,62.0871 299.0626,52.3001 C302.6126,42.5131 302.1356,31.9261 297.7376,22.4911 C293.3406,13.0631 285.5386,5.9101 275.7696,2.3601 C266.0136,-1.1879 255.4426,-0.7269 246.0316,3.6871 C236.6206,8.0941 229.4806,15.9131 225.9376,25.7071 C218.6256,45.9121 229.0766,68.3131 249.2306,75.6411 M251.4366,34.9801 C252.5096,32.0151 254.6686,29.6501 257.5156,28.3151 C259.0986,27.5721 260.7936,27.2011 262.4896,27.2011 C263.8416,27.2011 265.1996,27.4361 266.5106,27.9141 L266.5166,27.9141 C269.4706,28.9891 271.8286,31.1531 273.1596,34.0071 C274.4906,36.8611 274.6366,40.0601 273.5646,43.0211 C272.4916,45.9841 270.3316,48.3511 267.4836,49.6851 C264.6366,51.0091 261.4306,51.1551 258.4826,50.0861 C252.3896,47.8661 249.2236,41.0891 251.4366,34.9801" id="Fill-1" fill="#FFFFFF"></path>
            <g id="Group-5" transform="translate(223.000000, 485.337000)">
                <mask id="mask-2" fill="white">
                    <use xlink:href="#path-1"></use>
                </mask>
                <g id="Clip-4"></g>
                <path d="M52.7626,2.3554 C32.6486,-4.9886 10.2626,5.4924 2.9376,25.7034 C-4.3744,45.9074 6.0766,68.3094 26.2306,75.6374 C30.5616,77.2134 35.0526,78.0004 39.5226,78.0004 C45.1396,77.9964 50.7366,76.7654 55.9676,74.3104 C65.3796,69.9024 72.5196,62.0834 76.0626,52.2964 C79.6126,42.5094 79.1356,31.9224 74.7376,22.4874 C70.3336,13.0554 62.5316,5.9064 52.7626,2.3554 M50.5646,43.0174 C49.4916,45.9804 47.3316,48.3464 44.4836,49.6814 C41.6416,51.0154 38.4566,51.1514 35.4826,50.0824 C29.3896,47.8624 26.2236,41.0854 28.4366,34.9754 C30.1716,30.1874 34.7016,27.2034 39.5096,27.2034 C40.8416,27.2034 42.1926,27.4324 43.5106,27.9104 L43.5166,27.9104 C46.4706,28.9854 48.8286,31.1494 50.1596,34.0034 C51.4906,36.8574 51.6376,40.0564 50.5646,43.0174" id="Fill-3" fill="#FFFFFF" mask="url(#mask-2)"></path>
            </g>
            <g id="Group-8" transform="translate(0.000000, 62.337000)">
                <mask id="mask-4" fill="white">
                    <use xlink:href="#path-3"></use>
                </mask>
                <g id="Clip-7"></g>
                <path d="M78.415,343.1993 C57.362,311.7763 44.943,276.3093 41.638,239.6343 L142.673,239.6343 L142.673,219.2433 C142.673,172.6983 171.145,128.5983 213.526,109.5123 C222.645,105.4063 232.223,102.5263 242.157,100.8923 L242.157,219.3303 L242.157,239.7203 L262.503,239.7203 L380.632,239.7203 C378.466,252.9323 374.141,265.6103 367.823,277.1133 L403.469,296.7793 C416.298,273.4223 423.033,246.6203 422.947,219.2663 L422.881,198.9393 L402.601,198.9393 L282.849,198.9393 L282.849,78.9063 L282.849,58.5853 L262.57,58.5163 L261.993,58.5163 C239.104,58.5163 217.189,63.1553 196.848,72.3153 C145.473,95.4493 110.305,143.7883 103.279,198.8533 L41.703,198.8533 C42.406,191.3903 43.473,183.9213 44.936,176.4683 C56.361,118.2303 89.728,67.9343 138.897,34.8463 L116.22,0.9883 C58.023,40.1463 18.53,99.6743 5.005,168.6023 C-8.512,237.5303 5.562,307.6123 44.638,365.9333 C66.938,399.2203 95.635,426.2813 129.936,446.3663 L150.468,411.1543 C121.505,394.1983 97.264,371.3363 78.415,343.1993" id="Fill-6" fill="#FFFFFF" mask="url(#mask-4)"></path>
            </g>
            <path d="M480.3621,135.0638 C458.0631,101.7758 429.3641,74.7158 395.0641,54.6298 L374.5331,89.8418 C403.4951,106.7978 427.7351,129.6608 446.5841,157.7968 C479.6001,207.0738 491.4891,266.2878 480.0641,324.5288 C468.6391,382.7658 435.2721,433.0618 386.1031,466.1508 L408.7801,500.0078 C466.9771,460.8508 506.4701,401.3218 519.9941,332.3938 C533.5121,263.4668 519.4381,193.3838 480.3621,135.0638" id="Fill-9" fill="#FFFFFF"></path>
            <path d="M424.8612,216.719 C424.7682,190.856 414.5022,165.706 396.6922,147.725 C378.6712,129.528 353.3852,119.038 327.3162,118.948 L310.3022,118.888 L310.3022,233.77 L424.9202,233.77 L424.8612,216.719 Z M344.2122,199.786 L344.2122,155.245 C354.9752,158.179 364.8562,163.824 372.6252,171.666 C380.2612,179.372 385.7652,189.15 388.6462,199.786 L344.2122,199.786 Z" id="Fill-11" fill="#FFFFFF"></path>
            <path d="M158.965,327.018 L121.439,342.782 C131.393,366.581 147.116,388.01 166.913,404.753 L193.153,373.584 C178.265,360.992 166.442,344.89 158.965,327.018" id="Fill-13" fill="#FFFFFF"></path>
            <path d="M269.2786,442.5735 C272.0806,442.5735 274.8886,442.4975 277.6766,442.3485 L275.5166,401.6265 C270.1596,401.9025 264.7156,401.8295 259.4696,401.3845 C244.3826,400.1105 229.8316,395.9315 216.2216,388.9655 L197.7166,425.2865 C216.0486,434.6685 235.6796,440.3005 256.0526,442.0195 C260.3976,442.3885 264.8476,442.5735 269.2786,442.5735" id="Fill-15" fill="#FFFFFF"></path>
            <path d="M302.8311,396.9411 L314.2881,436.0691 C339.1121,428.7681 362.1141,415.4731 380.8241,397.6181 L352.7561,368.0881 C338.7211,381.4821 321.4621,391.4581 302.8311,396.9411" id="Fill-17" fill="#FFFFFF"></path>
        </g>
    </g>
</svg>