<?xml version="1.0" encoding="UTF-8"?>
<svg width="570px" height="571px" viewBox="0 0 570 571" version="1.1" xmlns="http://www.w3.org/2000/svg" xmlns:xlink="http://www.w3.org/1999/xlink">
    <!-- Generator: Sketch 39.1 (31720) - http://www.bohemiancoding.com/sketch -->
    <title>Page 1</title>
    <desc>Created with Sketch.</desc>
    <defs>
        <polygon id="path-1" points="44.9779 0.859 0.7839 0.859 0.7839 45.0527 44.9779 45.0527 44.9779 0.859"></polygon>
        <polygon id="path-3" points="0.7839 45 44.9779 45 44.9779 0.8065 0.7839 0.8065"></polygon>
        <polygon id="path-5" points="0 0.2676 0 483.1166 390.1764 483.1166 390.1764 0.2676 2.71050543e-20 0.2676"></polygon>
    </defs>
    <g id="Page-1" stroke="none" stroke-width="1" fill="none" fill-rule="evenodd">
        <g transform="translate(0.000000, -1.000000)">
            <g id="Group-3" transform="translate(262.000000, 0.141000)">
                <mask id="mask-2" fill="white">
                    <use xlink:href="#path-1"></use>
                </mask>
                <g id="Clip-2"></g>
                <path d="M22.8809,45.0527 C35.0849,45.0527 44.9779,35.1597 44.9779,22.9557 C44.9779,10.7517 35.0849,0.8587 22.8809,0.8587 C10.6779,0.8587 0.7839,10.7517 0.7839,22.9557 C0.7839,35.1597 10.6779,45.0527 22.8809,45.0527" id="Fill-1" fill="#FFFFFF" mask="url(#mask-2)"></path>
            </g>
            <path d="M196.4938,59.9249 C208.6978,59.9249 218.5908,50.0319 218.5908,37.8279 C218.5908,25.6239 208.6978,15.7309 196.4938,15.7309 C184.2908,15.7309 174.3968,25.6239 174.3968,37.8279 C174.3968,50.0319 184.2908,59.9249 196.4938,59.9249" id="Fill-4" fill="#FFFFFF"></path>
            <path d="M373.268,59.9249 C385.472,59.9249 395.365,50.0319 395.365,37.8279 C395.365,25.6239 385.472,15.7309 373.268,15.7309 C361.065,15.7309 351.171,25.6239 351.171,37.8279 C351.171,50.0319 361.065,59.9249 373.268,59.9249" id="Fill-6" fill="#FFFFFF"></path>
            <g id="Group-10" transform="translate(262.000000, 526.141000)">
                <mask id="mask-4" fill="white">
                    <use xlink:href="#path-3"></use>
                </mask>
                <g id="Clip-9"></g>
                <path d="M22.8809,0.8065 C10.6779,0.8065 0.7839,10.6995 0.7839,22.9035 C0.7839,35.1065 10.6779,45.0005 22.8809,45.0005 C35.0849,45.0005 44.9779,35.1065 44.9779,22.9035 C44.9779,10.6995 35.0849,0.8065 22.8809,0.8065" id="Fill-8" fill="#FFFFFF" mask="url(#mask-4)"></path>
            </g>
            <path d="M373.268,512.2163 C361.065,512.2163 351.171,522.1093 351.171,534.3133 C351.171,546.5163 361.065,556.4103 373.268,556.4103 C385.472,556.4103 395.365,546.5163 395.365,534.3133 C395.365,522.1093 385.472,512.2163 373.268,512.2163" id="Fill-11" fill="#FFFFFF"></path>
            <path d="M196.4938,512.2163 C184.2908,512.2163 174.3968,522.1093 174.3968,534.3133 C174.3968,546.5163 184.2908,556.4103 196.4938,556.4103 C208.6978,556.4103 218.5908,546.5163 218.5908,534.3133 C218.5908,522.1093 208.6978,512.2163 196.4938,512.2163" id="Fill-13" fill="#FFFFFF"></path>
            <g id="Group-17" transform="translate(0.000000, 46.141000)">
                <mask id="mask-6" fill="white">
                    <use xlink:href="#path-5"></use>
                </mask>
                <g id="Clip-16"></g>
                <path d="M82.3834,370.2516 C78.2164,363.7766 74.4374,357.1626 70.9664,350.4566 L130.9794,350.4566 L130.9794,306.2626 L53.4094,306.2626 C48.5714,289.3466 45.6784,272.1146 44.6354,254.8626 L187.4694,254.8626 L187.4694,228.2246 C187.9714,177.5406 229.3194,136.4516 280.1214,136.4516 C303.9704,136.4516 326.1514,145.4496 343.1614,161.3576 L329.7094,174.5696 L390.1764,174.5696 L390.1764,115.1826 L374.8064,130.2776 C349.5104,105.9136 316.0394,92.2586 280.1214,92.2586 C210.9204,92.2586 153.6964,143.9166 144.6264,210.6686 L45.9854,210.6686 C48.1454,193.1506 52.2494,175.9156 58.1494,159.2676 L130.9794,159.2676 L130.9794,115.0746 L79.0254,115.0746 C97.3904,84.6826 122.7464,57.9026 154.5644,37.4256 L130.6474,0.2676 C85.1734,29.5316 50.8124,69.6516 28.7624,115.0746 L26.8074,115.0746 L26.8074,119.3556 C-13.0956,205.1266 -9.6496,308.9036 45.2214,394.1686 C68.7384,430.7016 99.3304,460.6316 136.1504,483.1166 L159.1824,445.3966 C128.0984,426.4146 102.2604,401.1316 82.3834,370.2516" id="Fill-15" fill="#FFFFFF" mask="url(#mask-6)"></path>
            </g>
            <path d="M524.5417,131.832 C501.0247,95.299 470.4327,65.369 433.6117,42.884 L410.5797,80.604 C441.6637,99.586 467.5007,124.869 487.3797,155.749 C492.2937,163.385 496.6737,171.21 500.6217,179.162 L432.8707,179.162 L432.8707,223.355 L517.3667,223.355 C521.6047,239.108 524.1587,255.114 525.1277,271.138 L381.9697,271.138 L381.9697,298.273 C381.1997,348.726 339.9767,389.548 289.3427,389.548 C265.4937,389.548 243.3127,380.55 226.3017,364.643 L239.7547,351.43 L179.2867,351.43 L179.2867,410.817 L194.6577,395.721 C219.9527,420.085 253.4237,433.742 289.3427,433.742 C358.5437,433.742 415.7677,382.084 424.8387,315.332 L523.7767,315.332 C521.4617,334.115 516.9747,352.595 510.3627,370.35 L432.8707,370.35 L432.8707,414.544 L488.4787,414.544 C470.3107,443.437 445.7437,468.917 415.1977,488.574 L439.1137,525.733 C503.1317,484.539 547.2707,420.874 563.4087,346.477 C579.5427,272.08 565.7387,195.849 524.5417,131.832" id="Fill-18" fill="#FFFFFF"></path>
            <polygon id="Fill-20" fill="#FFFFFF" points="303.2971 336.5076 303.2971 300.1396 339.6651 300.1396 339.6651 263.3126 303.2971 263.3126 303.2971 226.9446 266.4691 226.9446 266.4691 263.3126 230.1011 263.3126 230.1011 300.1396 266.4691 300.1396 266.4691 336.5076"></polygon>
        </g>
    </g>
</svg>