<?xml version="1.0" encoding="UTF-8"?>
<svg width="586px" height="557px" viewBox="0 0 586 557" version="1.1" xmlns="http://www.w3.org/2000/svg" xmlns:xlink="http://www.w3.org/1999/xlink">
    <!-- Generator: Sketch 39.1 (31720) - http://www.bohemiancoding.com/sketch -->
    <title>Page 1</title>
    <desc>Created with Sketch.</desc>
    <defs>
        <polygon id="path-1" points="573.5 267.5671 573.5 0.851 0.2601 0.851 0.2601 267.5671 573.5 267.5671"></polygon>
    </defs>
    <g id="Page-1" stroke="none" stroke-width="1" fill="none" fill-rule="evenodd">
        <g transform="translate(0.000000, -1.000000)">
            <g id="Group-3" transform="translate(12.000000, 0.149000)">
                <mask id="mask-2" fill="white">
                    <use xlink:href="#path-1"></use>
                </mask>
                <g id="Clip-2"></g>
                <path d="M569.5621,194.2821 C564.8501,184.3081 556.5031,176.7481 546.0511,172.9931 C527.1841,166.2041 506.5041,173.8411 496.3891,190.1791 L409.8401,190.1791 C400.6301,135.9301 357.2801,93.0711 302.5181,83.9431 L302.5181,44.9611 C333.7361,47.7681 364.8821,56.7471 394.1241,72.5041 L414.9271,34.6211 C278.9291,-38.6599 108.1141,11.2961 34.1311,146.0071 C13.6741,183.2511 2.2771,223.4611 0.2601,265.5181 L43.7461,267.5671 C45.4501,232.0641 55.0801,198.1011 72.3731,166.6151 C111.5581,95.2661 182.8961,52.0701 258.9831,45.0101 L258.9831,84.0201 C197.1531,94.3381 149.8531,147.6061 149.8531,211.7421 L193.3881,211.7421 C193.3881,164.0251 232.5801,125.2021 280.7501,125.2021 C328.9191,125.2021 368.1111,164.0251 368.1111,211.7421 L368.1111,233.3061 L496.6181,233.3061 C501.5181,241.1901 508.7451,247.2841 517.6651,250.4921 C522.3351,252.1741 527.1181,252.9711 531.8231,252.9711 C548.8351,252.9671 564.8431,242.5471 570.9791,225.8061 C574.7771,215.4561 574.2671,204.2601 569.5621,194.2821 M543.6981,215.9921 C541.3251,222.4641 534.0621,225.7921 527.5711,223.4681 C524.4031,222.3311 521.8811,220.0391 520.4571,217.0211 C519.0331,214.0071 518.8771,210.6201 520.0251,207.4891 C521.8811,202.4241 526.7271,199.2691 531.8721,199.2691 C533.2961,199.2691 534.7421,199.5121 536.1521,200.0171 L536.1601,200.0171 C539.3191,201.1541 541.8421,203.4421 543.2661,206.4601 C544.6901,209.4791 544.8461,212.8621 543.6981,215.9921" id="Fill-1" fill="#FFFFFF" mask="url(#mask-2)"></path>
            </g>
            <path d="M491.5838,135.0515 C503.6058,135.0515 513.3518,125.3975 513.3518,113.4885 C513.3518,101.5785 503.6058,91.9255 491.5838,91.9255 C479.5618,91.9255 469.8158,101.5785 469.8158,113.4885 C469.8158,125.3975 479.5618,135.0515 491.5838,135.0515" id="Fill-4" fill="#FFFFFF"></path>
            <path d="M103.9972,432.7968 C91.9752,432.7968 82.2292,442.4508 82.2292,454.3598 C82.2292,466.2698 91.9752,475.9228 103.9972,475.9228 C116.0192,475.9228 125.7652,466.2698 125.7652,454.3598 C125.7652,442.4508 116.0192,432.7968 103.9972,432.7968" id="Fill-6" fill="#FFFFFF"></path>
            <path d="M501.1304,391.3817 C461.9404,462.7277 390.6024,505.9247 314.5184,512.9867 L314.5184,473.9767 C376.3474,463.6587 423.6464,410.3917 423.6464,346.2547 L380.1114,346.2547 C380.1114,393.9717 340.9194,432.7957 292.7504,432.7957 C244.5804,432.7957 205.3884,393.9717 205.3884,346.2547 L205.3884,324.6917 L79.3924,324.6917 C79.3674,324.6387 79.3594,324.5827 79.3354,324.5297 C74.6264,314.5557 66.2784,306.9927 55.8314,303.2367 C45.3834,299.4817 34.0804,299.9877 24.0154,304.6407 C13.9434,309.3047 6.3114,317.5737 2.5204,327.9207 C-1.2736,338.2697 -0.7706,349.4657 3.9374,359.4397 C8.6434,369.4177 16.9904,376.9777 27.4384,380.7327 C32.0724,382.4007 36.8764,383.2327 41.6674,383.2327 C47.6714,383.2327 53.6554,381.9267 59.2574,379.3297 C65.0784,376.6357 69.9524,372.6277 73.8734,367.8177 L163.6634,367.8177 C172.8674,422.0677 216.2204,464.9267 270.9824,474.0547 L270.9824,513.0377 C239.7634,510.2307 208.6174,501.2507 179.3764,485.4927 L158.5724,523.3767 C201.0874,546.2867 246.9824,557.1487 292.2824,557.1487 C391.8814,557.1487 488.5174,504.5847 539.3654,411.9907 C559.8224,374.7527 571.2164,334.5437 573.2434,292.4797 L529.7494,290.4307 C528.0494,325.9407 518.4124,359.9037 501.1304,391.3817 M53.4714,346.2407 C52.3234,349.3717 50.0134,351.8737 46.9664,353.2847 C43.9164,354.6917 40.5004,354.8357 37.3404,353.7097 C34.1804,352.5727 31.6544,350.2837 30.2304,347.2657 C28.8054,344.2507 28.6534,340.8637 29.8014,337.7297 C30.9494,334.5997 33.2594,332.0997 36.3064,330.6887 C37.9994,329.9037 39.8134,329.5067 41.6314,329.5067 C43.0764,329.5067 44.5294,329.7587 45.9314,330.2617 C49.0924,331.3987 51.6144,333.6867 53.0394,336.7057 C54.4634,339.7237 54.6154,343.1107 53.4714,346.2407" id="Fill-8" fill="#FFFFFF"></path>
            <path d="M267.5316,300.8084 C268.0346,300.3204 269.4096,300.0294 271.5286,300.0294 C275.1486,300.0474 279.7116,299.3274 279.7116,312.7654 C279.7116,322.6904 287.8316,330.7354 297.8516,330.7354 C307.8706,330.7354 315.9916,322.6904 315.9916,312.7654 C315.9916,283.2044 298.7796,264.1044 272.6046,264.1044 L272.5906,264.1044 C257.1856,263.6734 247.6276,269.8494 242.2136,275.0654 C234.0086,282.9864 229.4876,294.7124 229.4876,308.0834 L229.4876,332.6444 C229.4876,363.2834 247.6836,396.0254 298.7446,396.0254 C332.9266,396.0254 360.7386,367.5934 360.7386,332.6444 L360.7386,244.7844 C360.7386,205.5294 329.5396,173.5914 291.1976,173.5914 C245.0546,173.5914 221.6576,194.9014 221.6576,236.9334 C221.6576,246.8584 229.7776,254.9024 239.7976,254.9024 C249.8166,254.9024 257.9376,246.8584 257.9376,236.9334 C257.9376,219.8824 260.1766,209.5294 291.1976,209.5294 C309.5356,209.5294 324.4596,225.3444 324.4596,244.7844 L324.4596,332.6444 C324.4596,347.7744 312.9226,360.0864 298.7446,360.0864 C269.1826,360.0864 265.7666,344.4264 265.7666,332.6444 L265.7666,308.0834 C265.7666,303.6754 266.9216,301.3974 267.5316,300.8084" id="Fill-10" fill="#FFFFFF"></path>
        </g>
    </g>
</svg>