<?xml version="1.0" encoding="UTF-8"?>
<svg width="545px" height="584px" viewBox="0 0 545 584" version="1.1" xmlns="http://www.w3.org/2000/svg" xmlns:xlink="http://www.w3.org/1999/xlink">
    <!-- Generator: Sketch 39.1 (31720) - http://www.bohemiancoding.com/sketch -->
    <title>Page 1</title>
    <desc>Created with Sketch.</desc>
    <defs>
        <polygon id="path-1" points="350.5 485.9999 350.5 0.8849 0.5251 0.8849 0.5251 485.9999 350.5 485.9999"></polygon>
        <polygon id="path-3" points="2.71050543e-20 0.132461776 2.71050543e-20 485.2451 350.7503 485.2451 350.7503 0.132461776 0 0.132461776"></polygon>
    </defs>
    <g id="Page-1" stroke="none" stroke-width="1" fill="none" fill-rule="evenodd">
        <g transform="translate(0.000000, -1.000000)">
            <g id="Group-3" transform="translate(194.000000, 98.868000)">
                <mask id="mask-2" fill="white">
                    <use xlink:href="#path-1"></use>
                </mask>
                <g id="Clip-2"></g>
                <path d="M270.4871,0.8849 L240.6861,30.8329 C270.7271,60.7919 290.7051,97.0759 300.7221,135.4539 L240.3141,135.4539 L194.4781,135.4539 C201.3601,148.9999 205.6131,163.2959 207.4941,177.7329 C212.6051,216.9509 199.7001,257.2179 170.5291,286.4249 C130.5981,326.4059 69.9601,336.0249 19.6861,310.3869 L0.5251,348.0549 C19.8821,357.9269 40.3881,363.8029 61.0411,365.9499 L61.0411,409.2719 C51.5411,413.8839 44.3061,421.8329 40.6981,431.7889 C37.0201,441.9399 37.5081,452.9149 42.0721,462.6939 C46.6351,472.4719 54.7311,479.8899 64.8761,483.5719 C69.4051,485.2169 74.0371,485.9999 78.5941,485.9999 C95.1021,485.9999 110.6271,475.7739 116.5791,459.3689 L116.5791,459.3619 C123.6901,439.7259 114.6111,418.0959 96.2291,409.2069 L96.2291,366.0019 C134.6521,362.0559 171.5841,345.1549 200.3851,316.3179 C237.6921,278.9669 254.9171,227.9639 249.9881,177.7329 L307.6541,177.7329 C312.1691,241.8899 290.1161,307.5979 241.3321,356.6369 L271.2571,386.4759 C377.2141,279.9569 376.8701,106.9809 270.4871,0.8849 M90.1191,449.7479 C87.8231,456.0879 80.8201,459.3689 74.4771,457.0779 C71.4041,455.9629 68.9581,453.7199 67.5771,450.7609 C66.1951,447.8019 66.0441,444.4779 67.1571,441.4099 C68.2711,438.3399 70.5111,435.8909 73.4661,434.5079 C75.1091,433.7359 76.8681,433.3509 78.6281,433.3509 C80.0301,433.3509 81.4461,433.5919 82.8071,434.0869 C89.1291,436.3859 92.4081,443.4109 90.1191,449.7479" id="Fill-1" fill="#FFFFFF" mask="url(#mask-2)"></path>
            </g>
            <path d="M128.4596,101.0019 C139.4206,104.9849 151.5316,99.3169 155.5086,88.3419 C159.4866,77.3679 153.8266,65.2409 142.8656,61.2589 C131.9046,57.2759 119.7946,62.9449 115.8166,73.9189 C111.8386,84.8929 117.4996,97.0189 128.4596,101.0019" id="Fill-4" fill="#FFFFFF"></path>
            <path d="M403.8087,101.0019 C414.7697,104.9849 426.8807,99.3169 430.8577,88.3419 C434.8357,77.3679 429.1757,65.2409 418.2147,61.2589 C407.2537,57.2759 395.1437,62.9449 391.1657,73.9189 C387.1877,84.8929 392.8487,97.0189 403.8087,101.0019" id="Fill-6" fill="#FFFFFF"></path>
            <path d="M142.8652,483.1691 C131.9042,479.1861 119.7942,484.8551 115.8172,495.8291 C111.8382,506.8041 117.4992,518.9301 128.4592,522.9121 C139.4202,526.8951 151.5312,521.2271 155.5092,510.2521 C159.4872,499.2781 153.8262,487.1521 142.8652,483.1691" id="Fill-8" fill="#FFFFFF"></path>
            <path d="M418.2143,483.1691 C407.2533,479.1861 395.1433,484.8551 391.1663,495.8291 C387.1873,506.8041 392.8483,518.9301 403.8083,522.9121 C414.7693,526.8951 426.8803,521.2271 430.8583,510.2521 C434.8363,499.2781 429.1753,487.1521 418.2143,483.1691" id="Fill-10" fill="#FFFFFF"></path>
            <path d="M252.8895,307.9195 C261.1575,307.9195 261.5005,309.5595 261.5005,315.8145 L296.6885,315.8145 C296.6885,289.2095 279.9065,272.6865 252.8895,272.6865 C230.0305,272.6865 212.7875,291.2265 212.7875,315.8145 L212.7875,331.1655 C212.7875,361.2035 230.4295,393.3035 279.9545,393.3035 C313.1145,393.3035 340.0905,365.4275 340.0905,331.1655 L340.0905,266.3295 C340.0905,227.8495 309.8295,196.5385 272.6345,196.5385 C227.8795,196.5385 205.1855,217.4295 205.1855,258.6355 L240.3745,258.6355 C240.3745,241.9205 242.5455,231.7715 272.6345,231.7715 C290.4285,231.7715 304.9015,247.2745 304.9015,266.3295 L304.9015,331.1655 C304.9015,346.0015 293.7135,358.0705 279.9545,358.0705 C251.2885,358.0705 247.9755,342.7195 247.9755,331.1655 L247.9755,315.8145 C247.9755,315.4905 248.0305,307.9195 252.8895,307.9195" id="Fill-12" fill="#FFFFFF"></path>
            <g id="Group-16" transform="translate(0.000000, 0.868000)">
                <mask id="mask-4" fill="white">
                    <use xlink:href="#path-3"></use>
                </mask>
                <g id="Clip-15"></g>
                <path d="M331.5883,176.4561 L350.7503,138.7871 C331.3963,128.9171 310.8843,123.1091 290.2293,120.9621 L290.2293,76.8631 C299.7303,72.2501 306.9693,64.2991 310.5793,54.3421 L310.5793,54.3341 C318.1663,33.3861 307.3213,10.1621 286.4003,2.5581 C265.4593,-5.0449 242.2923,5.8271 234.6983,26.7601 C231.0203,36.9091 231.5083,47.8851 236.0723,57.6641 C240.0343,66.1421 246.7503,72.6741 255.0403,76.7051 L255.0403,120.9281 C216.6233,124.8741 179.6873,141.6841 150.8903,170.5171 C113.5723,207.8821 96.3483,258.9101 101.2953,309.1621 L42.9163,309.1621 C42.5143,303.6491 42.2373,298.1091 42.2263,292.5261 C42.1023,230.9931 65.9243,173.0931 109.2943,129.4921 L79.3763,99.6551 C28.0443,151.2581 -0.1437,219.7831 0.0003,292.6071 C0.1453,365.4341 28.6083,433.8491 80.1433,485.2451 L109.9433,455.2841 C80.6713,426.0961 60.2583,390.3921 49.9523,351.4411 L110.9823,351.4411 L156.8213,351.4411 C149.9313,337.8961 145.6763,323.5991 143.7883,309.1621 C138.6553,269.9241 151.5593,229.6331 180.7453,200.4101 C220.6693,160.4421 281.2933,150.8231 331.5883,176.4561 M261.1573,36.3801 C262.9583,31.4131 267.6583,28.3221 272.6553,28.3221 C274.0303,28.3221 275.4313,28.5561 276.7993,29.0521 C283.1293,31.3511 286.4083,38.3751 284.1193,44.7211 C283.0063,47.7901 280.7653,50.2391 277.8093,51.6231 C274.8543,53.0061 271.5353,53.1571 268.4773,52.0421 C262.1463,49.7361 258.8613,42.7111 261.1573,36.3801" id="Fill-14" fill="#FFFFFF" mask="url(#mask-4)"></path>
            </g>
        </g>
    </g>
</svg>