<?xml version="1.0" encoding="UTF-8"?>
<svg width="602px" height="601px" viewBox="0 0 602 601" version="1.1" xmlns="http://www.w3.org/2000/svg" xmlns:xlink="http://www.w3.org/1999/xlink">
    <!-- Generator: Sketch 39.1 (31720) - http://www.bohemiancoding.com/sketch -->
    <title>Page 1</title>
    <desc>Created with Sketch.</desc>
    <defs>
        <polygon id="path-1" points="0.4654 67 230.5004 67 230.5004 0.7722 0.4654 0.7722 0.4654 67"></polygon>
        <polygon id="path-3" points="230.6872 0.97 0.6822 0.97 0.6822 67.2393 230.6872 67.2393 230.6872 0.97"></polygon>
        <polygon id="path-5" points="2.71050543e-20 0.3363 2.71050543e-20 230.3893 66.2447 230.3893 66.2447 0.3363 0 0.3363"></polygon>
    </defs>
    <g id="Page-1" stroke="none" stroke-width="1" fill="none" fill-rule="evenodd">
        <g transform="translate(0.000000, -1.000000)">
            <path d="M104.5986,149.8766 C116.0036,149.8766 127.4136,145.5336 136.0986,136.8476 C153.4706,119.4796 153.4706,91.2156 136.0986,73.8466 L136.0986,73.8426 C118.7266,56.4796 90.4656,56.4756 73.0936,73.8466 C64.6776,82.2596 60.0466,93.4496 60.0466,105.3476 C60.0466,117.2456 64.6776,128.4356 73.0936,136.8476 C81.7806,145.5336 93.1886,149.8766 104.5986,149.8766 M95.0626,95.8196 C97.6916,93.1916 101.1426,91.8786 104.5946,91.8786 C108.0496,91.8786 111.5016,93.1916 114.1296,95.8196 C119.3826,101.0726 119.3826,109.6216 114.1296,114.8796 C108.8696,120.1356 100.3156,120.1286 95.0626,114.8796 C89.8086,109.6216 89.8086,101.0726 95.0626,95.8196" id="Fill-1" fill="#FFFFFF"></path>
            <path d="M496.7094,452.9106 C484.8074,452.9106 473.6214,457.5446 465.2094,465.9616 C456.7924,474.3746 452.1614,485.5636 452.1614,497.4626 C452.1614,509.3616 456.7924,520.5496 465.2094,528.9626 C473.6214,537.3796 484.8104,542.0106 496.7094,542.0106 C508.6074,542.0106 519.7974,537.3796 528.2104,528.9666 C536.6264,520.5496 541.2614,509.3646 541.2614,497.4626 C541.2614,485.5596 536.6264,474.3746 528.2104,465.9586 C519.7974,457.5446 508.6074,452.9106 496.7094,452.9106 M506.2404,506.9946 C501.1514,512.0836 492.2674,512.0836 487.1774,506.9946 C481.9254,501.7366 481.9254,493.1876 487.1814,487.9306 C489.7274,485.3856 493.1104,483.9826 496.7094,483.9826 C500.3094,483.9826 503.6924,485.3856 506.2364,487.9306 L506.2404,487.9346 C508.7864,490.4796 510.1894,493.8626 510.1894,497.4626 C510.1894,501.0616 508.7864,504.4446 506.2404,506.9946" id="Fill-3" fill="#FFFFFF"></path>
            <path d="M227.8571,407.1559 L236.2741,398.7389 L204.8631,367.3279 C191.3631,348.8449 183.9651,326.7089 183.9651,303.3849 C183.9651,274.3189 195.2841,246.9949 215.8341,226.4409 C235.7001,206.5769 261.7041,195.6309 289.1451,194.7829 L288.8521,227.2319 L344.9891,171.0929 L289.8571,115.9619 L289.5671,147.9939 C249.6361,148.6969 211.7501,164.6159 182.8811,193.4879 C153.5231,222.8419 137.3571,261.8709 137.3571,303.3849 C137.3571,338.4409 149.0041,371.6519 170.2671,398.8339 L114.8441,454.2599 C100.3091,450.8379 84.4071,454.6519 73.0941,465.9619 C64.6771,474.3739 60.0461,485.5639 60.0461,497.4629 C60.0461,509.3619 64.6771,520.5499 73.0941,528.9669 C81.7801,537.6489 93.1891,541.9869 104.5991,541.9869 C116.0031,541.9869 127.4131,537.6489 136.0981,528.9669 L136.0981,528.9629 C147.4111,517.6529 151.2221,501.7509 147.8011,487.2159 L227.8571,407.1559 Z M114.1301,506.9899 C108.8691,512.2399 100.3161,512.2429 95.0631,506.9939 C89.8091,501.7369 89.8091,493.1879 95.0631,487.9309 C97.6911,485.3019 101.1421,483.9889 104.5991,483.9889 C108.0501,483.9889 111.5011,485.3019 114.1301,487.9309 C119.3831,493.1879 119.3831,501.7369 114.1301,506.9899 L114.1301,506.9899 Z" id="Fill-5" fill="#FFFFFF"></path>
            <path d="M453.4741,431.0867 C447.0391,424.6517 436.6061,424.6517 430.1701,431.0867 C423.7351,437.5217 423.7351,447.9557 430.1701,454.3907 C436.6061,460.8257 447.0391,460.8257 453.4741,454.3907 C459.9101,447.9557 459.9101,437.5217 453.4741,431.0867" id="Fill-7" fill="#FFFFFF"></path>
            <path d="M148.1246,172.3453 C154.5606,178.7813 164.9936,178.7813 171.4286,172.3453 C177.8646,165.9103 177.8646,155.4773 171.4286,149.0413 C164.9936,142.6063 154.5606,142.6063 148.1246,149.0413 C141.6896,155.4773 141.6896,165.9103 148.1246,172.3453" id="Fill-9" fill="#FFFFFF"></path>
            <g id="Group-13" transform="translate(186.000000, 535.030000)">
                <mask id="mask-2" fill="white">
                    <use xlink:href="#path-1"></use>
                </mask>
                <g id="Clip-12"></g>
                <path d="M114.5684,20.3922 C93.1194,20.3922 71.7994,17.7142 51.2034,12.4342 C40.2414,9.6202 29.1174,5.9152 18.1404,1.4162 L0.4654,44.5422 C13.4184,49.8522 26.5944,54.2372 39.6274,57.5792 C64.0004,63.8292 89.2164,67.0002 114.5684,67.0002 C154.5954,67.0002 193.6024,59.1862 230.5004,43.7762 L212.5364,0.7722 C181.3584,13.7882 148.3984,20.3922 114.5684,20.3922" id="Fill-11" fill="#FFFFFF" mask="url(#mask-2)"></path>
            </g>
            <path d="M577.9008,185.553 L534.8968,203.516 C547.9248,234.717 554.5328,267.681 554.5328,301.488 C554.5328,334.772 548.1498,367.216 535.5598,397.931 L578.6868,415.607 C593.5848,379.259 601.1398,340.863 601.1398,301.488 C601.1398,261.48 593.3238,222.477 577.9008,185.553" id="Fill-14" fill="#FFFFFF"></path>
            <g id="Group-18" transform="translate(184.000000, 0.030000)">
                <mask id="mask-4" fill="white">
                    <use xlink:href="#path-3"></use>
                </mask>
                <g id="Clip-17"></g>
                <path d="M116.5722,47.5773 C145.3152,47.5773 173.4512,52.2913 200.1872,61.5843 C204.5002,63.0873 208.7822,64.7133 213.0272,66.4553 L230.6872,23.3213 C225.6692,21.2693 220.6132,19.3463 215.5002,17.5673 C183.8252,6.5523 150.5382,0.9693 116.5722,0.9693 C76.6392,0.9693 37.6482,8.7943 0.6822,24.2273 L18.6382,67.2393 C49.8882,54.1923 82.8382,47.5773 116.5722,47.5773" id="Fill-16" fill="#FFFFFF" mask="url(#mask-4)"></path>
            </g>
            <g id="Group-21" transform="translate(0.000000, 187.030000)">
                <mask id="mask-6" fill="white">
                    <use xlink:href="#path-5"></use>
                </mask>
                <g id="Clip-20"></g>
                <path d="M46.6077,114.4583 C46.6077,81.1753 52.9917,48.7263 65.5797,18.0113 L22.4537,0.3363 C7.5557,36.6843 -0.0003,75.0803 -0.0003,114.4583 C-0.0003,154.4623 7.8177,193.4653 23.2397,230.3893 L66.2447,212.4263 C53.2147,181.2253 46.6077,148.2653 46.6077,114.4583" id="Fill-19" fill="#FFFFFF" mask="url(#mask-6)"></path>
            </g>
            <path d="M431.0345,203.9756 L486.4275,148.5836 C489.7695,149.3716 493.1885,149.8996 496.7095,149.8996 C508.6115,149.8996 519.7975,145.2646 528.2105,136.8516 C536.6265,128.4356 541.2605,117.2496 541.2605,105.3476 C541.2605,93.4456 536.6265,82.2596 528.2105,73.8466 C519.7975,65.4296 508.6075,60.7986 496.7095,60.7986 C484.8105,60.7986 473.6215,65.4296 465.2085,73.8466 C456.7925,82.2596 452.1615,93.4496 452.1615,105.3476 C452.1615,108.8666 452.6885,112.2846 453.4765,115.6266 L365.6365,203.4666 L392.9905,230.8206 C427.7205,273.5186 425.2175,336.6186 385.4745,376.3656 C365.6005,396.2306 339.5965,407.1836 312.1605,408.0296 L312.4535,375.5786 L256.3175,431.7156 L311.4485,486.8486 L311.7385,454.7466 C351.6575,454.0326 389.5585,438.1896 418.4305,409.3216 C474.4345,353.3146 478.5565,264.8996 431.0345,203.9756 M487.1775,95.8156 C489.7235,93.2706 493.1095,91.8706 496.7095,91.8706 C500.3095,91.8706 503.6955,93.2706 506.2405,95.8196 C508.7865,98.3646 510.1895,101.7476 510.1895,105.3476 C510.1895,106.2466 510.1015,107.1336 509.9305,107.9966 C509.4165,110.5856 508.1485,112.9676 506.2365,114.8796 C501.1475,119.9686 492.2755,119.9686 487.1775,114.8796 C481.9255,109.6216 481.9255,101.0726 487.1775,95.8156" id="Fill-22" fill="#FFFFFF"></path>
            <polygon id="Fill-24" fill="#FFFFFF" points="319.7755 359.2625 319.7755 320.9085 358.1295 320.9085 358.1295 282.0685 319.7755 282.0685 319.7755 243.7145 280.9355 243.7145 280.9355 282.0685 242.5815 282.0685 242.5815 320.9085 280.9355 320.9085 280.9355 359.2625"></polygon>
        </g>
    </g>
</svg>