<?xml version="1.0" encoding="UTF-8"?>
<svg width="556px" height="526px" viewBox="0 0 556 526" version="1.1" xmlns="http://www.w3.org/2000/svg" xmlns:xlink="http://www.w3.org/1999/xlink">
    <!-- Generator: Sketch 39.1 (31720) - http://www.bohemiancoding.com/sketch -->
    <title>Page 1</title>
    <desc>Created with Sketch.</desc>
    <defs></defs>
    <g id="Page-1" stroke="none" stroke-width="1" fill="none" fill-rule="evenodd">
        <g fill="#FFFFFF">
            <path d="M72.0836,283.2564 L111.4226,283.2564 L152.6216,283.2564 C151.5366,276.5414 150.9286,269.7314 150.9286,262.8754 C150.9286,255.9224 151.6406,249.1464 152.7226,242.4934 C162.5206,182.3114 214.7216,136.1744 277.6356,136.1744 C347.4976,136.1744 404.3356,193.0134 404.3356,262.8754 C404.3356,273.6894 402.9756,284.4204 400.2886,294.7774 L439.7506,305.0074 C443.3006,291.3104 445.0986,277.1364 445.0986,262.8754 C445.0986,179.1004 383.2646,109.5044 302.8406,97.3114 L302.8406,42.3304 C390.0146,52.0874 463.4916,111.7694 489.8956,197.1494 L528.8396,185.1084 C494.6456,74.5404 393.8396,0.1524 278.0066,0.0004 L277.6546,0.0004 C161.5176,0.0004 60.5786,74.4794 26.4176,185.4234 L65.3756,197.4184 C92.6956,108.6864 170.5946,47.6584 262.0776,41.3864 L262.0776,96.1424 C183.7536,103.3954 120.9246,164.8204 111.4506,242.4934 L72.1396,242.4934 C67.6916,235.2404 60.8786,229.3724 52.2786,226.2484 C32.0836,218.9044 9.6916,229.3814 2.3606,249.5824 C-1.1954,259.3654 -0.7184,269.9484 3.6876,279.3784 C8.0996,288.8064 15.9156,295.9514 25.6946,299.5024 C30.0666,301.0904 34.5446,301.8434 38.9506,301.8434 C52.3186,301.8434 64.9476,294.8414 72.0836,283.2564 M28.3086,267.8674 C26.9746,265.0144 26.8286,261.8164 27.9036,258.8574 C29.6416,254.0684 34.1806,251.0854 38.9966,251.0854 C40.3296,251.0854 41.6836,251.3144 43.0046,251.7924 C49.1146,254.0124 52.2856,260.7884 50.0696,266.8954 C47.8476,273.0064 41.0736,276.1504 34.9626,273.9584 C32.0036,272.8834 29.6416,270.7204 28.3086,267.8674" id="Fill-1"></path>
            <g id="Group-5" transform="translate(477.000000, 223.753000)">
                <path d="M52.6429,2.4958 L52.6359,2.4958 C42.8629,-1.0602 32.2749,-0.5822 22.8469,3.8258 C13.4189,8.2358 6.2669,16.0498 2.7239,25.8298 C-0.8261,35.6118 -0.3611,46.1948 4.0439,55.6228 C8.4569,65.0498 16.2719,72.1988 26.0579,75.7488 C30.3969,77.3238 34.8889,78.1068 39.3669,78.1068 C44.9929,78.1068 50.5999,76.8728 55.8469,74.4208 C65.2749,70.0128 72.4269,62.1968 75.9699,52.4178 C83.3009,32.2258 72.8379,9.8308 52.6429,2.4958 M50.4269,43.1488 C49.3519,46.1048 47.1889,48.4698 44.3429,49.8008 C41.4899,51.1368 38.2859,51.2728 35.3199,50.2048 C32.3609,49.1298 29.9989,46.9678 28.6659,44.1178 C27.3319,41.2648 27.1929,38.0638 28.2679,35.0988 C29.3419,32.1388 31.5049,29.7778 34.3579,28.4448 C35.9439,27.7008 37.6359,27.3258 39.3409,27.3258 C40.6939,27.3258 42.0539,27.5648 43.3669,28.0388 C49.4779,30.2588 52.6429,37.0358 50.4269,43.1488" id="Fill-3"></path>
            </g>
            <path d="M450.964,401.986 L411.921,362.944 C416.499,356.807 420.67,350.347 424.392,343.594 L388.685,323.923 C377.479,344.264 360.905,361.149 340.77,372.75 L361.125,408.072 C369.116,403.468 376.621,398.162 383.697,392.361 L422.766,431.429 C383.525,465.244 332.623,484.99 277.675,484.99 L277.376,484.99 C179.497,484.861 94.322,422.016 65.435,328.604 L26.49,340.645 C60.692,451.214 161.491,525.6 277.323,525.753 L277.675,525.753 C393.813,525.753 494.751,451.273 528.919,340.33 L489.961,328.335 C481.49,355.843 468.052,380.598 450.964,401.986" id="Fill-6"></path>
            <path d="M346.1364,262.8766 C346.1364,274.1326 355.2614,283.2576 366.5174,283.2576 C377.7744,283.2576 386.8994,274.1326 386.8994,262.8766 C386.8994,251.6206 377.7744,242.4956 366.5174,242.4956 C355.2614,242.4956 346.1364,251.6206 346.1364,262.8766" id="Fill-8"></path>
            <path d="M194.9744,242.4952 C183.7174,242.4952 174.5934,251.6212 174.5934,262.8762 C174.5934,274.1332 183.7174,283.2582 194.9744,283.2582 C206.2314,283.2582 215.3554,274.1332 215.3554,262.8762 C215.3554,251.6212 206.2314,242.4952 194.9744,242.4952" id="Fill-10"></path>
            <path d="M277.6019,197.2293 C281.8019,197.2293 285.7489,198.8653 288.7149,201.8303 L312.7319,177.8073 C303.3439,168.4253 290.8719,163.2603 277.6019,163.2603 C250.1949,163.2603 227.9029,185.5553 227.9029,212.9603 C227.9029,240.3643 250.1949,262.6563 277.6019,262.6563 L277.6019,228.6873 C268.9309,228.6873 261.8719,221.6313 261.8719,212.9603 C261.8719,204.2853 268.9309,197.2293 277.6019,197.2293" id="Fill-12"></path>
            <path d="M277.6617,263.0947 L277.6617,297.0637 C286.3337,297.0637 293.3917,304.1187 293.3917,312.7937 C293.3917,321.4687 286.3337,328.5237 277.6617,328.5237 C273.4627,328.5237 269.5147,326.8887 266.5497,323.9227 L242.5317,347.9467 C251.9197,357.3277 264.3927,362.4927 277.6617,362.4927 C305.0697,362.4927 327.3607,340.1977 327.3607,312.7937 C327.3607,285.3897 305.0697,263.0947 277.6617,263.0947" id="Fill-14"></path>
            <path d="M166.6191,323.9992 L130.9251,343.6972 C145.7461,370.5512 167.6411,392.8302 194.2321,408.1292 L214.5601,372.7932 C194.4181,361.2102 177.8381,344.3342 166.6191,323.9992" id="Fill-16"></path>
            <path d="M322.8698,424.1546 L311.8828,384.8976 C289.7108,391.1016 265.5808,391.1016 243.4868,384.9316 L232.5138,424.1876 C247.1298,428.2726 262.3098,430.3416 277.6288,430.3416 C292.9808,430.3416 308.2008,428.2586 322.8698,424.1546" id="Fill-18"></path>
        </g>
    </g>
</svg>