<?xml version="1.0" encoding="UTF-8"?>
<svg width="551px" height="251px" viewBox="0 0 551 251" version="1.1" xmlns="http://www.w3.org/2000/svg" xmlns:xlink="http://www.w3.org/1999/xlink">
    <!-- Generator: Sketch 39.1 (31720) - http://www.bohemiancoding.com/sketch -->
    <title>Group</title>
    <desc>Created with Sketch.</desc>
    <defs></defs>
    <g id="Page-1" stroke="none" stroke-width="1" fill="none" fill-rule="evenodd">
        <g transform="translate(0.000000, -127.000000)" id="Group" fill="#FFFFFF">
            <g transform="translate(0.000000, 127.000000)">
                <path d="M510.9639,91.1151 C500.7609,91.5921 491.3509,95.9981 484.4749,103.5181 C477.5989,111.0431 474.0759,120.7841 474.5579,130.9441 C475.5219,151.3061 492.4709,167.2291 512.7419,167.2291 C513.3409,167.2291 513.9459,167.2131 514.5519,167.1841 C535.6169,166.1951 551.9409,148.3331 550.9579,127.3621 C549.9619,106.3911 531.9569,90.0261 510.9639,91.1151 M513.3019,140.6571 C507.0569,140.9901 501.4959,136.0371 501.2029,129.6931 L501.2029,129.6861 C501.0529,126.6161 502.1209,123.6731 504.1979,121.3971 C506.2819,119.1211 509.1279,117.7851 512.2139,117.6421 C512.3969,117.6331 512.5789,117.6301 512.7609,117.6301 C518.8949,117.6301 524.0259,122.4471 524.3129,128.6071 C524.6119,134.9541 519.6699,140.3581 513.3019,140.6571" id="Fill-5"></path>
                <path d="M40.0426,167.1841 C50.2466,166.7071 59.6556,162.2981 66.5316,154.7771 C73.4016,147.2531 76.9236,137.5151 76.4426,127.3551 C75.4456,106.3871 57.3896,90.0261 36.4486,91.1151 C15.3836,92.1041 -0.9414,109.9661 0.0426,130.9371 C1.0056,151.3061 17.9556,167.2291 38.2326,167.2291 C38.8316,167.2291 39.4366,167.2131 40.0426,167.1841 M26.6876,129.6921 C26.3876,123.3451 31.3306,117.9411 37.6986,117.6421 C37.8806,117.6331 38.0636,117.6301 38.2456,117.6301 C44.3796,117.6301 49.5106,122.4471 49.7966,128.6071 L49.7966,128.6131 C49.9466,131.6861 48.8786,134.6291 46.8016,136.9051 C44.7246,139.1811 41.8786,140.5141 38.7926,140.6571 C32.4376,141.0191 26.9806,136.0371 26.6876,129.6921" id="Fill-8"></path>
                <path d="M479.317,50.5528 C479.835,61.5408 489.202,70.0298 500.238,69.5128 C511.273,68.9958 519.798,59.6698 519.28,48.6818 C518.761,37.6938 509.394,29.2048 498.358,29.7218 C487.323,30.2388 478.798,39.5648 479.317,50.5528" id="Fill-10"></path>
                <path d="M71.4648,211.8942 C70.9458,200.9062 61.5788,192.4172 50.5428,192.9342 C39.5078,193.4512 30.9828,202.7772 31.5018,213.7642 C32.0208,224.7532 41.3878,233.2412 52.4228,232.7252 C63.4578,232.2082 71.9838,222.8822 71.4648,211.8942" id="Fill-12"></path>
                <path d="M327.0723,20.8039 C327.0723,31.8049 336.0293,40.7209 347.0753,40.7209 C358.1243,40.7209 367.0793,31.8049 367.0793,20.8039 C367.0793,9.8039 358.1243,0.8869 347.0753,0.8869 C336.0293,0.8869 327.0723,9.8039 327.0723,20.8039" id="Fill-14"></path>
                <path d="M183.7825,230.2022 C183.7825,241.2022 192.7395,250.1192 203.7855,250.1192 C214.8345,250.1192 223.7895,241.2022 223.7895,230.2022 C223.7895,219.2022 214.8345,210.2852 203.7855,210.2852 C192.7395,210.2852 183.7825,219.2022 183.7825,230.2022" id="Fill-16"></path>
            </g>
        </g>
    </g>
</svg>