<?xml version="1.0" encoding="UTF-8"?>
<svg width="580px" height="582px" viewBox="0 0 580 582" version="1.1" xmlns="http://www.w3.org/2000/svg" xmlns:xlink="http://www.w3.org/1999/xlink">
    <!-- Generator: Sketch 39.1 (31720) - http://www.bohemiancoding.com/sketch -->
    <title>Page 1</title>
    <desc>Created with Sketch.</desc>
    <defs>
        <polygon id="path-1" points="0.5417 89 217.3217 89 217.3217 0.7822 0.5417 0.7822 0.5417 89"></polygon>
        <polygon id="path-3" points="352.148 339.0098 352.148 0.5888 0.8367 0.5888 0.8367 339.0098 352.148 339.0098"></polygon>
        <polygon id="path-5" points="217.6363 0.213 0.8813 0.213 0.8813 88.5024 217.6363 88.5024 217.6363 0.213"></polygon>
    </defs>
    <g id="Page-1" stroke="none" stroke-width="1" fill="none" fill-rule="evenodd">
        <g transform="translate(0.000000, -1.000000)">
            <polygon id="Fill-1" fill="#FFFFFF" points="308.288 348.8408 308.288 311.7238 345.233 311.7238 345.233 274.1378 308.288 274.1378 308.288 237.0218 270.875 237.0218 270.875 274.1378 233.93 274.1378 233.93 311.7238 270.875 311.7238 270.875 348.8408"></polygon>
            <path d="M304.9598,145.7061 L211.7638,145.7061 C174.3288,145.7061 143.8758,176.3041 143.8758,213.9121 L143.8758,319.5451 L46.5078,319.5451 C43.7508,295.3301 44.5728,270.9661 49.0358,246.8441 L4.8998,238.5931 C-2.0202,275.9741 -1.6072,313.8391 6.1198,351.1461 C13.9638,389.0341 28.9908,424.4471 50.7848,456.4031 L87.8188,430.9151 C73.8248,410.3931 63.1518,388.1781 55.9148,364.6481 L188.3888,364.6481 L188.3888,364.6471 L188.7718,364.6471 L188.7718,213.9121 C188.7718,201.1751 199.0858,190.8101 211.7638,190.8101 L304.9598,190.8101 L304.9598,145.7061 Z" id="Fill-3" fill="#FFFFFF"></path>
            <polygon id="Fill-5" fill="#FFFFFF" points="304.9614 118.7927 304.9614 217.7267 354.2004 168.2597"></polygon>
            <path d="M42.7406,180.7524 C49.8176,185.4144 57.9136,187.8214 66.1816,187.8214 C69.1156,187.8214 72.0716,187.5204 75.0096,186.9044 C86.2336,184.5554 95.8746,177.9624 102.1556,168.3314 C108.4426,158.7074 110.6206,147.1894 108.2816,135.9134 C105.9476,124.6444 99.3826,114.9544 89.7986,108.6404 L89.7946,108.6404 C69.9996,95.6104 43.3426,101.1824 30.3796,121.0624 C24.0966,130.6934 21.9176,142.2044 24.2566,153.4804 C26.5906,164.7484 33.1566,174.4394 42.7406,180.7524 M55.4106,137.5504 C57.8986,133.7324 62.0536,131.6624 66.2876,131.6624 C68.7286,131.6624 71.1986,132.3454 73.3896,133.7914 C76.2876,135.7004 78.2756,138.6294 78.9806,142.0424 C79.6856,145.4494 79.0286,148.9284 77.1246,151.8434 C75.2246,154.7574 72.3086,156.7544 68.9146,157.4664 C65.5166,158.1714 62.0536,157.5104 59.1526,155.6014 C56.2516,153.6934 54.2636,150.7644 53.5586,147.3504 C52.8496,143.9444 53.5076,140.4644 55.4106,137.5504" id="Fill-7" fill="#FFFFFF"></path>
            <path d="M536.5327,402.835 L536.5287,402.835 C516.7527,389.805 490.0887,395.391 477.1107,415.256 C464.1397,435.143 469.6857,461.923 489.4787,474.954 C496.7157,479.718 504.8707,481.994 512.9377,481.994 C526.9347,481.994 540.6687,475.145 548.8967,462.533 C561.8677,442.646 556.3207,415.865 536.5327,402.835 M523.8627,446.045 C519.9347,452.064 511.8677,453.753 505.8867,449.803 C499.8977,445.861 498.2207,437.757 502.1407,431.744 C504.6337,427.927 508.7907,425.857 513.0257,425.857 C515.4657,425.857 517.9357,426.547 520.1247,427.986 C526.1097,431.928 527.7857,440.032 523.8627,446.045" id="Fill-9" fill="#FFFFFF"></path>
            <path d="M412.5296,103.4508 C419.6066,108.1128 427.7026,110.5198 435.9706,110.5198 C438.9046,110.5198 441.8606,110.2188 444.7986,109.6028 C456.0226,107.2538 465.6636,100.6608 471.9476,91.0298 C484.9186,71.1428 479.3726,44.3628 459.5836,31.3318 C439.7996,18.3088 413.1466,23.8808 400.1656,43.7528 C387.1946,63.6398 392.7416,90.4208 412.5296,103.4508 M425.1956,60.2408 C427.6886,56.4238 431.8426,54.3538 436.0766,54.3538 C438.5176,54.3538 440.9876,55.0438 443.1756,56.4818 C449.1646,60.4248 450.8416,68.5288 446.9136,74.5418 C445.0136,77.4558 442.0976,79.4528 438.7036,80.1648 C435.2956,80.8698 431.8356,80.2088 428.9376,78.2998 C422.9496,74.3578 421.2726,66.2538 425.1956,60.2408" id="Fill-11" fill="#FFFFFF"></path>
            <path d="M166.7437,480.1366 C146.9597,467.1126 120.3067,472.6706 107.3287,492.5576 C101.0417,502.1896 98.8667,513.7076 101.2007,524.9836 C103.5367,536.2516 110.1017,545.9416 119.6887,552.2556 C126.9267,557.0196 135.0817,559.2956 143.1487,559.2956 C157.1457,559.2956 170.8757,552.4466 179.1037,539.8346 C192.0787,519.9616 186.5307,493.1816 166.7437,480.1366 M154.0757,523.3466 L154.0737,523.3466 C150.1457,529.3656 142.0737,531.0546 136.0977,527.1046 C133.1967,525.1966 131.2087,522.2666 130.5037,518.8536 C129.7987,515.4476 130.4557,511.9606 132.3557,509.0456 C134.8477,505.2286 139.0057,503.1586 143.2397,503.1586 C145.6767,503.1586 148.1437,503.8406 150.3287,505.2796 C156.3197,509.2296 158.0007,517.3336 154.0757,523.3466" id="Fill-13" fill="#FFFFFF"></path>
            <g id="Group-17" transform="translate(236.000000, 493.787000)">
                <mask id="mask-2" fill="white">
                    <use xlink:href="#path-1"></use>
                </mask>
                <g id="Clip-16"></g>
                <path d="M103.4097,38.6842 L107.9797,60.7662 L103.4017,38.6912 C83.1687,42.9272 62.5447,44.6232 42.0947,43.6392 C31.1817,43.1332 19.9577,41.8192 8.7337,39.7262 L0.5417,84.0672 C13.7797,86.5412 27.0597,88.0972 40.0227,88.6992 C44.4257,88.9042 48.8287,89.0002 53.2387,89.0002 C73.0857,89.0002 92.9797,86.9382 112.5497,82.8422 L112.5517,82.8482 C150.2787,74.9642 185.5287,59.8702 217.3217,37.9872 L191.9437,0.7822 C165.0787,19.2752 135.2947,32.0262 103.4097,38.6842" id="Fill-15" fill="#FFFFFF" mask="url(#mask-2)"></path>
            </g>
            <g id="Group-20" transform="translate(227.000000, 126.787000)">
                <mask id="mask-4" fill="white">
                    <use xlink:href="#path-3"></use>
                </mask>
                <g id="Clip-19"></g>
                <path d="M346.0327,105.8448 C338.1817,67.9428 323.1537,32.5298 301.3637,0.5888 L264.3307,26.0908 C278.4827,46.8358 289.2227,69.3228 296.4647,93.1538 L208.6967,93.1538 L208.6967,93.1518 L163.8017,93.1518 L163.8017,93.1538 L163.7737,93.1538 L163.7737,138.2578 L163.8017,138.2578 L163.8017,243.8938 C163.8017,256.6308 153.4867,266.9888 140.8057,266.9888 L50.0717,266.9888 L50.0717,240.0748 L0.8367,289.5428 L50.0717,339.0098 L50.0717,312.0928 L140.8057,312.0928 C178.2407,312.0928 208.6967,281.5028 208.6967,243.8938 L208.6967,138.2578 L305.7497,138.2578 C308.3957,162.2078 307.5257,186.2988 303.1137,210.1468 L347.2497,218.3988 C354.1657,181.0248 353.7567,143.1598 346.0327,105.8448" id="Fill-18" fill="#FFFFFF" mask="url(#mask-4)"></path>
            </g>
            <g id="Group-23" transform="translate(125.000000, 0.787000)">
                <mask id="mask-6" fill="white">
                    <use xlink:href="#path-5"></use>
                </mask>
                <g id="Clip-22"></g>
                <path d="M114.7533,50.5714 C141.8633,44.8894 169.3203,43.8174 196.3613,47.3564 C200.7153,47.9284 205.0643,48.6184 209.4003,49.4334 L217.6363,5.0934 C212.4953,4.1314 207.3363,3.3094 202.1663,2.6344 C170.1313,-1.5726 137.6363,-0.2876 105.6053,6.4074 C67.9363,14.2844 32.7013,29.3924 0.8813,51.2984 L26.2593,88.5024 C53.1573,69.9884 82.9313,57.2224 114.7533,50.5714" id="Fill-21" fill="#FFFFFF" mask="url(#mask-6)"></path>
            </g>
        </g>
    </g>
</svg>