<?xml version="1.0" encoding="UTF-8"?>
<svg width="498px" height="540px" viewBox="0 0 498 540" version="1.1" xmlns="http://www.w3.org/2000/svg" xmlns:xlink="http://www.w3.org/1999/xlink">
    <!-- Generator: Sketch 39.1 (31720) - http://www.bohemiancoding.com/sketch -->
    <title>Page 1</title>
    <desc>Created with Sketch.</desc>
    <defs>
        <polygon id="path-1" points="311 448.9997 311 0.3587 0.1096 0.3587 0.1096 448.9997"></polygon>
    </defs>
    <g id="Page-1" stroke="none" stroke-width="1" fill="none" fill-rule="evenodd">
        <g>
            <path d="M207.2055,269.9778 C207.2055,293.3468 225.9815,312.3558 249.0625,312.3558 C272.1435,312.3558 290.9195,293.3468 290.9195,269.9778 C290.9195,246.6088 272.1435,227.5998 249.0625,227.5998 C225.9815,227.5998 207.2055,246.6088 207.2055,269.9778 M265.1725,269.9778 C265.1725,278.9698 257.9445,286.2888 249.0625,286.2888 C240.1805,286.2888 232.9525,278.9698 232.9525,269.9778 C232.9525,260.9858 240.1805,253.6668 249.0625,253.6668 C257.9445,253.6668 265.1725,260.9858 265.1725,269.9778" id="Fill-1" fill="#FFFFFF"></path>
            <path d="M311.0156,142.9021 L262.2316,142.9021 L262.2316,72.3571 C263.1576,72.0061 264.0856,71.6601 264.9906,71.2311 C273.9226,66.9991 280.6936,59.5091 284.0556,50.1221 C287.4186,40.7411 286.9726,30.5911 282.7986,21.5471 C278.6246,12.5041 271.2206,5.6441 261.9486,2.2391 C242.8276,-4.7799 221.5936,5.2561 214.6606,24.6211 C211.2976,34.0011 211.7376,44.1521 215.9116,53.1951 C220.0476,62.1441 227.3496,68.9301 236.4846,72.3701 L236.4846,142.9021 L181.9426,142.9021 C149.7406,142.9021 123.5476,169.4271 123.5476,202.0301 L123.5476,293.6001 L39.9316,293.6001 C39.1026,285.9471 38.6356,278.2131 38.6206,270.4041 C38.5136,213.4981 60.2936,159.9511 99.9626,119.6291 L72.5946,92.0351 C25.6526,139.7581 -0.1314,203.1311 0.0006,270.4801 C0.1326,337.8301 26.1676,401.1011 73.2996,448.6341 L100.5536,420.9251 C75.7256,395.8911 57.8336,365.6861 47.8476,332.7001 L123.5476,332.7001 L123.5476,332.7011 L162.1676,332.7011 L162.1676,202.0301 C162.1676,190.9881 171.0366,182.0021 181.9426,182.0021 L311.0156,182.0021 L311.0156,142.9021 Z M238.8606,33.5121 C240.5076,28.9241 244.8076,26.0661 249.3706,26.0661 C250.6336,26.0661 251.9166,26.2821 253.1676,26.7401 C255.9706,27.7711 258.2086,29.8461 259.4716,32.5831 C260.7356,35.3191 260.8736,38.3871 259.8556,41.2241 L259.8556,41.2311 C258.8376,44.0701 256.7876,46.3351 254.0846,47.6141 C251.3876,48.8931 248.3586,49.0401 245.5486,48.0021 C242.7456,46.9721 240.5016,44.8971 239.2376,42.1601 C237.9736,39.4241 237.8416,36.3561 238.8606,33.5121 L238.8606,33.5121 Z" id="Fill-3" fill="#FFFFFF"></path>
            <g id="Group-7" transform="translate(187.000000, 90.963000)">
                <mask id="mask-2" fill="white">
                    <use xlink:href="#path-1"></use>
                </mask>
                <g id="Clip-6"></g>
                <path d="M237.8206,0.3587 L210.5646,28.0547 C235.8326,53.5367 253.3246,83.9617 263.1046,116.2907 L148.9336,116.2907 L148.9336,155.3907 L148.9576,155.3907 L148.9576,246.9627 C148.9576,258.0047 140.0826,266.9907 129.1766,266.9907 L0.1096,266.9907 L0.1096,306.0907 L49.4846,306.0907 L49.4846,376.7747 C48.5686,377.1217 47.6216,377.3377 46.7256,377.7617 C37.7936,381.9877 31.0226,389.4837 27.6606,398.8647 C24.2976,408.2517 24.7376,418.4017 28.9116,427.4447 C33.0856,436.4887 40.4896,443.3487 49.7676,446.7527 C53.9096,448.2737 58.1466,448.9997 62.3196,448.9997 C77.4186,448.9997 91.6186,439.5427 97.0556,424.3717 C100.4186,414.9837 99.9726,404.8337 95.7986,395.7907 C91.6686,386.8427 84.3606,380.0627 75.2316,376.6227 L75.2316,306.0907 L129.1766,306.0907 C161.3786,306.0907 187.5776,279.5657 187.5776,246.9627 L187.5776,155.3907 L271.0626,155.3907 C277.8366,217.3837 257.9116,281.8367 211.1556,329.3637 L238.5236,356.9577 C335.4326,258.4497 335.1186,98.4787 237.8206,0.3587 M72.8556,415.4747 L72.8556,415.4807 C70.7496,421.3357 64.3066,424.3587 58.5486,422.2517 C52.7596,420.1267 49.7616,413.6227 51.8606,407.7547 C52.8786,404.9227 54.9286,402.6507 57.6256,401.3787 C59.1336,400.6657 60.7356,400.3087 62.3516,400.3087 C63.6336,400.3087 64.9226,400.5317 66.1736,400.9897 C68.9706,402.0207 71.2146,404.0957 72.4716,406.8257 C73.7356,409.5627 73.8746,412.6357 72.8556,415.4747" id="Fill-5" fill="#FFFFFF" mask="url(#mask-2)"></path>
            </g>
            <path d="M117.4929,92.4772 C127.5179,96.1602 138.5939,90.9192 142.2319,80.7692 C145.8699,70.6202 140.6919,59.4062 130.6669,55.7232 C120.6429,52.0392 109.5669,57.2812 105.9289,67.4302 C102.2909,77.5802 107.4679,88.7942 117.4929,92.4772" id="Fill-8" fill="#FFFFFF"></path>
            <path d="M369.3275,92.4772 C379.3525,96.1602 390.4285,90.9192 394.0665,80.7692 C397.7045,70.6202 392.5265,59.4062 382.5015,55.7232 C372.4775,52.0392 361.4015,57.2812 357.7635,67.4302 C354.1255,77.5802 359.3025,88.7942 369.3275,92.4772" id="Fill-10" fill="#FFFFFF"></path>
            <path d="M130.6671,445.9106 C120.6431,442.2266 109.5661,447.4686 105.9281,457.6176 C102.2911,467.7676 107.4671,478.9816 117.4931,482.6646 C127.5181,486.3476 138.5931,481.1066 142.2321,470.9566 C145.8701,460.8076 140.6921,449.5936 130.6671,445.9106" id="Fill-12" fill="#FFFFFF"></path>
            <path d="M382.5017,445.9106 C372.4777,442.2266 361.4007,447.4686 357.7627,457.6176 C354.1257,467.7676 359.3017,478.9816 369.3277,482.6646 C379.3527,486.3476 390.4277,481.1066 394.0667,470.9566 C397.7047,460.8076 392.5267,449.5936 382.5017,445.9106" id="Fill-14" fill="#FFFFFF"></path>
        </g>
    </g>
</svg>