<?xml version="1.0" encoding="UTF-8"?>
<svg width="556px" height="526px" viewBox="0 0 556 526" version="1.1" xmlns="http://www.w3.org/2000/svg" xmlns:xlink="http://www.w3.org/1999/xlink">
    <!-- Generator: Sketch 39.1 (31720) - http://www.bohemiancoding.com/sketch -->
    <title>Page 1</title>
    <desc>Created with Sketch.</desc>
    <defs>
        <polygon id="path-1" points="0.4137 526 502.9167 526 502.9167 0.2474 0.4137 0.2474 0.4137 526"></polygon>
    </defs>
    <g id="Page-1" stroke="none" stroke-width="1" fill="none" fill-rule="evenodd">
        <g transform="translate(0.000000, -1.000000)">
            <g id="Group-3" transform="translate(26.000000, 0.753000)">
                <mask id="mask-2" fill="white">
                    <use xlink:href="#path-1"></use>
                </mask>
                <g id="Clip-2"></g>
                <path d="M272.0137,484.1964 L272.0137,426.5264 L403.3517,350.7014 L403.3517,175.5484 L272.0137,99.7174 L272.0137,41.9884 C361.3057,50.0284 436.9987,110.4344 463.8947,197.3964 L502.8397,185.3554 C468.6417,74.7864 367.8397,0.3994 252.0067,0.2474 L251.6587,0.2474 C135.5237,0.2474 34.5787,74.7304 0.4137,185.6694 L39.3717,197.6654 C66.2127,110.5014 141.8647,50.0564 231.2507,42.0014 L231.2507,99.7554 L99.9787,175.5484 L99.9787,350.7014 L231.2507,426.4884 L231.2507,484.2504 C141.9867,476.1884 66.3277,415.7944 39.4357,328.8474 L0.4897,340.8954 C34.6907,451.4644 135.4937,525.8504 251.3227,526.0004 L251.6787,526.0004 C367.8127,526.0004 468.7517,451.5204 502.9167,340.5774 L463.9577,328.5814 C437.1107,415.7564 361.2667,475.9844 272.0137,484.1964 L272.0137,484.1964 Z M140.7417,327.1684 L140.7417,199.0814 L236.1047,144.0254 L236.1047,164.9274 C216.2887,171.4674 201.9357,190.1264 201.9357,212.1054 C201.9357,239.5084 224.2277,261.8044 251.6327,261.8044 L251.6327,227.8354 C242.9607,227.8354 235.9047,220.7794 235.9047,212.1054 C235.9047,203.4334 242.9607,196.3784 251.6327,196.3784 C255.8317,196.3784 259.7797,198.0134 262.7547,200.9824 L286.7587,176.9514 C281.1647,171.3634 274.4597,167.3114 267.1597,164.9164 L267.1597,143.9864 L362.5887,199.0814 L362.5887,327.1684 L267.1597,382.2624 L267.1597,359.1444 C287.0097,352.6254 301.3947,333.9454 301.3947,311.9424 C301.3947,284.5384 279.1027,262.2424 251.6977,262.2424 L251.6977,296.2114 C260.3697,296.2114 267.4257,303.2674 267.4257,311.9424 C267.4257,320.6134 260.3697,327.6694 251.6977,327.6694 C247.4987,327.6694 243.5477,326.0344 240.5757,323.0684 L216.5717,347.0984 C222.1467,352.6694 228.8297,356.7124 236.1047,359.1094 L236.1047,382.2254 L140.7417,327.1684 Z" id="Fill-1" fill="#FFFFFF" mask="url(#mask-2)"></path>
            </g>
            <path d="M95.2703,376.966 C100.8983,382.594 110.0233,382.594 115.6513,376.966 C121.2793,371.337 121.2793,362.213 115.6513,356.585 C110.0233,350.956 100.8983,350.956 95.2703,356.585 C89.6423,362.213 89.6423,371.337 95.2703,376.966" id="Fill-4" fill="#FFFFFF"></path>
            <path d="M55.483,299.1735 C64.914,294.7685 72.06,286.9495 75.609,277.1705 C79.162,267.3875 78.691,256.8055 74.282,247.3775 C69.877,237.9465 62.061,230.8015 52.276,227.2515 C42.486,223.6955 31.904,224.1765 22.486,228.5785 C13.055,232.9875 5.909,240.8025 2.36,250.5825 C-1.193,260.3685 -0.721,270.9475 3.687,280.3775 C8.092,289.8055 15.908,296.9515 25.694,300.5035 C30.029,302.0795 34.525,302.8625 39.006,302.8625 C44.633,302.8625 50.239,301.6295 55.483,299.1735 M27.904,259.8535 C28.979,256.8955 31.141,254.5325 33.994,253.1995 C35.579,252.4565 37.278,252.0815 38.98,252.0815 C40.333,252.0815 41.693,252.3215 43.007,252.7945 C45.966,253.8695 48.331,256.0325 49.665,258.8855 C50.998,261.7355 51.141,264.9365 50.066,267.8985 C48.992,270.8585 46.828,273.2225 43.976,274.5565 C41.126,275.8895 37.922,276.0325 34.966,274.9615 C28.852,272.7415 25.684,265.9655 27.904,259.8535" id="Fill-6" fill="#FFFFFF"></path>
            <path d="M439.6792,356.5845 C434.0512,362.2125 434.0512,371.3375 439.6792,376.9655 C445.3072,382.5945 454.4322,382.5945 460.0602,376.9655 C465.6882,371.3375 465.6882,362.2125 460.0602,356.5845 C454.4322,350.9555 445.3072,350.9555 439.6792,356.5845" id="Fill-8" fill="#FFFFFF"></path>
            <path d="M551.6431,247.3779 C547.2371,237.9469 539.4221,230.8019 529.6361,227.2519 C519.8431,223.6959 509.2681,224.1769 499.8471,228.5789 C490.4191,232.9869 483.2701,240.8029 479.7201,250.5819 C476.1681,260.3679 476.6391,270.9479 481.0481,280.3779 C485.4531,289.8059 493.2691,296.9509 503.0541,300.5039 C507.3901,302.0799 511.8851,302.8629 516.3671,302.8629 C521.9931,302.8629 527.5991,301.6289 532.8441,299.1739 C542.2751,294.7689 549.4201,286.9499 552.9701,277.1709 C556.5221,267.3879 556.0521,256.8059 551.6431,247.3779 M527.4261,267.8989 C526.3521,270.8579 524.1891,273.2229 521.3361,274.5559 C518.4831,275.8899 515.2851,276.0329 512.3271,274.9609 C509.3641,273.8869 506.9991,271.7239 505.6651,268.8709 C504.3321,266.0179 504.1891,262.8169 505.2641,259.8539 C506.3391,256.8949 508.5021,254.5329 511.3541,253.1989 C512.9401,252.4569 514.6381,252.0819 516.3401,252.0819 C517.6941,252.0819 519.0541,252.3209 520.3681,252.7949 C523.3261,253.8699 525.6911,256.0319 527.0251,258.8859 C528.3591,261.7349 528.5011,264.9359 527.4261,267.8989" id="Fill-10" fill="#FFFFFF"></path>
            <path d="M115.6517,176.4584 C121.2797,170.8294 121.2797,161.7054 115.6517,156.0774 C110.0237,150.4484 100.8987,150.4484 95.2707,156.0774 C89.6427,161.7054 89.6427,170.8294 95.2707,176.4584 C100.8987,182.0864 110.0237,182.0864 115.6517,176.4584" id="Fill-12" fill="#FFFFFF"></path>
            <path d="M460.0605,156.077 C454.4325,150.448 445.3075,150.448 439.6795,156.077 C434.0515,161.705 434.0515,170.83 439.6795,176.458 C445.3075,182.087 454.4325,182.087 460.0605,176.458 C465.6885,170.83 465.6885,161.705 460.0605,156.077" id="Fill-14" fill="#FFFFFF"></path>
        </g>
    </g>
</svg>