<?xml version="1.0" encoding="UTF-8"?>
<svg width="567px" height="527px" viewBox="0 0 567 527" version="1.1" xmlns="http://www.w3.org/2000/svg" xmlns:xlink="http://www.w3.org/1999/xlink">
    <!-- Generator: Sketch 39.1 (31720) - http://www.bohemiancoding.com/sketch -->
    <title>Page 1</title>
    <desc>Created with Sketch.</desc>
    <defs>
        <polygon id="path-1" points="0.0002749287 303 545.6217 303 545.6217 0.507512685 0.0002749287 0.507512685"></polygon>
    </defs>
    <g id="Page-1" stroke="none" stroke-width="1" fill="none" fill-rule="evenodd">
        <g>
            <path d="M228.9114,200.8043 C228.9114,233.4983 255.9904,260.0963 289.2694,260.0963 L289.2694,219.2473 C278.9134,219.2473 270.4944,210.9733 270.4944,200.8043 C270.4944,190.6353 278.9134,182.3613 289.2694,182.3613 C294.2774,182.3613 298.9944,184.2793 302.5414,187.7633 L331.9274,158.8623 C320.5304,147.6763 305.3764,141.5133 289.2694,141.5133 C255.9904,141.5133 228.9114,168.1103 228.9114,200.8043" id="Fill-1" fill="#FFFFFF"></path>
            <path d="M289.3433,337.8631 C284.3353,337.8631 279.6173,335.9451 276.0713,332.4641 L246.6843,361.3661 C258.0823,372.5521 273.2353,378.7111 289.3433,378.7111 C322.6223,378.7111 349.7003,352.1141 349.7003,319.4201 C349.7003,286.7261 322.6223,260.1281 289.3433,260.1281 L289.3433,300.9771 C299.6993,300.9771 308.1183,309.2511 308.1183,319.4201 C308.1183,329.5891 299.6993,337.8631 289.3433,337.8631" id="Fill-3" fill="#FFFFFF"></path>
            <g id="Group-7" transform="translate(0.000000, 223.857000)">
                <mask id="mask-2" fill="white">
                    <use xlink:href="#path-1"></use>
                </mask>
                <g id="Clip-6"></g>
                <path d="M310.1007,261.1631 L310.1007,220.7061 C366.8957,211.2961 410.7397,164.1901 413.9807,106.5211 L372.3977,106.5211 C368.8557,148.5361 332.9757,181.6821 289.3057,181.6821 C243.2967,181.6821 205.8627,144.9091 205.8627,99.7131 L205.8627,59.9941 L205.8627,19.1461 L164.2797,19.1461 L137.1977,19.1461 L73.4307,19.1461 C68.7517,11.6791 61.8477,5.9061 53.3317,2.8701 C43.3517,-0.6809 32.5637,-0.2219 22.9357,4.1991 C13.3157,8.6141 6.0257,16.4461 2.4057,26.2531 C-1.2153,36.0561 -0.7353,46.6561 3.7587,56.1041 C8.2567,65.5521 16.2287,72.7151 26.2057,76.2721 C30.6317,77.8521 35.2197,78.6361 39.7917,78.6361 C45.5307,78.6361 51.2467,77.4001 56.6007,74.9431 C63.7557,71.6551 69.6107,66.4671 73.6387,59.9941 L164.2797,59.9941 L164.2797,99.7131 C164.2797,160.4641 209.4597,210.9171 268.5177,220.6891 L268.5177,261.1651 C177.4497,253.0951 100.2497,192.5681 72.8137,105.4321 L33.0847,117.5061 C67.9737,228.3041 170.8047,302.8471 288.9637,303.0001 L289.3227,303.0001 C407.7977,303.0001 510.7667,228.3631 545.6217,117.1871 L505.8807,105.1671 C478.4917,192.5301 401.3027,253.1061 310.1007,261.1631 M51.0737,43.6021 C49.9777,46.5671 47.7717,48.9371 44.8617,50.2741 C41.9467,51.6001 38.6787,51.7461 35.6637,50.6761 C32.6457,49.5991 30.2357,47.4311 28.8747,44.5721 C27.5147,41.7141 27.3697,38.5061 28.4617,35.5401 C29.5587,32.5751 31.7647,30.2051 34.6757,28.8681 C36.2927,28.1241 38.0217,27.7521 39.7577,27.7521 C41.1427,27.7521 42.5297,27.9871 43.8697,28.4671 L43.8737,28.4671 C46.8917,29.5441 49.3017,31.7111 50.6617,34.5691 C52.0227,37.4291 52.1667,40.6371 51.0737,43.6021" id="Fill-5" fill="#FFFFFF" mask="url(#mask-2)"></path>
            </g>
            <path d="M562.745,246.895 C558.244,237.447 550.279,230.284 540.296,226.727 C530.312,223.16 519.518,223.629 509.9,228.056 C502.744,231.341 496.888,236.531 492.862,243.003 L414.332,243.003 L414.332,196.477 C414.332,135.729 369.155,85.276 310.101,75.502 L310.101,41.833 C401.18,49.901 478.382,110.428 505.812,197.563 L545.541,185.496 C510.658,74.695 407.825,0.153 289.661,0 L289.303,0 C170.831,0 67.862,74.635 33.01,185.812 L72.753,197.833 C100.14,110.472 177.322,49.897 268.518,41.838 L268.518,75.501 C209.46,85.273 164.28,135.726 164.28,196.477 L205.863,196.477 C205.863,151.28 243.297,114.508 289.306,114.508 C335.315,114.508 372.749,151.28 372.749,196.477 L372.749,243.003 L372.749,283.851 L414.332,283.851 L458.798,283.851 L493.067,283.851 C497.75,291.319 504.655,297.094 513.169,300.129 C517.596,301.709 522.184,302.493 526.76,302.493 C532.499,302.493 538.211,301.257 543.565,298.8 C553.182,294.382 560.478,286.55 564.092,276.75 C567.713,266.947 567.239,256.343 562.745,246.895 M538.035,267.462 C536.939,270.424 534.732,272.794 531.822,274.131 C528.926,275.46 525.67,275.61 522.624,274.533 C519.605,273.456 517.196,271.288 515.836,268.433 C514.476,265.574 514.333,262.366 515.43,259.394 C516.526,256.429 518.733,254.062 521.636,252.725 C523.261,251.982 524.986,251.609 526.726,251.609 C528.106,251.609 529.494,251.844 530.834,252.324 L530.841,252.324 C533.859,253.401 536.268,255.568 537.629,258.424 C538.989,261.282 539.132,264.491 538.035,267.462" id="Fill-8" fill="#FFFFFF"></path>
        </g>
    </g>
</svg>