<?xml version="1.0" encoding="UTF-8"?>
<svg width="525px" height="514px" viewBox="0 0 525 514" version="1.1" xmlns="http://www.w3.org/2000/svg" xmlns:xlink="http://www.w3.org/1999/xlink">
    <!-- Generator: Sketch 39.1 (31720) - http://www.bohemiancoding.com/sketch -->
    <title>Page 1</title>
    <desc>Created with Sketch.</desc>
    <defs></defs>
    <g id="Page-1" stroke="none" stroke-width="1" fill="none" fill-rule="evenodd">
        <g fill="#FEFEFE">
            <path d="M465.5367,351.9765 C455.1557,352.4615 445.5857,356.9375 438.5817,364.5825 C435.7767,367.6495 433.6837,371.1485 432.0187,374.8225 L411.7107,374.9475 C411.7547,373.5315 411.9257,372.1495 411.9257,370.7235 C411.9257,346.5035 405.4007,322.7335 393.0547,301.9885 C368.6827,261.0265 323.8397,235.5845 276.0317,235.5845 L248.7967,235.5845 C219.9427,235.5845 192.6517,222.3255 174.7187,200.3065 L251.8857,200.3065 L251.8857,166.5755 L157.1747,166.5755 C154.8317,158.2735 153.6057,149.6445 153.6057,140.9215 C153.6057,139.5585 153.7537,138.2315 153.8107,136.8825 L314.7797,136.8825 L314.7797,103.1525 L161.5637,103.1525 C176.2637,69.7105 209.8107,46.2615 248.7967,46.2615 L248.7967,5.7855 C187.0557,5.7855 134.8937,46.9795 118.4087,103.1525 L91.9717,103.1525 C89.8867,99.1725 87.1977,95.4955 83.7467,92.4095 C76.0647,85.4505 66.1097,81.8865 55.7247,82.3765 C34.2987,83.3815 17.6867,101.5305 18.6937,122.8425 C19.1677,132.8355 23.4397,141.7795 30.0487,148.3525 C37.5347,155.7965 48.0137,160.2085 59.3927,159.6735 C69.7737,159.1875 79.3387,154.7065 86.3377,147.0665 C89.1287,144.0145 91.2107,140.5355 92.8727,136.8825 L113.1087,136.8825 C113.0687,138.2365 112.9027,139.5585 112.9027,140.9215 C112.9027,165.1425 119.4287,188.9115 131.7707,209.6575 C156.1427,250.6145 200.9827,276.0615 248.7967,276.0615 L276.0317,276.0615 C305.2837,276.0615 332.9487,289.6665 350.8667,312.2355 L282.8157,312.2355 L282.8157,345.9655 L367.9157,345.9655 C370.0947,353.9915 371.2227,362.3155 371.2227,370.7235 C371.2227,372.2325 371.0657,373.7015 370.9957,375.1935 L210.7797,376.1655 L210.7797,409.8965 L363.0327,408.9725 C348.2207,442.1525 314.8277,465.3835 276.0317,465.3835 L276.0317,505.8605 C337.6947,505.8605 389.8087,464.7725 406.3647,408.7095 L433.0287,408.5475 C434.8287,411.9555 437.0157,415.1705 439.8147,417.9535 C440.2547,418.3925 440.7047,418.8205 441.1687,419.2355 C448.8507,426.1945 458.8057,429.7575 469.1807,429.2685 C479.5627,428.7855 489.1327,424.3075 496.1307,416.6685 C503.1247,409.0235 506.7077,399.1335 506.2207,388.8105 C505.7397,378.4825 501.1617,368.9385 493.5497,362.0105 C485.8637,355.0555 475.9177,351.4925 465.5367,351.9765 M66.2697,128.8985 C64.1517,131.2195 61.2567,132.5705 58.1177,132.7185 C51.6307,133.0215 46.1117,128.0285 45.7977,121.5765 C45.4947,115.1245 50.5247,109.6375 57.0077,109.3295 C60.1467,109.1805 63.1547,110.2615 65.4817,112.3615 C65.6227,112.4925 65.7587,112.6185 65.8907,112.7485 C67.9697,114.8165 69.1777,117.5375 69.3187,120.4815 C69.4687,123.6025 68.3817,126.5935 66.2697,128.8985 M476.0627,398.5005 C473.9497,400.8155 471.0547,402.1665 467.9067,402.3155 C464.7687,402.4645 461.7617,401.3835 459.4337,399.2825 C457.1797,397.1725 455.7507,394.2985 455.6007,391.1685 C455.4517,388.0465 456.5387,385.0565 458.6557,382.7455 C460.7687,380.4305 463.6637,379.0795 466.8017,378.9305 C469.9457,378.7865 472.9567,379.8615 475.2797,381.9675 C475.4257,382.0935 475.5567,382.2235 475.6927,382.3595 C477.7677,384.4225 478.9817,387.1375 479.1177,390.0685 C479.2627,393.1945 478.1797,396.1895 476.0627,398.5005" id="Fill-1"></path>
            <g id="Group-5" transform="translate(0.000000, 172.963000)">
                <path d="M46.1252,34.1979 C47.7102,27.2559 49.6232,20.3269 51.9222,13.4329 L13.2842,0.6929 C9.5792,11.8059 6.7512,22.9959 4.6062,34.1979 C-19.6208,160.7099 53.6082,288.9989 179.8102,330.6209 L192.6202,292.1989 C83.4802,256.2069 21.1812,143.4949 46.1252,34.1979" id="Fill-3"></path>
            </g>
            <path d="M497.0292,138.7273 C465.5782,76.4113 411.6052,30.0083 345.0552,8.0593 L332.2442,46.4813 C388.4732,65.0253 434.0772,104.2343 460.6542,156.8853 C483.9622,203.0673 490.1762,254.7453 478.7662,304.4843 C477.1692,311.4503 475.2342,318.3783 472.9432,325.2473 L511.5802,337.9873 C515.2672,326.9293 518.1242,315.7383 520.2952,304.4843 C531.1182,248.3883 523.2272,190.6283 497.0292,138.7273" id="Fill-6"></path>
            <path d="M291.8665,40.3694 C303.0445,41.5284 313.0525,33.4574 314.2195,22.3404 C315.3865,11.2234 307.2695,1.2704 296.0895,0.1114 C284.9105,-1.0496 274.9025,7.0224 273.7365,18.1394 C272.5705,29.2564 280.6875,39.2094 291.8665,40.3694" id="Fill-8"></path>
            <path d="M232.9622,473.5942 C221.7832,472.4342 211.7752,480.5062 210.6082,491.6232 C209.4422,502.7402 217.5592,512.6922 228.7382,513.8522 C239.9172,515.0112 249.9252,506.9402 251.0922,495.8232 C252.2582,484.7062 244.1412,474.7542 232.9622,473.5942" id="Fill-10"></path>
        </g>
    </g>
</svg>