<?xml version="1.0" encoding="UTF-8"?>
<svg width="563px" height="528px" viewBox="0 0 563 528" version="1.1" xmlns="http://www.w3.org/2000/svg" xmlns:xlink="http://www.w3.org/1999/xlink">
    <!-- Generator: Sketch 39.1 (31720) - http://www.bohemiancoding.com/sketch -->
    <title>Page 1</title>
    <desc>Created with Sketch.</desc>
    <defs>
        <polygon id="path-1" points="0 0.5374 0 203.1154 404.1298 203.1154 404.1298 0.5374 0 0.5374"></polygon>
    </defs>
    <g id="Page-1" stroke="none" stroke-width="1" fill="none" fill-rule="evenodd">
        <g>
            <path d="M272.0429,64.8584 C266.3979,70.5034 266.3979,79.6564 272.0429,85.3034 C277.6889,90.9484 286.8419,90.9484 292.4879,85.3034 C298.1329,79.6564 298.1329,70.5034 292.4879,64.8584 C286.8419,59.2114 277.6889,59.2114 272.0429,64.8584" id="Fill-1" fill="#FFFFFF"></path>
            <path d="M281.0117,40.8893 L281.3147,40.8893 C379.4947,41.0193 464.9347,104.0603 493.9177,197.7653 L532.9847,185.6793 C498.6767,74.7713 397.5607,0.1533 281.3677,0.0003 L281.0117,0.0003 C164.5197,0.0003 63.2677,74.7113 28.9957,185.9983 L68.0757,198.0313 C97.0317,104.0043 182.5747,40.8893 281.0117,40.8893" id="Fill-3" fill="#FFFFFF"></path>
            <g id="Group-7" transform="translate(0.000000, 99.387000)">
                <mask id="mask-2" fill="white">
                    <use xlink:href="#path-1"></use>
                </mask>
                <g id="Clip-6"></g>
                <path d="M72.3348,184.4734 L157.4148,184.4734 L157.4148,152.4264 C161.0198,93.2244 208.2818,45.7514 267.3988,41.8254 L267.3988,67.2054 C246.5058,73.1434 231.1418,92.3554 231.1418,115.1264 C231.1418,142.6154 253.5058,164.9774 280.9948,164.9774 L280.9948,130.9024 C272.2928,130.9024 265.2158,123.8244 265.2158,115.1264 C265.2158,106.4244 272.2928,99.3464 280.9948,99.3464 C285.2068,99.3464 289.1638,100.9874 292.1458,103.9624 L316.2308,79.8634 C310.1348,73.7694 302.7288,69.4834 294.6578,67.1944 L294.6578,43.0194 C317.8268,46.7974 339.1118,57.2964 356.1868,73.4074 L336.9688,92.2824 L404.1298,92.2824 L404.1298,26.3204 L385.3558,44.7594 C355.9498,16.4214 317.0328,0.5374 275.2748,0.5374 C192.9628,0.5374 125.0518,63.3664 116.9688,143.5844 L72.3338,143.5844 C65.4438,132.4244 53.1378,124.9454 39.0858,124.9454 C17.5328,124.9454 -0.0002,142.4794 -0.0002,164.0284 C-0.0002,185.5814 17.5328,203.1154 39.0858,203.1154 C53.1388,203.1154 65.4458,195.6354 72.3348,184.4734 M27.2598,164.0284 C27.2598,157.5104 32.5638,152.2054 39.0858,152.2054 C45.6068,152.2054 50.9118,157.5104 50.9118,164.0284 C50.9118,170.5504 45.6068,175.8554 39.0858,175.8554 C32.5638,175.8554 27.2598,170.5504 27.2598,164.0284" id="Fill-5" fill="#FFFFFF" mask="url(#mask-2)"></path>
            </g>
            <path d="M522.9675,224.3326 C508.9155,224.3326 496.6105,231.8106 489.7205,242.9706 L405.0245,242.9706 L405.0245,267.7916 L405.0045,267.7916 C405.0045,330.3236 356.1735,381.5326 294.6585,385.6176 L294.6585,362.5776 C315.5495,356.6376 330.9125,337.4276 330.9125,314.6566 C330.9125,287.1686 308.5475,264.8066 281.0585,264.8066 L281.0585,298.8816 C289.7595,298.8816 296.8375,305.9586 296.8375,314.6566 C296.8375,323.3586 289.7595,330.4366 281.0585,330.4366 C276.8455,330.4366 272.8885,328.7966 269.9075,325.8216 L245.8215,349.9206 C251.9195,356.0146 259.3275,360.3006 267.3985,362.5896 L267.3985,384.4256 C242.3875,380.3486 219.5815,368.4206 201.8885,350.0786 L221.1155,331.1946 L153.9535,331.1956 L153.9535,397.1556 L172.7165,378.7276 C202.5415,409.5476 243.1085,426.9066 286.7785,426.9066 C369.0905,426.9066 437.0015,364.0776 445.0845,283.8606 L489.7185,283.8606 C496.6075,295.0226 508.9145,302.5016 522.9675,302.5016 C544.5205,302.5016 562.0535,284.9686 562.0535,263.4156 C562.0535,241.8666 544.5205,224.3326 522.9675,224.3326 M522.9675,275.2426 C516.4455,275.2426 511.1415,269.9376 511.1415,263.4156 C511.1415,256.8976 516.4455,251.5926 522.9675,251.5926 C529.4905,251.5926 534.7935,256.8976 534.7935,263.4156 C534.7935,269.9376 529.4905,275.2426 522.9675,275.2426" id="Fill-8" fill="#FFFFFF"></path>
            <path d="M281.0381,486.4976 L280.7391,486.4976 C182.5581,486.3676 97.1181,423.3266 68.1351,329.6206 L29.0691,341.7076 C63.3771,452.6156 164.4931,527.2336 280.6861,527.3866 L281.0421,527.3866 C397.5341,527.3866 498.7861,452.6756 533.0571,341.3876 L493.9781,329.3556 C465.0241,423.3826 379.4791,486.4976 281.0381,486.4976" id="Fill-10" fill="#FFFFFF"></path>
            <path d="M292.4877,464.3133 C298.1337,458.6673 298.1337,449.5143 292.4877,443.8683 C286.8427,438.2223 277.6887,438.2223 272.0427,443.8683 C266.3977,449.5143 266.3977,458.6673 272.0427,464.3133 C277.6887,469.9583 286.8427,469.9583 292.4877,464.3133" id="Fill-12" fill="#FFFFFF"></path>
        </g>
    </g>
</svg>