<?xml version="1.0" encoding="UTF-8"?>
<svg width="581px" height="572px" viewBox="0 0 581 572" version="1.1" xmlns="http://www.w3.org/2000/svg" xmlns:xlink="http://www.w3.org/1999/xlink">
    <!-- Generator: Sketch 39.1 (31720) - http://www.bohemiancoding.com/sketch -->
    <title>Page 1</title>
    <desc>Created with Sketch.</desc>
    <defs></defs>
    <g id="Page-1" stroke="none" stroke-width="1" fill="none" fill-rule="evenodd">
        <g fill="#FFFFFF">
            <path d="M289.6476,44.2671 C301.9346,44.2671 311.8936,34.3581 311.8936,22.1341 C311.8936,9.9091 301.9346,9.99999999e-05 289.6476,9.99999999e-05 C277.3626,9.99999999e-05 267.4016,9.9091 267.4016,22.1341 C267.4016,34.3581 277.3626,44.2671 289.6476,44.2671" id="Fill-1"></path>
            <path d="M200.6642,59.0227 C212.9512,59.0227 222.9102,49.1137 222.9102,36.8897 C222.9102,24.6657 212.9512,14.7557 200.6642,14.7557 C188.3792,14.7557 178.4182,24.6657 178.4182,36.8897 C178.4182,49.1137 188.3792,59.0227 200.6642,59.0227" id="Fill-3"></path>
            <path d="M378.631,59.0227 C390.918,59.0227 400.877,49.1137 400.877,36.8897 C400.877,24.6657 390.918,14.7557 378.631,14.7557 C366.346,14.7557 356.385,24.6657 356.385,36.8897 C356.385,49.1137 366.346,59.0227 378.631,59.0227" id="Fill-5"></path>
            <path d="M289.6476,526.82 C277.3626,526.82 267.4016,536.73 267.4016,548.953 C267.4016,561.177 277.3626,571.087 289.6476,571.087 C301.9346,571.087 311.8936,561.177 311.8936,548.953 C311.8936,536.73 301.9346,526.82 289.6476,526.82" id="Fill-7"></path>
            <path d="M378.631,512.0643 C366.346,512.0643 356.385,521.9743 356.385,534.1973 C356.385,546.4213 366.346,556.3313 378.631,556.3313 C390.918,556.3313 400.877,546.4213 400.877,534.1973 C400.877,521.9743 390.918,512.0643 378.631,512.0643" id="Fill-9"></path>
            <path d="M200.6642,512.0643 C188.3792,512.0643 178.4182,521.9743 178.4182,534.1973 C178.4182,546.4213 188.3792,556.3313 200.6642,556.3313 C212.9512,556.3313 222.9102,546.4213 222.9102,534.1973 C222.9102,521.9743 212.9512,512.0643 200.6642,512.0643" id="Fill-11"></path>
            <g id="Group-15" transform="translate(157.000000, 41.087000)">
                <path d="M419.7283,141.5925 C414.9203,131.3545 406.3893,123.5875 395.7153,119.7325 C393.8033,119.0405 391.8403,118.6545 389.8833,118.2435 C385.1393,108.6395 379.8833,99.1845 373.9253,89.9725 C350.2593,53.3715 319.4613,23.3915 282.3853,0.8695 L259.1983,38.6515 C290.4953,57.6655 316.5073,82.9905 336.5153,113.9215 C340.6513,120.3155 344.3543,126.8945 347.8263,133.5625 C346.8453,134.8135 345.7993,136.0105 344.9623,137.3735 L265.2673,137.3735 C253.7273,75.5835 199.2373,28.6195 133.8413,28.6195 C60.0793,28.6195 0.0693,88.3265 0.0693,161.7155 L44.5613,161.7155 C44.5613,112.7365 84.6143,72.8865 133.8413,72.8865 C183.0693,72.8865 223.1223,112.7365 223.1223,161.7155 L223.1713,161.7155 L223.1713,181.6405 L345.0153,181.6405 C349.8713,189.5175 357.3093,195.8905 366.6993,199.2825 C371.4713,201.0045 376.3523,201.8255 381.1603,201.8255 C398.5543,201.8255 414.9203,191.1195 421.1763,173.9425 C425.0513,163.3225 424.5363,151.8305 419.7283,141.5925 M393.2973,163.8775 C390.8713,170.5055 383.4633,173.9285 376.8153,171.5435 C370.1453,169.1365 366.6843,161.7735 369.1033,155.1445 C370.2763,151.9245 372.6373,149.3595 375.7503,147.9115 C377.4883,147.1045 379.3353,146.6935 381.1963,146.6935 C382.6733,146.6935 384.1583,146.9525 385.5923,147.4715 C388.8213,148.6385 391.3993,150.9875 392.8553,154.0855 C394.3103,157.1835 394.4703,160.6565 393.2973,163.8775" id="Fill-13"></path>
            </g>
            <path d="M85.7834,416.0779 C82.9934,411.7649 80.4334,407.3729 77.9674,402.9499 C79.3144,400.9159 80.4914,398.7549 81.4894,396.4519 L159.7814,396.4519 C171.3214,458.2419 225.8134,505.2069 291.2104,505.2069 C364.9724,505.2069 424.9834,445.4999 424.9834,372.1109 L380.4914,372.1109 C380.4914,421.0899 340.4384,460.9399 291.2104,460.9399 C241.9764,460.9399 201.9304,421.0899 201.9304,372.1109 L201.8794,372.1109 L201.8794,352.1849 L74.5824,352.1849 C69.8904,346.7729 63.9994,342.4819 57.0614,339.9769 C46.3764,336.1079 34.8294,336.6269 24.5394,341.4179 C14.2494,346.2089 6.4504,354.6969 2.5764,365.3169 C-1.3016,375.9369 -0.7876,387.4289 4.0244,397.6669 C8.8324,407.9049 17.3634,415.6719 28.0484,419.5259 C31.1754,420.6559 34.3474,421.2619 37.5194,421.6389 C40.8894,427.8479 44.4654,433.9949 48.3664,440.0269 C72.0464,476.6349 102.8444,506.6149 139.9174,529.1299 L163.0974,491.3479 C131.8064,472.3409 105.7954,447.0159 85.7834,416.0779 M30.4554,375.3819 C31.6284,372.1689 33.9894,369.6039 37.1034,368.1549 C38.8374,367.3489 40.6844,366.9379 42.5414,366.9379 C44.0224,366.9379 45.5074,367.1969 46.9374,367.7159 C50.1704,368.8829 52.7524,371.2319 54.2074,374.3299 C55.6634,377.4279 55.8194,380.9009 54.6464,384.1219 C52.2234,390.7499 44.8194,394.1869 38.1644,391.7879 C34.9314,390.6199 32.3494,388.2719 30.8934,385.1729 C29.4384,382.0749 29.2824,378.6029 30.4554,375.3819" id="Fill-16"></path>
            <path d="M47.782,300.5041 L151.507,300.5041 L151.507,256.2371 L49.14,256.2371 C51.315,238.6901 55.445,221.4271 61.387,204.7511 L112.461,204.7511 L112.461,160.4841 L82.404,160.4841 C100.893,130.0411 126.419,103.2181 158.452,82.7071 L134.374,45.4861 C88.592,74.8001 53.999,114.9871 31.8,160.4841 C24.832,174.7661 19.16,189.5941 14.672,204.7511 C9.694,221.5631 6.257,238.7941 4.428,256.2371 C2.891,270.9031 2.5,285.6991 3.256,300.5041 L47.782,300.5041 Z" id="Fill-18"></path>
            <path d="M531.6528,270.5825 L427.7918,270.5825 L427.7918,314.8495 L530.2678,314.8495 C529.3588,322.1295 528.1548,329.4085 526.5728,336.6655 C524.0838,348.0885 520.7868,359.2015 516.7698,369.9665 L469.6908,369.9665 L469.6908,414.2335 L494.8158,414.2335 C476.1768,443.6875 451.1368,468.9795 420.8468,488.3795 L444.9178,525.5995 C489.4698,497.0735 523.3668,458.2255 545.6158,414.2335 C552.8358,399.9585 558.8358,385.1545 563.5518,369.9665 C569.1258,352.0115 572.9038,333.5475 574.8638,314.8495 C576.4008,300.1845 576.7918,285.3875 576.0358,270.5825 L531.6528,270.5825 Z" id="Fill-20"></path>
            <path d="M265.4675,307.8503 C265.9815,307.3533 267.3865,307.0503 269.5515,307.0503 C273.2735,307.0363 277.9155,306.3303 277.9155,320.1273 C277.9155,330.3153 286.2145,338.5723 296.4535,338.5723 C306.6935,338.5723 314.9925,330.3153 314.9925,320.1273 C314.9925,289.7803 297.3955,270.1763 270.6375,270.1763 L270.6235,270.1763 C255.1555,269.6933 245.1115,276.0693 239.5865,281.4303 C231.2005,289.5643 226.5805,301.6033 226.5805,315.3213 L226.5805,340.5313 C226.5805,371.9813 245.1765,405.5923 297.3585,405.5923 C332.2915,405.5923 360.7145,376.4053 360.7145,340.5313 L360.7145,250.3483 C360.7145,210.0583 328.8305,177.2763 289.6465,177.2763 C242.4905,177.2763 218.5785,199.1503 218.5785,242.2853 C218.5785,252.4733 226.8775,260.7303 237.1175,260.7303 C247.3565,260.7303 255.6555,252.4733 255.6555,242.2853 C255.6555,224.7923 257.9435,214.1653 289.6465,214.1653 C308.3875,214.1653 323.6385,230.3973 323.6385,250.3483 L323.6385,340.5313 C323.6385,356.0653 311.8495,368.7033 297.3585,368.7033 C267.1475,368.7033 263.6575,352.6283 263.6575,340.5313 L263.6575,315.3213 C263.6575,310.7973 264.8375,308.4553 265.4675,307.8503" id="Fill-22"></path>
        </g>
    </g>
</svg>