<svg id="fintech" xmlns="http://www.w3.org/2000/svg" viewBox="0 0 77.39 76.19">
  <defs>
    <style>
      .cls-1 {
        fill: #3cd681;
      }
    </style>
  </defs>
  <title>healthtech-icon</title>
  <g id="circle-bar-right">
    <path class="cls-1" d="M72.75,53.66a5.67,5.67,0,0,0-9.07,1.9l-32.61.2v5l32.76-.2a5.69,5.69,0,0,0,1,1.39l.2.19a5.74,5.74,0,0,0,7.72-8.48Zm-2.58,5.41a1.74,1.74,0,0,1-2.45.12,1.77,1.77,0,0,1-.56-1.2,1.73,1.73,0,0,1,2.9-1.36l.06.06a1.73,1.73,0,0,1,.05,2.39Z" transform="translate(0 0)"/>
  </g>
  <g id="circle-bar-left">
    <path class="cls-1" d="M46.4,15.29H13.56a5.6,5.6,0,0,0-1.21-1.59,5.83,5.83,0,1,0,1.35,6.59H46.4ZM9.77,19.11a1.74,1.74,0,1,1-.12-2.45l.06.06a1.74,1.74,0,0,1,.06,2.39Z" transform="translate(0 0)"/>
  </g>
  <g id="snake">
    <path class="cls-1" d="M57.94,44.76a20.13,20.13,0,0,0-17.25-9.84h-4a14,14,0,1,1,0-28.06v-6a20,20,0,1,0,0,40.06h4a14,14,0,1,1,0,28.06v6A20,20,0,0,0,57.94,44.76Z" transform="translate(0 0)"/>
  </g>
  <g id="middle-bars">
    <rect class="cls-1" x="41.69" y="46.28" width="17.03" height="5"/>
    <rect class="cls-1" x="20.1" y="24.69" width="17.03" height="5"/>
  </g>
  <g id="outershape">
    <path class="cls-1" d="M28.39,69l-1.89,5.7A38.77,38.77,0,0,1,2,25.74l5.7,1.89c-.34,1-.62,2-.85,3.08A32.74,32.74,0,0,0,28.39,69ZM73.27,20.56A38.44,38.44,0,0,0,50.86,1.19L49,6.89a32.7,32.7,0,0,1,21.6,38.24q-.35,1.55-.86,3.08l5.7,1.89a39.27,39.27,0,0,0,1.28-5A38.39,38.39,0,0,0,73.27,20.56ZM46.32,3.31A3,3,0,1,0,43,6,3,3,0,0,0,46.32,3.31Zm-12,66.89A3,3,0,1,0,37,73.5,3,3,0,0,0,34.34,70.2Z" transform="translate(0 0)"/>
  </g>
</svg>
