<?xml version="1.0" encoding="UTF-8"?>
<svg width="59px" height="59px" viewBox="0 0 59 59" version="1.1" xmlns="http://www.w3.org/2000/svg" xmlns:xlink="http://www.w3.org/1999/xlink">
    <!-- Generator: Sketch 39.1 (31720) - http://www.bohemiancoding.com/sketch -->
    <title>Shape</title>
    <desc>Created with Sketch.</desc>
    <defs></defs>
    <g id="Page-1" stroke="none" stroke-width="1" fill="none" fill-rule="evenodd" fill-opacity="0.4">
        <polygon id="Shape" fill="#FFFFFF" points="1 22 1 20 2 20 2 17 3 17 3 15 4 15 4 14 5 14 5 12 6 12 6 11 7 11 7 10 8 10 8 9 9 9 9 8 10 8 10 7 11 7 11 6 12 6 12 5 14 5 14 4 15 4 15 3 17 3 17 2 20 2 20 1 23 1 23 0 35 0 35 1 39 1 39 2 41 2 41 3 43 3 43 4 45 4 45 5 46 5 46 6 48 6 48 7 49 7 49 8 50 8 50 9 51 9 51 10 52 10 52 11 53 11 53 13 54 13 54 14 55 14 55 16 56 16 56 18 57 18 57 21 58 21 58 26 59 26 59 33 58 33 58 37 57 37 57 40 56 40 56 42 55 42 55 44 54 44 54 46 53 46 53 47 52 47 52 48 51 48 51 49 50 49 50 50 49 50 49 51 48 51 48 52 47 52 47 53 46 53 46 54 44 54 44 55 42 55 42 56 40 56 40 57 37 57 37 58 33 58 33 59 26 59 26 58 21 58 21 57 18 57 18 56 16 56 16 55 14 55 14 54 13 54 13 53 12 53 12 52 10 52 10 51 9 51 9 50 8 50 8 49 7 49 7 48 6 48 6 46 5 46 5 45 4 45 4 43 3 43 3 41 2 41 2 39 1 39 1 35 0 35 0 23 1 23"></polygon>
    </g>
</svg>