<?xml version="1.0" encoding="UTF-8"?>
<svg width="59px" height="58px" viewBox="0 0 59 58" version="1.1" xmlns="http://www.w3.org/2000/svg" xmlns:xlink="http://www.w3.org/1999/xlink">
    <!-- Generator: Sketch 39.1 (31720) - http://www.bohemiancoding.com/sketch -->
    <title>Shape</title>
    <desc>Created with Sketch.</desc>
    <defs></defs>
    <g id="Page-1" stroke="none" stroke-width="1" fill="none" fill-rule="evenodd" fill-opacity="0.4">
        <polygon id="Shape" fill="#FFFFFF" points="37 0 37 1 40 1 40 2 42 2 42 3 44 3 44 4 46 4 46 5 47 5 47 6 48 6 48 7 50 7 50 8 51 8 51 10 52 10 52 11 53 11 53 12 54 12 54 14 55 14 55 15 56 15 56 17 57 17 57 20 58 20 58 24 59 24 59 34 58 34 58 38 57 38 57 41 56 41 56 43 55 43 55 44 54 44 54 46 53 46 53 47 52 47 52 48 51 48 51 49 50 49 50 50 49 50 49 51 48 51 48 52 47 52 47 53 46 53 46 54 44 54 44 55 42 55 42 56 40 56 40 57 37 57 37 58 23 58 23 57 19 57 19 56 17 56 17 55 15 55 15 54 13 54 13 53 12 53 12 52 11 52 11 51 10 51 10 50 9 50 9 49 8 49 8 48 7 48 7 47 6 47 6 46 5 46 5 44 4 44 4 42 3 42 3 40 2 40 2 38 1 38 1 33 0 33 0 25 1 25 1 21 2 21 2 18 3 18 3 16 4 16 4 14 5 14 5 12 6 12 6 11 7 11 7 10 8 10 8 9 9 9 9 8 10 8 10 7 11 7 11 6 12 6 12 5 14 5 14 4 15 4 15 3 17 3 17 2 19 2 19 1 23 1 23 0"></polygon>
    </g>
</svg>