<?xml version="1.0" encoding="UTF-8"?>
<svg width="58px" height="59px" viewBox="0 0 58 59" version="1.1" xmlns="http://www.w3.org/2000/svg" xmlns:xlink="http://www.w3.org/1999/xlink">
    <!-- Generator: Sketch 39.1 (31720) - http://www.bohemiancoding.com/sketch -->
    <title>Shape</title>
    <desc>Created with Sketch.</desc>
    <defs></defs>
    <g id="Page-1" stroke="none" stroke-width="1" fill="none" fill-rule="evenodd" fill-opacity="0.4">
        <polygon id="Shape" fill="#FFFFFF" points="19 2 18 2 18 3 16 3 16 4 14 4 14 5 12 5 12 6 11 6 11 7 10 7 10 8 9 8 9 9 8 9 8 10 7 10 7 11 6 11 6 12 5 12 5 14 4 14 4 15 3 15 3 17 2 17 2 19 1 19 1 23 0 23 0 36 1 36 1 40 2 40 2 42 3 42 3 44 4 44 4 46 5 46 5 47 6 47 6 48 7 48 7 49 8 49 8 50 9 50 9 51 10 51 10 52 11 52 11 53 12 53 12 54 14 54 14 55 16 55 16 56 18 56 18 57 21 57 21 58 25 58 25 59 34 59 34 58 38 58 38 57 40 57 40 56 43 56 43 55 44 55 44 54 46 54 46 53 47 53 47 52 48 52 48 51 49 51 49 50 50 50 50 49 51 49 51 48 52 48 52 47 53 47 53 46 54 46 54 44 55 44 55 42 56 42 56 40 57 40 57 37 58 37 58 22 57 22 57 19 56 19 56 17 55 17 55 15 54 15 54 13 53 13 53 12 52 12 52 11 51 11 51 9 50 9 50 8 48 8 48 7 47 7 47 6 46 6 46 5 44 5 44 4 43 4 43 3 41 3 41 2 38 2 38 1 34 1 34 0 24 0 24 1 20 1 20 2"></polygon>
    </g>
</svg>