<?xml version="1.0" encoding="UTF-8"?>
<svg width="573px" height="711px" viewBox="0 0 573 711" version="1.1" xmlns="http://www.w3.org/2000/svg" xmlns:xlink="http://www.w3.org/1999/xlink">
    <!-- Generator: Sketch 39.1 (31720) - http://www.bohemiancoding.com/sketch -->
    <title>Shape</title>
    <desc>Created with Sketch.</desc>
    <defs></defs>
    <g id="Page-1" stroke="none" stroke-width="1" fill="none" fill-rule="evenodd" fill-opacity="0.4">
        <polygon id="Shape" fill="#FFFFFF" points="390 557 390 558 388 558 388 559 387 559 387 560 386 560 386 561 385 561 385 562 384 562 384 563 382 563 382 564 381 564 381 565 380 565 380 566 379 566 379 567 377 567 377 568 376 568 376 569 375 569 375 570 374 570 374 571 372 571 372 572 371 572 371 573 370 573 370 574 368 574 368 575 367 575 367 576 366 576 366 577 364 577 364 578 363 578 363 579 361 579 361 580 360 580 360 581 358 581 358 582 357 582 357 583 355 583 355 584 354 584 354 585 352 585 352 586 351 586 351 587 349 587 349 588 348 588 348 589 346 589 346 590 344 590 344 591 343 591 343 592 341 592 341 593 339 593 339 594 337 594 337 595 336 595 336 596 334 596 334 597 332 597 332 598 330 598 330 599 328 599 328 600 326 600 326 601 325 601 325 602 323 602 323 603 321 603 321 604 319 604 319 605 316 605 316 606 314 606 314 607 312 607 312 608 310 608 310 609 308 609 308 610 305 610 305 611 303 611 303 612 301 612 301 613 298 613 298 614 296 614 296 615 293 615 293 616 290 616 290 617 288 617 288 618 285 618 285 619 282 619 282 620 279 620 279 621 276 621 276 622 273 622 273 623 270 623 270 624 266 624 266 625 262 625 262 626 259 626 259 627 255 627 255 628 250 628 250 629 246 629 246 630 241 630 241 631 236 631 236 632 230 632 230 633 224 633 224 634 216 634 216 635 206 635 206 636 189 636 189 637 166 637 166 636 150 636 150 635 140 635 140 634 133 634 133 633 126 633 126 632 120 632 120 631 115 631 115 630 110 630 110 629 106 629 106 628 102 628 102 627 98 627 98 626 94 626 94 625 90 625 90 624 87 624 87 623 84 623 84 622 81 622 81 621 77 621 77 620 75 620 75 619 72 619 72 618 69 618 69 617 66 617 66 616 64 616 64 615 61 615 61 614 58 614 58 613 56 613 56 612 54 612 54 611 51 611 51 610 49 610 49 609 47 609 47 608 45 608 45 607 42 607 42 606 40 606 40 605 38 605 38 604 36 604 36 603 33 603 33 605 32 605 32 607 31 607 31 609 30 609 30 610 29 610 29 612 28 612 28 614 27 614 27 616 26 616 26 618 25 618 25 620 24 620 24 622 23 622 23 624 22 624 22 626 21 626 21 628 20 628 20 630 19 630 19 632 18 632 18 634 17 634 17 636 16 636 16 638 15 638 15 640 14 640 14 642 13 642 13 644 12 644 12 646 11 646 11 648 10 648 10 650 9 650 9 652 8 652 8 654 7 654 7 656 6 656 6 658 5 658 5 660 4 660 4 662 3 662 3 663 2 663 2 665 1 665 1 667 0 667 0 669 2 669 2 670 4 670 4 671 6 671 6 672 8 672 8 673 10 673 10 674 12 674 12 675 14 675 14 676 16 676 16 677 19 677 19 678 21 678 21 679 23 679 23 680 26 680 26 681 28 681 28 682 30 682 30 683 33 683 33 684 35 684 35 685 38 685 38 686 41 686 41 687 43 687 43 688 46 688 46 689 49 689 49 690 52 690 52 691 55 691 55 692 58 692 58 693 61 693 61 694 64 694 64 695 68 695 68 696 71 696 71 697 75 697 75 698 78 698 78 699 82 699 82 700 86 700 86 701 91 701 91 702 95 702 95 703 100 703 100 704 105 704 105 705 110 705 110 706 116 706 116 707 123 707 123 708 130 708 130 709 139 709 139 710 151 710 151 711 204 711 204 710 216 710 216 709 225 709 225 708 233 708 233 707 240 707 240 706 246 706 246 705 251 705 251 704 256 704 256 703 261 703 261 702 266 702 266 701 270 701 270 700 274 700 274 699 278 699 278 698 282 698 282 697 285 697 285 696 289 696 289 695 292 695 292 694 295 694 295 693 299 693 299 692 302 692 302 691 305 691 305 690 308 690 308 689 310 689 310 688 313 688 313 687 316 687 316 686 319 686 319 685 321 685 321 684 324 684 324 683 326 683 326 682 329 682 329 681 331 681 331 680 333 680 333 679 336 679 336 678 338 678 338 677 340 677 340 676 342 676 342 675 345 675 345 674 347 674 347 673 349 673 349 672 351 672 351 671 353 671 353 670 355 670 355 669 357 669 357 668 359 668 359 667 361 667 361 666 363 666 363 665 365 665 365 664 367 664 367 663 368 663 368 662 370 662 370 661 372 661 372 660 374 660 374 659 376 659 376 658 377 658 377 657 379 657 379 656 381 656 381 655 382 655 382 654 384 654 384 653 386 653 386 652 387 652 387 651 389 651 389 650 390 650 390 649 392 649 392 648 394 648 394 647 395 647 395 646 397 646 397 645 398 645 398 644 400 644 400 643 401 643 401 642 402 642 402 641 404 641 404 640 405 640 405 639 407 639 407 638 408 638 408 637 410 637 410 636 411 636 411 635 412 635 412 634 414 634 414 633 415 633 415 632 416 632 416 631 418 631 418 630 419 630 419 629 420 629 420 628 422 628 422 627 423 627 423 626 424 626 424 625 425 625 425 624 427 624 427 623 428 623 428 622 429 622 429 621 430 621 430 620 431 620 431 619 433 619 433 618 434 618 434 617 435 617 435 616 436 616 436 615 437 615 437 614 439 614 439 613 440 613 440 612 441 612 441 611 442 611 442 610 443 610 443 609 444 609 444 608 445 608 445 607 446 607 446 606 447 606 447 605 448 605 448 604 449 604 449 603 451 603 451 602 452 602 452 601 453 601 453 600 454 600 454 599 455 599 455 598 456 598 456 597 457 597 457 596 458 596 458 595 459 595 459 594 460 594 460 593 461 593 461 592 462 592 462 591 463 591 463 590 464 590 464 589 465 589 465 588 466 588 466 586 467 586 467 585 468 585 468 584 469 584 469 583 470 583 470 582 471 582 471 581 472 581 472 580 473 580 473 579 474 579 474 578 475 578 475 576 476 576 476 575 477 575 477 574 478 574 478 573 479 573 479 572 480 572 480 571 481 571 481 569 482 569 482 568 483 568 483 567 484 567 484 566 485 566 485 565 486 565 486 563 487 563 487 562 488 562 488 561 489 561 489 560 490 560 490 558 491 558 491 557 492 557 492 556 493 556 493 554 494 554 494 553 495 553 495 552 496 552 496 550 497 550 497 549 498 549 498 547 499 547 499 546 500 546 500 545 501 545 501 543 502 543 502 542 503 542 503 540 504 540 504 539 505 539 505 537 506 537 506 536 507 536 507 534 508 534 508 533 509 533 509 531 510 531 510 530 511 530 511 528 512 528 512 527 513 527 513 525 514 525 514 523 515 523 515 522 516 522 516 520 517 520 517 519 518 519 518 517 519 517 519 515 520 515 520 513 521 513 521 512 522 512 522 510 523 510 523 508 524 508 524 506 525 506 525 504 526 504 526 502 527 502 527 501 528 501 528 499 529 499 529 497 530 497 530 495 531 495 531 493 532 493 532 491 533 491 533 489 534 489 534 487 535 487 535 485 536 485 536 482 537 482 537 480 538 480 538 478 539 478 539 476 540 476 540 474 541 474 541 471 542 471 542 469 543 469 543 466 544 466 544 464 545 464 545 462 546 462 546 459 547 459 547 456 548 456 548 454 549 454 549 451 550 451 550 448 551 448 551 445 552 445 552 442 553 442 553 439 554 439 554 436 555 436 555 433 556 433 556 430 557 430 557 427 558 427 558 423 559 423 559 419 560 419 560 416 561 416 561 412 562 412 562 408 563 408 563 403 564 403 564 399 565 399 565 394 566 394 566 389 567 389 567 383 568 383 568 377 569 377 569 370 570 370 570 362 571 362 571 353 572 353 572 339 573 339 573 295 572 295 572 282 571 282 571 272 570 272 570 264 569 264 569 257 568 257 568 251 567 251 567 246 566 246 566 240 565 240 565 235 564 235 564 231 563 231 563 226 562 226 562 222 561 222 561 218 560 218 560 215 559 215 559 211 558 211 558 208 557 208 557 204 556 204 556 201 555 201 555 198 554 198 554 194 553 194 553 191 552 191 552 189 551 189 551 186 550 186 550 183 549 183 549 180 548 180 548 177 547 177 547 175 546 175 546 172 545 172 545 170 544 170 544 167 543 167 543 165 542 165 542 163 541 163 541 160 540 160 540 158 539 158 539 156 538 156 538 153 537 153 537 151 536 151 536 149 535 149 535 147 534 147 534 145 533 145 533 143 532 143 532 141 531 141 531 139 530 139 530 137 529 137 529 135 528 135 528 133 527 133 527 131 526 131 526 129 525 129 525 127 524 127 524 126 523 126 523 124 522 124 522 122 521 122 521 120 520 120 520 118 519 118 519 117 518 117 518 115 517 115 517 113 516 113 516 112 515 112 515 110 514 110 514 109 513 109 513 107 512 107 512 105 511 105 511 104 510 104 510 102 509 102 509 101 508 101 508 99 507 99 507 98 506 98 506 96 505 96 505 95 504 95 504 93 503 93 503 92 502 92 502 90 501 90 501 89 500 89 500 88 499 88 499 86 498 86 498 85 497 85 497 83 496 83 496 82 495 82 495 81 494 81 494 79 493 79 493 78 492 78 492 77 491 77 491 75 490 75 490 74 489 74 489 73 488 73 488 72 487 72 487 70 486 70 486 69 485 69 485 68 484 68 484 67 483 67 483 65 482 65 482 64 481 64 481 63 480 63 480 62 479 62 479 61 478 61 478 59 477 59 477 58 476 58 476 57 475 57 475 56 474 56 474 55 473 55 473 54 472 54 472 53 471 53 471 52 470 52 470 50 469 50 469 49 468 49 468 48 467 48 467 47 466 47 466 46 465 46 465 45 464 45 464 44 463 44 463 43 462 43 462 42 461 42 461 41 460 41 460 40 459 40 459 39 458 39 458 38 457 38 457 37 456 37 456 36 455 36 455 35 454 35 454 34 453 34 453 33 452 33 452 32 451 32 451 31 450 31 450 30 449 30 449 29 448 29 448 28 447 28 447 27 446 27 446 26 444 26 444 25 443 25 443 24 442 24 442 23 441 23 441 22 440 22 440 21 439 21 439 20 438 20 438 19 437 19 437 18 435 18 435 17 434 17 434 16 433 16 433 15 432 15 432 14 431 14 431 13 430 13 430 12 428 12 428 11 427 11 427 10 426 10 426 9 425 9 425 8 423 8 423 7 422 7 422 6 421 6 421 5 419 5 419 4 418 4 418 3 417 3 417 2 415 2 415 1 414 1 414 0 412 0 412 1 411 1 411 3 410 3 410 4 409 4 409 5 408 5 408 7 407 7 407 8 406 8 406 9 405 9 405 11 404 11 404 12 403 12 403 14 402 14 402 15 401 15 401 16 400 16 400 18 399 18 399 19 398 19 398 20 397 20 397 22 396 22 396 23 395 23 395 24 394 24 394 26 393 26 393 27 392 27 392 28 391 28 391 30 390 30 390 31 389 31 389 33 388 33 388 34 387 34 387 35 386 35 386 37 385 37 385 38 384 38 384 39 383 39 383 41 382 41 382 42 381 42 381 43 380 43 380 45 379 45 379 46 378 46 378 47 377 47 377 49 376 49 376 50 375 50 375 52 374 52 374 53 373 53 373 54 372 54 372 56 371 56 371 57 370 57 370 58 369 58 369 60 370 60 370 61 371 61 371 62 373 62 373 63 374 63 374 64 375 64 375 65 377 65 377 66 378 66 378 67 379 67 379 68 380 68 380 69 382 69 382 70 383 70 383 71 384 71 384 72 385 72 385 73 386 73 386 74 388 74 388 75 389 75 389 76 390 76 390 77 391 77 391 78 392 78 392 79 393 79 393 80 394 80 394 81 395 81 395 82 397 82 397 83 398 83 398 84 399 84 399 85 400 85 400 86 401 86 401 87 402 87 402 88 403 88 403 89 404 89 404 90 405 90 405 91 406 91 406 92 407 92 407 93 408 93 408 94 409 94 409 95 410 95 410 96 411 96 411 97 412 97 412 98 413 98 413 99 414 99 414 101 415 101 415 102 416 102 416 103 417 103 417 104 418 104 418 105 419 105 419 106 420 106 420 107 421 107 421 108 422 108 422 110 423 110 423 111 424 111 424 112 425 112 425 113 426 113 426 114 427 114 427 116 428 116 428 117 429 117 429 118 430 118 430 119 431 119 431 121 432 121 432 122 433 122 433 123 434 123 434 125 435 125 435 126 436 126 436 127 437 127 437 129 438 129 438 130 439 130 439 132 440 132 440 133 441 133 441 134 442 134 442 136 443 136 443 137 444 137 444 139 445 139 445 140 446 140 446 142 447 142 447 143 448 143 448 145 449 145 449 147 450 147 450 148 451 148 451 150 452 150 452 151 453 151 453 153 454 153 454 155 455 155 455 157 456 157 456 158 457 158 457 160 458 160 458 162 459 162 459 164 460 164 460 166 461 166 461 167 462 167 462 169 463 169 463 171 464 171 464 173 465 173 465 175 466 175 466 177 467 177 467 179 468 179 468 182 469 182 469 184 470 184 470 186 471 186 471 188 472 188 472 191 473 191 473 193 474 193 474 195 475 195 475 198 476 198 476 200 477 200 477 203 478 203 478 206 479 206 479 208 480 208 480 211 481 211 481 214 482 214 482 217 483 217 483 220 484 220 484 223 485 223 485 227 486 227 486 230 487 230 487 234 488 234 488 238 489 238 489 242 490 242 490 246 491 246 491 251 492 251 492 256 493 256 493 261 494 261 494 267 495 267 495 274 496 274 496 282 497 282 497 293 498 293 498 341 497 341 497 352 496 352 496 360 495 360 495 367 494 367 494 373 493 373 493 378 492 378 492 383 491 383 491 388 490 388 490 392 489 392 489 396 488 396 488 400 487 400 487 404 486 404 486 407 485 407 485 410 484 410 484 414 483 414 483 417 482 417 482 420 481 420 481 423 480 423 480 425 479 425 479 428 478 428 478 431 477 431 477 433 476 433 476 436 475 436 475 438 474 438 474 441 473 441 473 443 472 443 472 445 471 445 471 448 470 448 470 450 469 450 469 452 468 452 468 454 467 454 467 456 466 456 466 458 465 458 465 460 464 460 464 462 463 462 463 464 462 464 462 466 461 466 461 468 460 468 460 470 459 470 459 472 458 472 458 474 457 474 457 475 456 475 456 477 455 477 455 479 454 479 454 480 453 480 453 482 452 482 452 484 451 484 451 485 450 485 450 487 449 487 449 489 448 489 448 490 447 490 447 492 446 492 446 493 445 493 445 495 444 495 444 496 443 496 443 498 442 498 442 499 441 499 441 501 440 501 440 502 439 502 439 503 438 503 438 505 437 505 437 506 436 506 436 508 435 508 435 509 434 509 434 510 433 510 433 512 432 512 432 513 431 513 431 514 430 514 430 515 429 515 429 517 428 517 428 518 427 518 427 519 426 519 426 520 425 520 425 522 424 522 424 523 423 523 423 524 422 524 422 525 421 525 421 526 420 526 420 527 419 527 419 529 418 529 418 530 417 530 417 531 416 531 416 532 415 532 415 533 414 533 414 534 413 534 413 535 412 535 412 536 411 536 411 537 410 537 410 538 409 538 409 539 408 539 408 540 407 540 407 541 406 541 406 542 405 542 405 543 404 543 404 545 402 545 402 546 401 546 401 547 400 547 400 548 399 548 399 549 398 549 398 550 397 550 397 551 396 551 396 552 395 552 395 553 394 553 394 554 393 554 393 555 392 555 392 556 391 556 391 557"></polygon>
    </g>
</svg>