<?xml version="1.0" encoding="UTF-8"?>
<svg width="207px" height="180px" viewBox="0 0 207 180" version="1.1" xmlns="http://www.w3.org/2000/svg" xmlns:xlink="http://www.w3.org/1999/xlink">
    <!-- Generator: Sketch 39.1 (31720) - http://www.bohemiancoding.com/sketch -->
    <title>Shape</title>
    <desc>Created with Sketch.</desc>
    <defs></defs>
    <g id="Page-1" stroke="none" stroke-width="1" fill="none" fill-rule="evenodd" fill-opacity="0.4">
        <polygon id="Shape" fill="#FFFFFF" points="127 127 126 127 126 128 125 128 125 129 123 129 123 130 120 130 120 131 118 131 118 132 115 132 115 133 112 133 112 134 108 134 108 135 102 135 102 136 83 136 83 135 77 135 77 134 73 134 73 133 70 133 70 132 67 132 67 131 65 131 65 130 62 130 62 129 60 129 60 128 58 128 58 127 57 127 57 126 55 126 55 125 53 125 53 124 52 124 52 123 51 123 51 122 49 122 49 121 48 121 48 120 47 120 47 119 46 119 46 118 45 118 45 117 44 117 44 116 43 116 43 115 42 115 42 114 41 114 41 113 40 113 40 112 39 112 39 111 38 111 38 110 37 110 37 108 35 108 35 109 33 109 33 110 32 110 32 111 30 111 30 112 29 112 29 113 28 113 28 114 26 114 26 115 25 115 25 116 23 116 23 117 22 117 22 118 21 118 21 119 19 119 19 120 18 120 18 121 16 121 16 122 15 122 15 123 14 123 14 124 12 124 12 125 11 125 11 126 10 126 10 127 8 127 8 128 7 128 7 129 5 129 5 130 4 130 4 131 3 131 3 132 1 132 1 133 0 133 0 134 1 134 1 135 2 135 2 136 3 136 3 138 4 138 4 139 5 139 5 140 6 140 6 141 7 141 7 142 8 142 8 143 9 143 9 144 10 144 10 145 11 145 11 147 12 147 12 148 14 148 14 149 15 149 15 150 16 150 16 151 17 151 17 152 18 152 18 153 19 153 19 154 20 154 20 155 22 155 22 156 23 156 23 157 24 157 24 158 25 158 25 159 27 159 27 160 28 160 28 161 30 161 30 162 31 162 31 163 33 163 33 164 35 164 35 165 36 165 36 166 38 166 38 167 40 167 40 168 42 168 42 169 44 169 44 170 46 170 46 171 49 171 49 172 51 172 51 173 54 173 54 174 57 174 57 175 60 175 60 176 63 176 63 177 67 177 67 178 72 178 72 179 79 179 79 180 106 180 106 179 113 179 113 178 118 178 118 177 122 177 122 176 125 176 125 175 128 175 128 174 131 174 131 173 134 173 134 172 136 172 136 171 139 171 139 170 141 170 141 169 143 169 143 168 145 168 145 167 147 167 147 166 148 166 148 165 150 165 150 164 152 164 152 163 153 163 153 162 155 162 155 161 156 161 156 160 158 160 158 159 159 159 159 158 161 158 161 157 162 157 162 156 163 156 163 155 165 155 165 154 166 154 166 153 167 153 167 152 168 152 168 151 169 151 169 150 170 150 170 149 171 149 171 148 172 148 172 147 173 147 173 146 174 146 174 145 175 145 175 144 176 144 176 143 177 143 177 142 178 142 178 141 179 141 179 140 180 140 180 139 181 139 181 137 182 137 182 136 183 136 183 135 184 135 184 133 185 133 185 132 186 132 186 131 187 131 187 129 188 129 188 128 189 128 189 126 190 126 190 124 191 124 191 123 192 123 192 121 193 121 193 119 194 119 194 117 195 117 195 115 196 115 196 113 197 113 197 110 198 110 198 108 199 108 199 105 200 105 200 103 201 103 201 99 202 99 202 96 203 96 203 92 204 92 204 87 205 87 205 81 206 81 206 68 207 68 207 64 206 64 206 51 205 51 205 45 204 45 204 40 203 40 203 37 202 37 202 33 201 33 201 30 200 30 200 27 199 27 199 25 198 25 198 22 197 22 197 20 196 20 196 18 195 18 195 16 194 16 194 14 193 14 193 12 192 12 192 10 191 10 191 8 190 8 190 7 189 7 189 5 188 5 188 3 187 3 187 2 186 2 186 0 185 0 185 1 184 1 184 2 182 2 182 3 181 3 181 4 180 4 180 5 178 5 178 6 177 6 177 7 175 7 175 8 174 8 174 9 173 9 173 10 171 10 171 11 170 11 170 12 168 12 168 13 167 13 167 14 166 14 166 15 164 15 164 16 163 16 163 17 161 17 161 18 160 18 160 19 159 19 159 20 157 20 157 21 156 21 156 22 154 22 154 23 153 23 153 24 152 24 152 25 150 25 150 27 151 27 151 29 152 29 152 30 153 30 153 32 154 32 154 34 155 34 155 36 156 36 156 38 157 38 157 40 158 40 158 43 159 43 159 46 160 46 160 50 161 50 161 55 162 55 162 77 161 77 161 82 160 82 160 86 159 86 159 89 158 89 158 92 157 92 157 94 156 94 156 97 155 97 155 99 154 99 154 101 153 101 153 102 152 102 152 104 151 104 151 105 150 105 150 107 149 107 149 108 148 108 148 110 147 110 147 111 146 111 146 112 145 112 145 113 144 113 144 114 143 114 143 115 142 115 142 116 141 116 141 117 140 117 140 118 139 118 139 119 138 119 138 120 137 120 137 121 135 121 135 122 134 122 134 123 133 123 133 124 131 124 131 125 130 125 130 126 128 126 128 127"></polygon>
    </g>
</svg>