<?xml version="1.0" encoding="UTF-8"?>
<svg width="197px" height="70px" viewBox="0 0 197 70" version="1.1" xmlns="http://www.w3.org/2000/svg" xmlns:xlink="http://www.w3.org/1999/xlink">
    <!-- Generator: Sketch 39.1 (31720) - http://www.bohemiancoding.com/sketch -->
    <title>Shape</title>
    <desc>Created with Sketch.</desc>
    <defs></defs>
    <g id="Page-1" stroke="none" stroke-width="1" fill="none" fill-rule="evenodd" fill-opacity="0.4">
        <polygon id="Shape" fill="#FFFFFF" points="2 21 2 13 1 13 1 4 0 4 0 1 12 1 12 0 62 0 62 1 74 1 74 2 82 2 82 3 89 3 89 4 96 4 96 5 101 5 101 6 106 6 106 7 111 7 111 8 116 8 116 9 120 9 120 10 124 10 124 11 128 11 128 12 131 12 131 13 135 13 135 14 138 14 138 15 142 15 142 16 145 16 145 17 148 17 148 18 151 18 151 19 154 19 154 20 157 20 157 21 159 21 159 22 162 22 162 23 165 23 165 24 167 24 167 25 170 25 170 26 172 26 172 27 174 27 174 28 177 28 177 29 179 29 179 30 181 30 181 31 184 31 184 32 186 32 186 33 188 33 188 34 190 34 190 35 192 35 192 36 194 36 194 37 196 37 196 38 197 38 197 40 196 40 196 42 195 42 195 44 194 44 194 46 193 46 193 48 192 48 192 50 191 50 191 52 190 52 190 54 189 54 189 56 188 56 188 58 187 58 187 60 186 60 186 62 185 62 185 64 184 64 184 66 183 66 183 68 182 68 182 70 179 70 179 69 177 69 177 68 175 68 175 67 173 67 173 66 171 66 171 65 169 65 169 64 167 64 167 63 165 63 165 62 162 62 162 61 160 61 160 60 157 60 157 59 155 59 155 58 152 58 152 57 150 57 150 56 147 56 147 55 144 55 144 54 142 54 142 53 139 53 139 52 136 52 136 51 132 51 132 50 129 50 129 49 126 49 126 48 122 48 122 47 119 47 119 46 115 46 115 45 111 45 111 44 106 44 106 43 102 43 102 42 97 42 97 41 91 41 91 40 85 40 85 39 78 39 78 38 69 38 69 37 57 37 57 36 17 36 17 37 4 37 4 32 3 32 3 23 2 23"></polygon>
    </g>
</svg>