<?xml version="1.0" encoding="UTF-8"?>
<svg width="59px" height="59px" viewBox="0 0 59 59" version="1.1" xmlns="http://www.w3.org/2000/svg" xmlns:xlink="http://www.w3.org/1999/xlink">
    <!-- Generator: Sketch 39.1 (31720) - http://www.bohemiancoding.com/sketch -->
    <title>Shape</title>
    <desc>Created with Sketch.</desc>
    <defs></defs>
    <g id="Page-1" stroke="none" stroke-width="1" fill="none" fill-rule="evenodd" fill-opacity="0.4">
        <polygon id="Shape" fill="#FFFFFF" points="22 1 22 2 19 2 19 3 16 3 16 4 15 4 15 5 13 5 13 6 12 6 12 7 10 7 10 8 9 8 9 9 8 9 8 10 7 10 7 11 6 11 6 13 5 13 5 14 4 14 4 16 3 16 3 18 2 18 2 20 1 20 1 24 0 24 0 36 1 36 1 39 2 39 2 42 3 42 3 44 4 44 4 45 5 45 5 47 6 47 6 48 7 48 7 49 8 49 8 50 9 50 9 51 10 51 10 52 11 52 11 53 12 53 12 54 13 54 13 55 15 55 15 56 17 56 17 57 20 57 20 58 23 58 23 59 36 59 36 58 39 58 39 57 42 57 42 56 44 56 44 55 45 55 45 54 47 54 47 53 48 53 48 52 49 52 49 51 50 51 50 50 51 50 51 49 52 49 52 48 53 48 53 46 54 46 54 45 55 45 55 43 56 43 56 41 57 41 57 38 58 38 58 33 59 33 59 26 58 26 58 22 57 22 57 19 56 19 56 17 55 17 55 15 54 15 54 13 53 13 53 12 52 12 52 11 51 11 51 10 50 10 50 9 49 9 49 8 48 8 48 7 47 7 47 6 46 6 46 5 44 5 44 4 42 4 42 3 40 3 40 2 37 2 37 1 31 1 31 0 27 0 27 1"></polygon>
    </g>
</svg>