<?xml version="1.0" encoding="UTF-8"?>
<svg width="493px" height="493px" viewBox="0 0 493 493" version="1.1" xmlns="http://www.w3.org/2000/svg" xmlns:xlink="http://www.w3.org/1999/xlink">
    <!-- Generator: Sketch 39.1 (31720) - http://www.bohemiancoding.com/sketch -->
    <title>Shape</title>
    <desc>Created with Sketch.</desc>
    <defs></defs>
    <g id="Page-1" stroke="none" stroke-width="1" fill="none" fill-rule="evenodd" fill-opacity="0.4">
        <polygon id="Shape" fill="#FFFFFF" points="60 86 60 85 61 85 61 84 62 84 62 83 63 83 63 81 64 81 64 80 65 80 65 79 66 79 66 78 67 78 67 77 68 77 68 76 69 76 69 75 70 75 70 74 71 74 71 73 72 73 72 72 73 72 73 71 74 71 74 70 75 70 75 69 76 69 76 68 77 68 77 67 78 67 78 66 79 66 79 65 80 65 80 64 81 64 81 63 82 63 82 62 84 62 84 61 85 61 85 60 86 60 86 59 87 59 87 58 88 58 88 57 89 57 89 56 91 56 91 55 92 55 92 54 93 54 93 53 94 53 94 52 96 52 96 51 97 51 97 50 98 50 98 49 100 49 100 48 101 48 101 47 102 47 102 46 104 46 104 45 105 45 105 44 107 44 107 43 108 43 108 42 110 42 110 41 111 41 111 40 113 40 113 39 114 39 114 38 116 38 116 37 117 37 117 36 119 36 119 35 121 35 121 34 122 34 122 33 124 33 124 32 126 32 126 31 128 31 128 30 129 30 129 29 131 29 131 28 133 28 133 27 135 27 135 26 137 26 137 25 139 25 139 24 141 24 141 23 143 23 143 22 145 22 145 21 148 21 148 20 150 20 150 19 152 19 152 18 155 18 155 17 157 17 157 16 160 16 160 15 163 15 163 14 166 14 166 13 168 13 168 12 172 12 172 11 175 11 175 10 178 10 178 9 182 9 182 8 185 8 185 7 189 7 189 6 194 6 194 5 199 5 199 4 204 4 204 3 210 3 210 2 218 2 218 1 228 1 228 0 265 0 265 1 275 1 275 2 283 2 283 3 289 3 289 4 294 4 294 5 299 5 299 6 303 6 303 7 307 7 307 8 311 8 311 9 315 9 315 10 318 10 318 11 321 11 321 12 324 12 324 13 327 13 327 14 330 14 330 15 333 15 333 16 335 16 335 17 338 17 338 18 340 18 340 19 343 19 343 20 345 20 345 21 347 21 347 22 350 22 350 23 352 23 352 24 354 24 354 25 356 25 356 26 358 26 358 27 360 27 360 28 362 28 362 29 363 29 363 30 365 30 365 31 367 31 367 32 369 32 369 33 371 33 371 34 372 34 372 35 374 35 374 36 376 36 376 37 377 37 377 38 379 38 379 39 380 39 380 40 382 40 382 41 383 41 383 42 385 42 385 43 386 43 386 44 388 44 388 45 389 45 389 46 390 46 390 47 392 47 392 48 393 48 393 49 395 49 395 50 396 50 396 51 397 51 397 52 398 52 398 53 400 53 400 54 401 54 401 55 402 55 402 56 403 56 403 57 405 57 405 58 406 58 406 59 407 59 407 60 408 60 408 61 409 61 409 62 410 62 410 63 412 63 412 64 413 64 413 65 414 65 414 66 415 66 415 67 416 67 416 68 417 68 417 69 418 69 418 70 419 70 419 71 420 71 420 72 421 72 421 73 422 73 422 74 423 74 423 75 424 75 424 76 425 76 425 77 426 77 426 78 427 78 427 79 428 79 428 80 429 80 429 82 430 82 430 83 431 83 431 84 432 84 432 85 433 85 433 86 434 86 434 87 435 87 435 88 436 88 436 90 437 90 437 91 438 91 438 92 439 92 439 93 440 93 440 95 441 95 441 96 442 96 442 97 443 97 443 99 444 99 444 100 445 100 445 101 446 101 446 103 447 103 447 104 448 104 448 105 449 105 449 107 450 107 450 108 451 108 451 110 452 110 452 111 453 111 453 113 454 113 454 114 455 114 455 116 456 116 456 118 457 118 457 119 458 119 458 121 459 121 459 123 460 123 460 124 461 124 461 126 462 126 462 128 463 128 463 130 464 130 464 132 465 132 465 134 466 134 466 136 467 136 467 138 468 138 468 140 469 140 469 142 470 142 470 144 471 144 471 146 472 146 472 148 473 148 473 151 474 151 474 153 475 153 475 156 476 156 476 158 477 158 477 161 478 161 478 163 479 163 479 166 480 166 480 169 481 169 481 172 482 172 482 176 483 176 483 179 484 179 484 183 485 183 485 187 486 187 486 191 487 191 487 195 488 195 488 200 489 200 489 206 490 206 490 212 491 212 491 220 492 220 492 233 493 233 493 235 489 235 489 236 465 236 465 237 441 237 441 238 418 238 418 239 396 239 396 228 395 228 395 221 394 221 394 216 393 216 393 211 392 211 392 207 391 207 391 204 390 204 390 201 389 201 389 197 388 197 388 195 387 195 387 192 386 192 386 189 385 189 385 187 384 187 384 185 383 185 383 183 382 183 382 180 381 180 381 178 380 178 380 177 379 177 379 175 378 175 378 173 377 173 377 171 376 171 376 169 375 169 375 168 374 168 374 166 373 166 373 165 372 165 372 163 371 163 371 162 370 162 370 160 369 160 369 159 368 159 368 157 367 157 367 156 366 156 366 155 365 155 365 153 364 153 364 152 363 152 363 151 362 151 362 150 361 150 361 148 360 148 360 147 359 147 359 146 358 146 358 145 357 145 357 144 356 144 356 143 355 143 355 142 354 142 354 141 353 141 353 140 352 140 352 139 351 139 351 138 350 138 350 137 349 137 349 136 348 136 348 135 347 135 347 134 346 134 346 133 345 133 345 132 343 132 343 131 342 131 342 130 341 130 341 129 340 129 340 128 338 128 338 127 337 127 337 126 336 126 336 125 334 125 334 124 333 124 333 123 332 123 332 122 330 122 330 121 329 121 329 120 327 120 327 119 326 119 326 118 324 118 324 117 322 117 322 116 320 116 320 115 319 115 319 114 317 114 317 113 315 113 315 112 313 112 313 111 311 111 311 110 309 110 309 109 307 109 307 108 304 108 304 107 302 107 302 106 299 106 299 105 296 105 296 104 293 104 293 103 290 103 290 102 287 102 287 101 283 101 283 100 279 100 279 99 273 99 273 98 267 98 267 97 257 97 257 96 236 96 236 97 226 97 226 98 219 98 219 99 214 99 214 100 210 100 210 101 206 101 206 102 203 102 203 103 200 103 200 104 197 104 197 105 194 105 194 106 191 106 191 107 189 107 189 108 186 108 186 109 184 109 184 110 182 110 182 111 180 111 180 112 178 112 178 113 176 113 176 114 174 114 174 115 172 115 172 116 171 116 171 117 169 117 169 118 167 118 167 119 166 119 166 120 164 120 164 121 163 121 163 122 161 122 161 123 160 123 160 124 158 124 158 125 157 125 157 126 156 126 156 127 154 127 154 128 153 128 153 129 152 129 152 130 151 130 151 131 149 131 149 132 148 132 148 133 147 133 147 134 146 134 146 135 145 135 145 136 144 136 144 137 143 137 143 138 142 138 142 139 141 139 141 140 140 140 140 141 139 141 139 142 138 142 138 143 137 143 137 144 136 144 136 145 135 145 135 146 134 146 134 147 133 147 133 148 132 148 132 149 131 149 131 151 130 151 130 152 129 152 129 153 128 153 128 154 127 154 127 156 126 156 126 157 125 157 125 158 124 158 124 160 123 160 123 161 122 161 122 163 121 163 121 164 120 164 120 166 119 166 119 167 118 167 118 169 117 169 117 171 116 171 116 172 115 172 115 174 114 174 114 176 113 176 113 178 112 178 112 180 111 180 111 182 110 182 110 184 109 184 109 187 108 187 108 189 107 189 107 191 106 191 106 194 105 194 105 197 104 197 104 200 103 200 103 203 102 203 102 207 101 207 101 210 100 210 100 215 99 215 99 220 98 220 98 227 97 227 97 237 96 237 96 255 97 255 97 266 98 266 98 272 99 272 99 277 100 277 100 282 101 282 101 286 102 286 102 289 103 289 103 293 104 293 104 296 105 296 105 298 106 298 106 301 107 301 107 303 108 303 108 306 109 306 109 308 110 308 110 310 111 310 111 312 112 312 112 314 113 314 113 316 114 316 114 318 115 318 115 320 116 320 116 322 117 322 117 323 118 323 118 325 119 325 119 327 120 327 120 328 121 328 121 330 122 330 122 331 123 331 123 333 124 333 124 334 125 334 125 335 126 335 126 337 127 337 127 338 128 338 128 339 129 339 129 341 130 341 130 342 131 342 131 343 132 343 132 344 133 344 133 345 134 345 134 347 135 347 135 348 136 348 136 349 137 349 137 350 138 350 138 351 139 351 139 352 140 352 140 353 141 353 141 354 142 354 142 355 143 355 143 356 144 356 144 357 145 357 145 358 147 358 147 359 148 359 148 360 149 360 149 361 150 361 150 362 151 362 151 363 152 363 152 364 154 364 154 365 155 365 155 366 156 366 156 367 158 367 158 368 159 368 159 369 160 369 160 370 162 370 162 371 163 371 163 372 165 372 165 373 166 373 166 374 168 374 168 375 170 375 170 376 171 376 171 377 173 377 173 378 175 378 175 379 177 379 177 380 179 380 179 381 181 381 181 382 183 382 183 383 185 383 185 384 187 384 187 385 190 385 190 386 192 386 192 387 195 387 195 388 198 388 198 389 201 389 201 390 204 390 204 391 208 391 208 392 212 392 212 393 217 393 217 394 222 394 222 395 230 395 230 396 252 396 252 402 253 402 253 426 254 426 254 449 255 449 255 473 256 473 256 493 237 493 237 492 223 492 223 491 214 491 214 490 207 490 207 489 201 489 201 488 196 488 196 487 192 487 192 486 188 486 188 485 184 485 184 484 180 484 180 483 176 483 176 482 173 482 173 481 170 481 170 480 167 480 167 479 164 479 164 478 161 478 161 477 159 477 159 476 156 476 156 475 154 475 154 474 151 474 151 473 149 473 149 472 147 472 147 471 144 471 144 470 142 470 142 469 140 469 140 468 138 468 138 467 136 467 136 466 134 466 134 465 132 465 132 464 130 464 130 463 128 463 128 462 127 462 127 461 125 461 125 460 123 460 123 459 121 459 121 458 120 458 120 457 118 457 118 456 116 456 116 455 115 455 115 454 113 454 113 453 112 453 112 452 110 452 110 451 109 451 109 450 107 450 107 449 106 449 106 448 104 448 104 447 103 447 103 446 102 446 102 445 100 445 100 444 99 444 99 443 98 443 98 442 96 442 96 441 95 441 95 440 94 440 94 439 92 439 92 438 91 438 91 437 90 437 90 436 89 436 89 435 88 435 88 434 86 434 86 433 85 433 85 432 84 432 84 431 83 431 83 430 82 430 82 429 81 429 81 428 80 428 80 427 79 427 79 426 78 426 78 425 76 425 76 424 75 424 75 423 74 423 74 422 73 422 73 421 72 421 72 420 71 420 71 419 70 419 70 418 69 418 69 417 68 417 68 415 67 415 67 414 66 414 66 413 65 413 65 412 64 412 64 411 63 411 63 410 62 410 62 409 61 409 61 408 60 408 60 407 59 407 59 405 58 405 58 404 57 404 57 403 56 403 56 402 55 402 55 401 54 401 54 399 53 399 53 398 52 398 52 397 51 397 51 396 50 396 50 394 49 394 49 393 48 393 48 392 47 392 47 390 46 390 46 389 45 389 45 387 44 387 44 386 43 386 43 384 42 384 42 383 41 383 41 381 40 381 40 380 39 380 39 378 38 378 38 377 37 377 37 375 36 375 36 374 35 374 35 372 34 372 34 370 33 370 33 368 32 368 32 367 31 367 31 365 30 365 30 363 29 363 29 361 28 361 28 359 27 359 27 357 26 357 26 355 25 355 25 353 24 353 24 351 23 351 23 349 22 349 22 347 21 347 21 345 20 345 20 342 19 342 19 340 18 340 18 337 17 337 17 335 16 335 16 332 15 332 15 330 14 330 14 327 13 327 13 324 12 324 12 321 11 321 11 318 10 318 10 314 9 314 9 311 8 311 8 307 7 307 7 303 6 303 6 298 5 298 5 293 4 293 4 288 3 288 3 281 2 281 2 274 1 274 1 262 0 262 0 230 1 230 1 219 2 219 2 211 3 211 3 205 4 205 4 199 5 199 5 194 6 194 6 190 7 190 7 186 8 186 8 182 9 182 9 178 10 178 10 175 11 175 11 172 12 172 12 169 13 169 13 166 14 166 14 163 15 163 15 160 16 160 16 158 17 158 17 155 18 155 18 153 19 153 19 150 20 150 20 148 21 148 21 146 22 146 22 143 23 143 23 141 24 141 24 139 25 139 25 137 26 137 26 135 27 135 27 133 28 133 28 131 29 131 29 129 30 129 30 128 31 128 31 126 32 126 32 124 33 124 33 122 34 122 34 121 35 121 35 119 36 119 36 117 37 117 37 116 38 116 38 114 39 114 39 113 40 113 40 111 41 111 41 110 42 110 42 108 43 108 43 107 44 107 44 105 45 105 45 104 46 104 46 102 47 102 47 101 48 101 48 100 49 100 49 98 50 98 50 97 51 97 51 96 52 96 52 94 53 94 53 93 54 93 54 92 55 92 55 91 56 91 56 89 57 89 57 88 58 88 58 87 59 87 59 86"></polygon>
    </g>
</svg>