<?xml version="1.0" encoding="UTF-8"?>
<svg id="wiggly" width="1468px" height="188px" viewBox="0 0 1468 188" version="1.1" xmlns="http://www.w3.org/2000/svg" xmlns:xlink="http://www.w3.org/1999/xlink">
    <!-- Generator: Sketch 39.1 (31720) - http://www.bohemiancoding.com/sketch -->
    <title>Page 1</title>
    <desc>Created with Sketch.</desc>
    <defs>
        <linearGradient x1="-11.9238587%" y1="100%" x2="202.890188%" y2="100%" id="linearGradient-1">
            <stop stop-color="#42FF9E" offset="0%"></stop>
            <stop stop-color="#7FEAFF" offset="100%"></stop>
        </linearGradient>
        <polygon id="path-2" points="1467.605 86.1311 1467.605 46.7441 763.0603 46.7441 763.0603 86.1311"></polygon>
        <linearGradient x1="-107.622338%" y1="100%" x2="100%" y2="100%" id="linearGradient-4">
            <stop stop-color="#42FF9E" offset="0%"></stop>
            <stop stop-color="#7FEAFF" offset="100%"></stop>
        </linearGradient>
    </defs>
    <g id="Page-1" stroke="none" stroke-width="1" fill="none" fill-rule="evenodd">
        <g transform="translate(0.000000, 3.000000)">
            <path d="M16.4358,17.8148 C202.8068,-43.7122 748.2788,73.8888 748.2788,73.8888" id="Stroke-1" stroke="url(#linearGradient-1)" stroke-width="4"></path>
            <path d="M13.3091,125.0413 C118.4091,161.2093 488.5131,217.3503 746.7371,78.0183" id="Stroke-3" stroke="url(#linearGradient-1)" stroke-width="4"></path>
            <path d="M14.4312,67.8187 C14.4312,67.8187 405.0632,-83.9823 748.7992,75.9237" id="Stroke-5" stroke="url(#linearGradient-1)" stroke-width="4"></path>
            <path d="M0.4788,95.0765 C0.4788,95.0765 415.4918,-7.2515 748.8958,76.1855" id="Stroke-7" stroke="url(#linearGradient-1)" stroke-width="4"></path>
            <path d="M17.9839,182.9085 C61.4049,176.8575 521.7659,48.6745 749.9429,75.9785" id="Stroke-9" stroke="url(#linearGradient-1)" stroke-width="4"></path>
            <mask id="mask-3" fill="white">
                <use xlink:href="#path-2"></use>
            </mask>
            <g id="Clip-12"></g>
            <path d="M763.0603,75.2601 C848.1053,75.2601 925.6053,46.7441 1010.1053,46.7441 C1094.6053,46.7441 1192.6053,86.1311 1259.6053,86.1311 C1326.6053,86.1311 1412.6053,49.8031 1467.6053,49.8031" id="Stroke-11" stroke="url(#linearGradient-4)" stroke-width="4" mask="url(#mask-3)"></path>
        </g>
    </g>
</svg>